<svg xmlns="http://www.w3.org/2000/svg" xmlns:xlink="http://www.w3.org/1999/xlink" width="300" zoomAndPan="magnify" viewBox="0 0 224.87999 225" height="300" preserveAspectRatio="xMidYMid meet" version="1.0"><defs><clipPath id="b792ae3c17"><path d="M 0 0.0585938 L 224.761719 0.0585938 L 224.761719 224.9375 L 0 224.9375 Z M 0 0.0585938 " clip-rule="nonzero"/></clipPath></defs><g clip-path="url(#b792ae3c17)"><path fill="#673ab7" d="M 224.878906 193.707031 C 224.878906 210.960938 210.898438 224.941406 193.648438 224.941406 L 31.234375 224.941406 C 13.984375 224.941406 0 210.960938 0 193.707031 L 0 31.292969 C 0 14.039062 13.984375 0.0585938 31.234375 0.0585938 L 193.648438 0.0585938 C 210.898438 0.0585938 224.878906 14.039062 224.878906 31.292969 Z M 224.878906 193.707031 " fill-opacity="1" fill-rule="nonzero"/></g><path fill="#ffffff" d="M 168.847656 122.496094 C 164.785156 116.871094 158.914062 113 151.355469 110.9375 C 151.355469 110.9375 157.726562 108.628906 163.476562 100.007812 C 166.910156 94.507812 168.660156 87.886719 168.660156 80.140625 C 168.660156 66.710938 163.789062 56.40625 154.042969 49.347656 C 144.296875 42.289062 133.304688 37.539062 114.625 37.539062 L 56.21875 37.539062 L 56.21875 187.460938 L 121.371094 187.460938 C 139.050781 187.335938 152.355469 183.523438 161.414062 176.214844 C 170.410156 168.78125 174.90625 157.789062 174.90625 143.109375 C 174.90625 134.988281 172.90625 128.117188 168.847656 122.496094 Z M 93.699219 62.527344 C 93.699219 62.527344 119.75 62.527344 120.25 62.527344 C 129.742188 62.527344 137.425781 70.210938 137.425781 79.703125 C 137.425781 89.199219 129.742188 96.882812 120.25 96.882812 C 119.75 96.882812 93.699219 96.882812 93.699219 96.882812 Z M 124.933594 162.472656 L 93.699219 162.472656 L 93.699219 124.992188 L 124.933594 124.992188 C 135.304688 124.992188 143.671875 133.363281 143.671875 143.734375 C 143.671875 154.101562 135.304688 162.472656 124.933594 162.472656 Z M 124.933594 162.472656 " fill-opacity="1" fill-rule="nonzero"/></svg>