<svg xmlns="http://www.w3.org/2000/svg" xmlns:xlink="http://www.w3.org/1999/xlink" width="300" zoomAndPan="magnify" viewBox="0 0 224.87999 225" height="300" preserveAspectRatio="xMidYMid meet" version="1.0"><defs><clipPath id="17625656c3"><path d="M 11.804688 0.0585938 L 213.449219 0.0585938 L 213.449219 224.9375 L 11.804688 224.9375 Z M 11.804688 0.0585938 " clip-rule="nonzero"/></clipPath></defs><g clip-path="url(#17625656c3)"><path fill="#0277bd" d="M 213.417969 0.0585938 L 11.835938 0.0585938 L 29.621094 201.269531 L 112.628906 224.941406 L 195.632812 201.269531 Z M 213.417969 0.0585938 " fill-opacity="1" fill-rule="nonzero"/></g><path fill="#039be5" d="M 112.628906 17.8125 L 112.628906 206.59375 L 179.03125 187.65625 L 193.851562 17.8125 Z M 112.628906 17.8125 " fill-opacity="1" fill-rule="nonzero"/><path fill="#ffffff" d="M 166.582031 47.402344 L 112.628906 47.402344 L 112.628906 71.074219 L 141.679688 71.074219 L 139.898438 94.746094 L 112.628906 94.746094 L 112.628906 118.417969 L 138.714844 118.417969 L 136.9375 145.046875 L 112.628906 153.332031 L 112.628906 178.1875 L 159.464844 162.800781 L 163.617188 94.746094 Z M 166.582031 47.402344 " fill-opacity="1" fill-rule="nonzero"/><path fill="#eeeeee" d="M 112.628906 47.402344 L 112.628906 71.074219 L 59.859375 71.074219 L 58.082031 47.402344 Z M 85.355469 94.746094 L 86.539062 118.417969 L 112.628906 118.417969 L 112.628906 94.746094 Z M 87.726562 130.253906 L 64.011719 130.253906 L 65.789062 162.800781 L 112.628906 178.1875 L 112.628906 153.332031 L 88.320312 145.046875 Z M 87.726562 130.253906 " fill-opacity="1" fill-rule="nonzero"/></svg>