<svg xmlns="http://www.w3.org/2000/svg" xmlns:xlink="http://www.w3.org/1999/xlink" width="300" zoomAndPan="magnify" viewBox="0 0 224.87999 225" height="300" preserveAspectRatio="xMidYMid meet" version="1.0"><defs><clipPath id="6cf4c42929"><path d="M 14 0.0585938 L 211 0.0585938 L 211 224.9375 L 14 224.9375 Z M 14 0.0585938 " clip-rule="nonzero"/></clipPath></defs><path fill="#000000" d="M 112.582031 27.628906 C 113.09375 27.628906 113.589844 27.527344 114.066406 27.332031 C 114.542969 27.136719 114.960938 26.855469 115.324219 26.492188 C 115.691406 26.128906 115.96875 25.707031 116.167969 25.234375 C 116.363281 24.757812 116.460938 24.265625 116.464844 23.75 L 116.464844 16.617188 C 116.542969 16.328125 116.585938 16.035156 116.597656 15.738281 C 116.605469 15.441406 116.582031 15.144531 116.527344 14.851562 C 116.46875 14.558594 116.378906 14.277344 116.257812 14.007812 C 116.132812 13.734375 115.980469 13.480469 115.800781 13.246094 C 115.621094 13.007812 115.414062 12.792969 115.183594 12.605469 C 114.953125 12.414062 114.703125 12.253906 114.4375 12.125 C 114.167969 11.992188 113.890625 11.890625 113.601562 11.824219 C 113.308594 11.753906 113.015625 11.722656 112.714844 11.722656 C 112.417969 11.722656 112.125 11.753906 111.832031 11.824219 C 111.542969 11.890625 111.261719 11.992188 110.996094 12.125 C 110.730469 12.253906 110.480469 12.414062 110.25 12.605469 C 110.019531 12.792969 109.8125 13.007812 109.632812 13.246094 C 109.449219 13.480469 109.300781 13.734375 109.175781 14.007812 C 109.054688 14.277344 108.964844 14.558594 108.90625 14.851562 C 108.847656 15.144531 108.824219 15.441406 108.835938 15.738281 C 108.847656 16.035156 108.890625 16.328125 108.96875 16.617188 L 108.96875 23.90625 C 108.988281 24.382812 109.089844 24.84375 109.277344 25.28125 C 109.46875 25.722656 109.726562 26.113281 110.0625 26.457031 C 110.394531 26.800781 110.777344 27.074219 111.210938 27.273438 C 111.648438 27.476562 112.101562 27.59375 112.582031 27.628906 Z M 112.582031 27.628906 " fill-opacity="1" fill-rule="nonzero"/><path fill="#000000" d="M 186.964844 101.953125 L 194.109375 101.953125 C 194.398438 102.03125 194.691406 102.078125 194.988281 102.085938 C 195.285156 102.097656 195.582031 102.074219 195.875 102.015625 C 196.167969 101.960938 196.449219 101.871094 196.722656 101.746094 C 196.996094 101.625 197.25 101.472656 197.484375 101.292969 C 197.722656 101.113281 197.9375 100.90625 198.125 100.675781 C 198.316406 100.445312 198.476562 100.199219 198.609375 99.929688 C 198.742188 99.664062 198.839844 99.382812 198.910156 99.09375 C 198.976562 98.804688 199.011719 98.511719 199.011719 98.210938 C 199.011719 97.914062 198.976562 97.621094 198.910156 97.332031 C 198.839844 97.039062 198.742188 96.761719 198.609375 96.496094 C 198.476562 96.226562 198.316406 95.980469 198.125 95.75 C 197.9375 95.519531 197.722656 95.3125 197.484375 95.132812 C 197.25 94.953125 196.996094 94.800781 196.722656 94.675781 C 196.449219 94.554688 196.167969 94.464844 195.875 94.40625 C 195.582031 94.351562 195.285156 94.328125 194.988281 94.335938 C 194.691406 94.347656 194.398438 94.394531 194.109375 94.472656 L 186.964844 94.472656 C 186.554688 94.582031 186.171875 94.757812 185.820312 94.996094 C 185.464844 95.230469 185.160156 95.519531 184.898438 95.859375 C 184.640625 96.195312 184.445312 96.566406 184.308594 96.96875 C 184.171875 97.371094 184.101562 97.785156 184.101562 98.210938 C 184.101562 98.636719 184.171875 99.050781 184.308594 99.457031 C 184.445312 99.859375 184.640625 100.230469 184.898438 100.566406 C 185.160156 100.90625 185.464844 101.191406 185.820312 101.429688 C 186.171875 101.667969 186.554688 101.84375 186.964844 101.953125 Z M 186.964844 101.953125 " fill-opacity="1" fill-rule="nonzero"/><path fill="#000000" d="M 37.921875 94.472656 L 30.625 94.472656 C 30.335938 94.394531 30.042969 94.347656 29.746094 94.335938 C 29.445312 94.328125 29.152344 94.351562 28.859375 94.40625 C 28.566406 94.464844 28.285156 94.554688 28.011719 94.675781 C 27.738281 94.800781 27.484375 94.953125 27.25 95.132812 C 27.011719 95.3125 26.796875 95.519531 26.609375 95.75 C 26.417969 95.980469 26.257812 96.226562 26.125 96.496094 C 25.992188 96.761719 25.894531 97.039062 25.824219 97.332031 C 25.757812 97.621094 25.722656 97.914062 25.722656 98.210938 C 25.722656 98.511719 25.757812 98.804688 25.824219 99.09375 C 25.894531 99.382812 25.992188 99.664062 26.125 99.929688 C 26.257812 100.199219 26.417969 100.445312 26.609375 100.675781 C 26.796875 100.90625 27.011719 101.113281 27.25 101.292969 C 27.484375 101.472656 27.738281 101.625 28.011719 101.746094 C 28.285156 101.871094 28.566406 101.960938 28.859375 102.015625 C 29.152344 102.074219 29.445312 102.097656 29.746094 102.085938 C 30.042969 102.078125 30.335938 102.03125 30.625 101.953125 L 37.921875 101.953125 C 38.335938 101.84375 38.714844 101.667969 39.070312 101.429688 C 39.425781 101.191406 39.730469 100.90625 39.988281 100.566406 C 40.246094 100.230469 40.445312 99.859375 40.582031 99.457031 C 40.71875 99.050781 40.789062 98.636719 40.789062 98.210938 C 40.789062 97.785156 40.71875 97.371094 40.582031 96.96875 C 40.445312 96.566406 40.246094 96.195312 39.988281 95.859375 C 39.730469 95.519531 39.425781 95.230469 39.070312 94.996094 C 38.714844 94.757812 38.335938 94.582031 37.921875 94.472656 Z M 37.921875 94.472656 " fill-opacity="1" fill-rule="nonzero"/><path fill="#000000" d="M 155.285156 43.484375 L 111.453125 93.890625 L 66.574219 79.3125 C 66.324219 79.144531 66.0625 79.007812 65.78125 78.902344 C 65.5 78.796875 65.210938 78.726562 64.914062 78.6875 C 64.617188 78.648438 64.320312 78.644531 64.019531 78.675781 C 63.722656 78.707031 63.433594 78.769531 63.148438 78.867188 C 62.867188 78.964844 62.597656 79.09375 62.34375 79.253906 C 62.089844 79.414062 61.859375 79.597656 61.648438 79.8125 C 61.4375 80.023438 61.253906 80.257812 61.097656 80.515625 C 60.945312 80.769531 60.820312 81.039062 60.726562 81.324219 C 60.632812 81.609375 60.574219 81.898438 60.546875 82.199219 C 60.519531 82.496094 60.53125 82.792969 60.574219 83.089844 C 60.617188 83.386719 60.691406 83.671875 60.800781 83.953125 C 60.910156 84.230469 61.050781 84.492188 61.222656 84.738281 C 61.390625 84.984375 61.589844 85.207031 61.8125 85.410156 C 62.03125 85.609375 62.273438 85.78125 62.539062 85.925781 C 62.800781 86.070312 63.074219 86.183594 63.363281 86.265625 C 63.652344 86.347656 63.945312 86.394531 64.246094 86.40625 L 111.414062 101.914062 C 111.792969 102.039062 112.183594 102.105469 112.582031 102.109375 C 113.710938 102.09375 114.65625 101.667969 115.414062 100.828125 L 160.878906 48.371094 C 161.046875 47.992188 161.15625 47.59375 161.199219 47.183594 C 161.242188 46.769531 161.21875 46.359375 161.132812 45.953125 C 161.042969 45.546875 160.894531 45.164062 160.679688 44.804688 C 160.46875 44.449219 160.207031 44.132812 159.894531 43.859375 C 159.582031 43.585938 159.234375 43.367188 158.847656 43.207031 C 158.464844 43.042969 158.066406 42.945312 157.652344 42.914062 C 157.238281 42.878906 156.828125 42.910156 156.421875 43.007812 C 156.019531 43.105469 155.640625 43.265625 155.285156 43.484375 Z M 155.285156 43.484375 " fill-opacity="1" fill-rule="nonzero"/><g clip-path="url(#6cf4c42929)"><path fill="#000000" d="M 112.582031 0.0585938 C 109.828125 0.0585938 107.078125 0.171875 104.332031 0.402344 C 101.589844 0.632812 98.859375 0.976562 96.144531 1.4375 C 93.425781 1.894531 90.738281 2.46875 88.070312 3.152344 C 85.402344 3.835938 82.769531 4.632812 80.167969 5.539062 C 77.566406 6.445312 75.011719 7.460938 72.496094 8.582031 C 69.980469 9.703125 67.515625 10.925781 65.105469 12.253906 C 62.695312 13.582031 60.34375 15.007812 58.050781 16.535156 C 55.757812 18.0625 53.535156 19.679688 51.382812 21.394531 C 49.226562 23.105469 47.148438 24.90625 45.144531 26.792969 C 43.140625 28.679688 41.21875 30.648438 39.382812 32.695312 C 37.542969 34.742188 35.796875 36.867188 34.136719 39.0625 C 32.476562 41.257812 30.914062 43.515625 29.445312 45.84375 C 27.976562 48.171875 26.609375 50.554688 25.339844 52.996094 C 24.070312 55.4375 22.910156 57.929688 21.851562 60.46875 C 20.792969 63.007812 19.84375 65.585938 19.003906 68.207031 C 18.160156 70.824219 17.433594 73.472656 16.816406 76.15625 C 16.199219 78.835938 15.695312 81.535156 15.304688 84.257812 C 14.914062 86.980469 14.636719 89.714844 14.476562 92.460938 C 14.320312 95.207031 14.273438 97.957031 14.347656 100.703125 C 14.417969 103.453125 14.605469 106.195312 14.90625 108.929688 C 15.210938 111.664062 15.625 114.378906 16.160156 117.078125 C 16.691406 119.777344 17.332031 122.449219 18.089844 125.09375 C 18.847656 127.738281 19.710938 130.347656 20.6875 132.917969 C 21.664062 135.492188 22.746094 138.015625 23.933594 140.496094 C 25.125 142.980469 26.414062 145.40625 27.808594 147.777344 C 29.203125 150.152344 30.691406 152.460938 32.28125 154.707031 C 33.867188 156.957031 35.546875 159.132812 37.316406 161.238281 C 39.089844 163.34375 40.945312 165.371094 42.886719 167.324219 C 44.828125 169.273438 46.851562 171.136719 48.949219 172.917969 C 51.046875 174.699219 53.21875 176.390625 55.460938 177.988281 C 57.703125 179.585938 60.007812 181.085938 62.375 182.492188 C 64.742188 183.894531 67.164062 185.199219 69.640625 186.398438 C 68.003906 190.453125 67.1875 194.667969 67.195312 199.039062 L 67.195312 220.792969 C 67.195312 221.304688 67.292969 221.800781 67.492188 222.273438 C 67.6875 222.75 67.96875 223.167969 68.332031 223.53125 C 68.695312 223.898438 69.117188 224.175781 69.59375 224.375 C 70.066406 224.570312 70.5625 224.667969 71.078125 224.667969 L 137.195312 224.941406 L 154.121094 224.941406 C 154.636719 224.941406 155.132812 224.839844 155.605469 224.644531 C 156.082031 224.449219 156.503906 224.167969 156.867188 223.804688 C 157.230469 223.441406 157.511719 223.023438 157.707031 222.546875 C 157.90625 222.070312 158.003906 221.578125 158.003906 221.0625 L 158.003906 197.335938 C 157.992188 193.496094 157.332031 189.777344 156.023438 186.167969 C 158.492188 184.957031 160.902344 183.640625 163.257812 182.226562 C 165.613281 180.8125 167.90625 179.304688 170.132812 177.695312 C 172.363281 176.089844 174.519531 174.394531 176.609375 172.605469 C 178.695312 170.816406 180.703125 168.945312 182.628906 166.992188 C 184.558594 165.035156 186.402344 163.003906 188.160156 160.890625 C 189.917969 158.78125 191.585938 156.601562 193.160156 154.351562 C 194.734375 152.101562 196.210938 149.789062 197.59375 147.414062 C 198.972656 145.042969 200.25 142.613281 201.429688 140.132812 C 202.605469 137.652344 203.675781 135.125 204.636719 132.554688 C 205.601562 129.984375 206.457031 127.378906 207.203125 124.734375 C 207.945312 122.09375 208.578125 119.421875 209.097656 116.726562 C 209.621094 114.03125 210.027344 111.320312 210.320312 108.589844 C 210.609375 105.859375 210.789062 103.125 210.851562 100.378906 C 210.914062 97.632812 210.859375 94.890625 210.691406 92.152344 C 210.523438 89.414062 210.242188 86.683594 209.84375 83.96875 C 209.445312 81.25 208.933594 78.558594 208.3125 75.882812 C 207.6875 73.210938 206.953125 70.566406 206.105469 67.957031 C 205.257812 65.34375 204.304688 62.769531 203.242188 60.238281 C 202.179688 57.707031 201.011719 55.226562 199.742188 52.789062 C 198.472656 50.355469 197.101562 47.980469 195.628906 45.660156 C 194.15625 43.34375 192.59375 41.089844 190.933594 38.902344 C 189.273438 36.714844 187.523438 34.597656 185.683594 32.558594 C 183.847656 30.515625 181.925781 28.554688 179.921875 26.675781 C 177.917969 24.796875 175.839844 23.003906 173.6875 21.296875 C 171.535156 19.589844 169.3125 17.980469 167.023438 16.460938 C 164.734375 14.941406 162.386719 13.519531 159.976562 12.195312 C 157.566406 10.875 155.109375 9.652344 152.597656 8.539062 C 150.085938 7.421875 147.53125 6.410156 144.933594 5.507812 C 142.339844 4.605469 139.710938 3.816406 137.046875 3.132812 C 134.382812 2.453125 131.699219 1.882812 128.988281 1.425781 C 126.277344 0.96875 123.550781 0.628906 120.8125 0.398438 C 118.074219 0.171875 115.328125 0.0585938 112.582031 0.0585938 Z M 150.433594 217.417969 L 140.960938 217.417969 L 140.960938 206.601562 C 141.039062 206.3125 141.082031 206.019531 141.09375 205.722656 C 141.105469 205.425781 141.082031 205.128906 141.023438 204.835938 C 140.964844 204.546875 140.875 204.261719 140.753906 203.992188 C 140.632812 203.71875 140.480469 203.464844 140.296875 203.230469 C 140.117188 202.992188 139.910156 202.777344 139.679688 202.589844 C 139.449219 202.402344 139.203125 202.238281 138.933594 202.109375 C 138.667969 201.976562 138.386719 201.875 138.097656 201.808594 C 137.808594 201.742188 137.511719 201.707031 137.214844 201.707031 C 136.914062 201.707031 136.621094 201.742188 136.332031 201.808594 C 136.039062 201.875 135.761719 201.976562 135.492188 202.109375 C 135.226562 202.238281 134.976562 202.402344 134.746094 202.589844 C 134.515625 202.777344 134.3125 202.992188 134.128906 203.230469 C 133.949219 203.464844 133.796875 203.71875 133.675781 203.992188 C 133.550781 204.261719 133.460938 204.546875 133.402344 204.835938 C 133.347656 205.128906 133.324219 205.425781 133.335938 205.722656 C 133.34375 206.019531 133.390625 206.3125 133.46875 206.601562 L 133.46875 217.183594 L 91.730469 217.183594 L 91.730469 207.296875 C 91.8125 207.011719 91.855469 206.71875 91.867188 206.421875 C 91.875 206.121094 91.851562 205.828125 91.796875 205.535156 C 91.738281 205.242188 91.648438 204.960938 91.527344 204.6875 C 91.402344 204.417969 91.25 204.164062 91.070312 203.925781 C 90.890625 203.691406 90.683594 203.476562 90.453125 203.289062 C 90.222656 203.097656 89.972656 202.9375 89.707031 202.804688 C 89.4375 202.675781 89.160156 202.574219 88.867188 202.507812 C 88.578125 202.4375 88.285156 202.40625 87.984375 202.40625 C 87.6875 202.40625 87.394531 202.4375 87.101562 202.507812 C 86.8125 202.574219 86.53125 202.675781 86.265625 202.804688 C 86 202.9375 85.75 203.097656 85.519531 203.289062 C 85.289062 203.476562 85.082031 203.691406 84.902344 203.925781 C 84.71875 204.164062 84.570312 204.417969 84.445312 204.6875 C 84.324219 204.960938 84.234375 205.242188 84.175781 205.535156 C 84.117188 205.828125 84.09375 206.121094 84.105469 206.421875 C 84.117188 206.71875 84.160156 207.011719 84.238281 207.296875 L 84.238281 217.183594 L 74.765625 217.183594 L 74.765625 199.039062 C 74.738281 197.359375 74.878906 195.691406 75.195312 194.039062 C 75.507812 192.386719 75.988281 190.78125 76.632812 189.230469 C 77.277344 187.675781 78.074219 186.203125 79.019531 184.8125 C 79.96875 183.421875 81.046875 182.140625 82.257812 180.972656 L 84.046875 179.304688 C 85.746094 177.695312 87.679688 176.453125 89.851562 175.574219 C 92.023438 174.699219 94.28125 174.25 96.625 174.226562 L 130.4375 174.226562 C 132.34375 174.238281 134.203125 174.539062 136.015625 175.136719 C 137.824219 175.730469 139.5 176.589844 141.039062 177.714844 C 144.035156 179.953125 146.3125 182.769531 147.871094 186.167969 C 149.613281 189.726562 150.464844 193.488281 150.433594 197.449219 Z M 152.722656 179.421875 C 150.769531 176.371094 148.324219 173.789062 145.386719 171.667969 C 143.210938 170.078125 140.84375 168.863281 138.285156 168.03125 C 135.722656 167.195312 133.09375 166.777344 130.402344 166.78125 L 123.375 166.78125 C 124.378906 166.367188 125.355469 165.902344 126.304688 165.375 C 127.253906 164.851562 128.171875 164.273438 129.058594 163.644531 C 129.941406 163.015625 130.785156 162.339844 131.59375 161.613281 C 132.398438 160.886719 133.160156 160.117188 133.878906 159.300781 C 134.59375 158.488281 135.265625 157.636719 135.882812 156.746094 C 136.503906 155.855469 137.070312 154.933594 137.582031 153.976562 C 138.097656 153.023438 138.554688 152.039062 138.957031 151.03125 C 139.355469 150.023438 139.699219 148.996094 139.980469 147.949219 C 140.261719 146.902344 140.484375 145.84375 140.648438 144.773438 C 140.808594 143.699219 140.90625 142.621094 140.945312 141.539062 C 140.980469 140.453125 140.957031 139.371094 140.867188 138.292969 C 140.78125 137.210938 140.632812 136.136719 140.421875 135.074219 C 140.210938 134.011719 139.941406 132.960938 139.609375 131.929688 C 139.28125 130.898438 138.890625 129.886719 138.445312 128.898438 C 137.996094 127.910156 137.496094 126.953125 136.9375 126.019531 C 136.378906 125.089844 135.769531 124.195312 135.109375 123.332031 C 134.449219 122.472656 133.742188 121.652344 132.988281 120.871094 C 132.234375 120.09375 131.4375 119.359375 130.597656 118.671875 C 129.761719 117.980469 128.882812 117.34375 127.972656 116.757812 C 127.058594 116.167969 126.117188 115.632812 125.144531 115.152344 C 124.171875 114.675781 123.171875 114.25 122.148438 113.886719 C 121.128906 113.519531 120.089844 113.214844 119.03125 112.96875 C 117.972656 112.722656 116.90625 112.535156 115.828125 112.410156 C 114.75 112.289062 113.667969 112.226562 112.582031 112.226562 C 111.496094 112.226562 110.414062 112.289062 109.335938 112.410156 C 108.253906 112.535156 107.1875 112.722656 106.128906 112.96875 C 105.074219 113.214844 104.03125 113.519531 103.011719 113.886719 C 101.988281 114.25 100.992188 114.675781 100.015625 115.152344 C 99.042969 115.632812 98.101562 116.167969 97.1875 116.757812 C 96.277344 117.34375 95.402344 117.980469 94.5625 118.671875 C 93.722656 119.359375 92.925781 120.09375 92.171875 120.871094 C 91.417969 121.652344 90.710938 122.472656 90.050781 123.332031 C 89.390625 124.195312 88.78125 125.089844 88.222656 126.019531 C 87.667969 126.953125 87.164062 127.910156 86.71875 128.898438 C 86.269531 129.886719 85.882812 130.898438 85.550781 131.929688 C 85.21875 132.960938 84.949219 134.011719 84.738281 135.074219 C 84.527344 136.136719 84.378906 137.210938 84.292969 138.292969 C 84.203125 139.371094 84.179688 140.453125 84.21875 141.539062 C 84.253906 142.621094 84.351562 143.699219 84.515625 144.773438 C 84.675781 145.84375 84.898438 146.902344 85.179688 147.949219 C 85.464844 148.996094 85.804688 150.023438 86.207031 151.03125 C 86.605469 152.039062 87.0625 153.023438 87.578125 153.976562 C 88.089844 154.933594 88.65625 155.855469 89.277344 156.746094 C 89.898438 157.636719 90.566406 158.488281 91.285156 159.300781 C 92 160.117188 92.761719 160.886719 93.570312 161.613281 C 94.375 162.339844 95.21875 163.015625 96.105469 163.644531 C 96.988281 164.273438 97.90625 164.851562 98.855469 165.375 C 99.804688 165.902344 100.785156 166.367188 101.789062 166.78125 L 96.585938 166.78125 C 94.957031 166.792969 93.34375 166.957031 91.746094 167.273438 C 90.144531 167.589844 88.589844 168.050781 87.078125 168.65625 C 85.566406 169.265625 84.125 170.007812 82.753906 170.882812 C 81.382812 171.761719 80.105469 172.757812 78.921875 173.875 L 77.097656 175.542969 C 75.65625 176.875 74.359375 178.335938 73.214844 179.925781 C 71.683594 179.191406 70.179688 178.417969 68.695312 177.601562 C 67.207031 176.785156 65.75 175.925781 64.3125 175.027344 C 62.875 174.128906 61.464844 173.191406 60.082031 172.214844 C 58.695312 171.234375 57.339844 170.21875 56.011719 169.167969 C 54.6875 168.113281 53.390625 167.023438 52.125 165.898438 C 50.859375 164.773438 49.625 163.613281 48.421875 162.417969 C 47.222656 161.222656 46.054688 159.992188 44.925781 158.734375 C 43.792969 157.472656 42.695312 156.183594 41.636719 154.859375 C 40.578125 153.539062 39.554688 152.1875 38.570312 150.808594 C 37.585938 149.429688 36.644531 148.027344 35.738281 146.59375 C 34.832031 145.164062 33.96875 143.707031 33.144531 142.226562 C 32.324219 140.746094 31.542969 139.246094 30.800781 137.722656 C 30.0625 136.199219 29.367188 134.65625 28.714844 133.09375 C 28.0625 131.53125 27.453125 129.949219 26.890625 128.355469 C 26.328125 126.757812 25.808594 125.144531 25.335938 123.519531 C 24.859375 121.894531 24.433594 120.257812 24.050781 118.609375 C 23.667969 116.957031 23.335938 115.300781 23.046875 113.632812 C 22.757812 111.960938 22.515625 110.289062 22.320312 108.605469 C 22.128906 106.921875 21.980469 105.238281 21.878906 103.546875 C 21.78125 101.859375 21.726562 100.167969 21.722656 98.472656 C 21.71875 96.78125 21.757812 95.089844 21.847656 93.398438 C 21.9375 91.707031 22.078125 90.019531 22.261719 88.335938 C 22.445312 86.652344 22.675781 84.976562 22.957031 83.308594 C 23.234375 81.636719 23.558594 79.976562 23.929688 78.324219 C 24.300781 76.671875 24.71875 75.03125 25.183594 73.40625 C 25.648438 71.777344 26.15625 70.160156 26.710938 68.5625 C 27.265625 66.960938 27.863281 65.378906 28.507812 63.8125 C 29.148438 62.246094 29.835938 60.699219 30.566406 59.171875 C 31.296875 57.640625 32.070312 56.136719 32.882812 54.652344 C 33.699219 53.167969 34.554688 51.707031 35.449219 50.269531 C 36.347656 48.832031 37.28125 47.421875 38.257812 46.035156 C 39.234375 44.652344 40.246094 43.296875 41.296875 41.96875 C 42.351562 40.640625 43.4375 39.34375 44.5625 38.074219 C 45.6875 36.808594 46.847656 35.574219 48.039062 34.371094 C 49.234375 33.167969 50.460938 32 51.71875 30.867188 C 52.976562 29.734375 54.269531 28.636719 55.589844 27.574219 C 56.910156 26.515625 58.257812 25.492188 59.636719 24.503906 C 61.015625 23.519531 62.421875 22.574219 63.851562 21.664062 C 65.28125 20.757812 66.738281 19.890625 68.21875 19.066406 C 69.699219 18.238281 71.199219 17.457031 72.722656 16.714844 C 74.25 15.972656 75.792969 15.273438 77.355469 14.617188 C 78.917969 13.964844 80.496094 13.351562 82.09375 12.785156 C 83.691406 12.21875 85.304688 11.695312 86.929688 11.21875 C 88.558594 10.742188 90.195312 10.3125 91.847656 9.925781 C 93.5 9.542969 95.160156 9.203125 96.828125 8.910156 C 98.5 8.621094 100.175781 8.375 101.859375 8.175781 C 103.542969 7.976562 105.230469 7.828125 106.921875 7.722656 C 108.613281 7.617188 110.308594 7.5625 112.003906 7.554688 C 113.699219 7.542969 115.390625 7.582031 117.085938 7.667969 C 118.777344 7.753906 120.46875 7.886719 122.152344 8.066406 C 123.839844 8.246094 125.519531 8.472656 127.191406 8.75 C 128.863281 9.023438 130.527344 9.34375 132.183594 9.710938 C 133.839844 10.078125 135.480469 10.492188 137.113281 10.949219 C 138.746094 11.410156 140.363281 11.914062 141.964844 12.464844 C 143.570312 13.015625 145.15625 13.609375 146.726562 14.246094 C 148.296875 14.886719 149.847656 15.566406 151.378906 16.292969 C 152.910156 17.019531 154.421875 17.785156 155.910156 18.59375 C 157.398438 19.40625 158.863281 20.253906 160.304688 21.148438 C 161.746094 22.039062 163.160156 22.96875 164.546875 23.941406 C 165.9375 24.914062 167.296875 25.921875 168.628906 26.96875 C 169.960938 28.015625 171.261719 29.097656 172.535156 30.21875 C 173.804688 31.339844 175.046875 32.492188 176.25 33.683594 C 177.457031 34.871094 178.628906 36.09375 179.769531 37.347656 C 180.90625 38.605469 182.007812 39.890625 183.074219 41.207031 C 184.140625 42.523438 185.167969 43.867188 186.160156 45.242188 C 187.148438 46.617188 188.101562 48.015625 189.011719 49.445312 C 189.925781 50.871094 190.796875 52.324219 191.625 53.800781 C 192.457031 55.273438 193.246094 56.773438 193.992188 58.292969 C 194.738281 59.8125 195.441406 61.351562 196.101562 62.914062 C 196.761719 64.472656 197.375 66.046875 197.945312 67.644531 C 198.519531 69.238281 199.046875 70.84375 199.527344 72.46875 C 200.007812 74.09375 200.441406 75.726562 200.832031 77.375 C 201.222656 79.023438 201.566406 80.679688 201.863281 82.347656 C 202.15625 84.015625 202.40625 85.6875 202.609375 87.367188 C 202.8125 89.050781 202.96875 90.734375 203.074219 92.425781 C 203.183594 94.113281 203.246094 95.804688 203.257812 97.5 C 203.269531 99.191406 203.238281 100.882812 203.15625 102.574219 C 203.074219 104.265625 202.945312 105.953125 202.765625 107.636719 C 202.589844 109.320312 202.367188 111 202.097656 112.667969 C 201.828125 114.339844 201.507812 116.003906 201.144531 117.65625 C 200.78125 119.308594 200.371094 120.953125 199.914062 122.582031 C 199.460938 124.214844 198.957031 125.832031 198.410156 127.433594 C 197.863281 129.035156 197.273438 130.621094 196.636719 132.191406 C 196.003906 133.761719 195.324219 135.3125 194.601562 136.84375 C 193.878906 138.375 193.113281 139.882812 192.304688 141.371094 C 191.5 142.863281 190.648438 144.328125 189.761719 145.769531 C 188.871094 147.210938 187.941406 148.625 186.972656 150.011719 C 186.003906 151.402344 184.996094 152.765625 183.953125 154.097656 C 182.90625 155.429688 181.824219 156.730469 180.707031 158.003906 C 179.585938 159.277344 178.433594 160.515625 177.246094 161.726562 C 176.058594 162.933594 174.835938 164.105469 173.585938 165.246094 C 172.332031 166.386719 171.046875 167.488281 169.730469 168.554688 C 168.414062 169.625 167.070312 170.652344 165.695312 171.644531 C 164.324219 172.636719 162.921875 173.59375 161.496094 174.507812 C 160.066406 175.417969 158.617188 176.292969 157.140625 177.125 C 155.664062 177.957031 154.167969 178.75 152.644531 179.5 Z M 112.582031 161.351562 C 111.894531 161.351562 111.214844 161.320312 110.535156 161.253906 C 109.851562 161.1875 109.175781 161.085938 108.503906 160.953125 C 107.835938 160.820312 107.171875 160.652344 106.515625 160.453125 C 105.863281 160.257812 105.21875 160.027344 104.585938 159.765625 C 103.957031 159.503906 103.335938 159.210938 102.734375 158.890625 C 102.132812 158.566406 101.546875 158.21875 100.976562 157.835938 C 100.40625 157.457031 99.859375 157.050781 99.328125 156.617188 C 98.800781 156.183594 98.292969 155.726562 97.8125 155.242188 C 97.328125 154.761719 96.867188 154.253906 96.433594 153.726562 C 96 153.199219 95.59375 152.652344 95.214844 152.082031 C 94.832031 151.515625 94.480469 150.929688 94.160156 150.328125 C 93.835938 149.722656 93.546875 149.109375 93.285156 148.476562 C 93.023438 147.84375 92.792969 147.203125 92.59375 146.550781 C 92.394531 145.894531 92.226562 145.234375 92.09375 144.5625 C 91.960938 143.894531 91.859375 143.21875 91.792969 142.539062 C 91.726562 141.859375 91.695312 141.175781 91.695312 140.492188 C 91.695312 139.808594 91.726562 139.128906 91.792969 138.449219 C 91.859375 137.769531 91.960938 137.09375 92.09375 136.425781 C 92.226562 135.753906 92.394531 135.09375 92.59375 134.4375 C 92.792969 133.785156 93.023438 133.140625 93.285156 132.511719 C 93.546875 131.878906 93.835938 131.261719 94.160156 130.660156 C 94.480469 130.058594 94.832031 129.472656 95.214844 128.90625 C 95.59375 128.335938 96 127.789062 96.433594 127.261719 C 96.867188 126.730469 97.328125 126.226562 97.8125 125.742188 C 98.292969 125.261719 98.800781 124.800781 99.328125 124.367188 C 99.859375 123.9375 100.40625 123.527344 100.976562 123.148438 C 101.546875 122.769531 102.132812 122.417969 102.734375 122.097656 C 103.335938 121.773438 103.957031 121.484375 104.585938 121.222656 C 105.21875 120.960938 105.863281 120.730469 106.515625 120.53125 C 107.171875 120.335938 107.835938 120.167969 108.503906 120.035156 C 109.175781 119.902344 109.851562 119.800781 110.535156 119.734375 C 111.214844 119.667969 111.894531 119.632812 112.582031 119.632812 C 113.265625 119.632812 113.945312 119.667969 114.628906 119.734375 C 115.308594 119.800781 115.984375 119.902344 116.65625 120.035156 C 117.328125 120.167969 117.988281 120.335938 118.644531 120.53125 C 119.296875 120.730469 119.941406 120.960938 120.574219 121.222656 C 121.207031 121.484375 121.824219 121.773438 122.425781 122.097656 C 123.03125 122.417969 123.617188 122.769531 124.183594 123.148438 C 124.753906 123.527344 125.300781 123.9375 125.832031 124.367188 C 126.359375 124.800781 126.867188 125.261719 127.351562 125.742188 C 127.832031 126.226562 128.292969 126.730469 128.726562 127.261719 C 129.160156 127.789062 129.566406 128.335938 129.949219 128.90625 C 130.328125 129.472656 130.679688 130.058594 131 130.660156 C 131.324219 131.261719 131.617188 131.878906 131.878906 132.511719 C 132.140625 133.140625 132.371094 133.785156 132.566406 134.4375 C 132.765625 135.09375 132.933594 135.753906 133.066406 136.425781 C 133.199219 137.09375 133.300781 137.769531 133.367188 138.449219 C 133.433594 139.128906 133.46875 139.808594 133.46875 140.492188 C 133.464844 141.175781 133.429688 141.859375 133.363281 142.535156 C 133.296875 143.214844 133.195312 143.890625 133.058594 144.558594 C 132.925781 145.230469 132.757812 145.890625 132.558594 146.542969 C 132.359375 147.199219 132.128906 147.839844 131.867188 148.46875 C 131.605469 149.101562 131.3125 149.71875 130.988281 150.320312 C 130.667969 150.921875 130.316406 151.507812 129.9375 152.074219 C 129.554688 152.640625 129.148438 153.1875 128.714844 153.714844 C 128.28125 154.246094 127.820312 154.75 127.339844 155.230469 C 126.855469 155.714844 126.347656 156.171875 125.820312 156.605469 C 125.292969 157.039062 124.742188 157.445312 124.175781 157.824219 C 123.605469 158.207031 123.023438 158.554688 122.417969 158.878906 C 121.816406 159.199219 121.199219 159.492188 120.566406 159.753906 C 119.9375 160.015625 119.292969 160.246094 118.640625 160.445312 C 117.984375 160.644531 117.324219 160.8125 116.652344 160.945312 C 115.980469 161.082031 115.308594 161.179688 114.625 161.25 C 113.945312 161.316406 113.265625 161.351562 112.582031 161.351562 Z M 112.582031 161.351562 " fill-opacity="1" fill-rule="nonzero"/></g></svg>