<svg xmlns="http://www.w3.org/2000/svg" xmlns:xlink="http://www.w3.org/1999/xlink" width="300" zoomAndPan="magnify" viewBox="0 0 224.87999 225" height="300" preserveAspectRatio="xMidYMid meet" version="1.0"><defs><clipPath id="daad2d4602"><path d="M 0 0.0585938 L 224.761719 0.0585938 L 224.761719 224.9375 L 0 224.9375 Z M 0 0.0585938 " clip-rule="nonzero"/></clipPath></defs><g clip-path="url(#daad2d4602)"><path fill="#f03c2e" d="M 220.636719 102.484375 L 122.453125 4.304688 C 121.78125 3.632812 121.050781 3.03125 120.261719 2.503906 C 119.46875 1.976562 118.636719 1.527344 117.757812 1.164062 C 116.878906 0.800781 115.972656 0.527344 115.039062 0.339844 C 114.109375 0.15625 113.164062 0.0625 112.214844 0.0625 C 111.265625 0.0625 110.324219 0.15625 109.390625 0.339844 C 108.457031 0.527344 107.550781 0.800781 106.671875 1.164062 C 105.796875 1.527344 104.960938 1.976562 104.171875 2.503906 C 103.378906 3.03125 102.648438 3.632812 101.976562 4.304688 L 81.597656 24.683594 L 107.457031 50.546875 C 113.472656 48.4375 120.359375 49.878906 125.152344 54.671875 C 126.292969 55.8125 127.253906 57.089844 128.035156 58.503906 C 128.816406 59.917969 129.386719 61.410156 129.75 62.984375 C 130.109375 64.558594 130.246094 66.152344 130.160156 67.765625 C 130.074219 69.375 129.765625 70.945312 129.234375 72.472656 L 154.164062 97.398438 C 160.191406 95.316406 167.148438 96.660156 171.964844 101.488281 C 172.363281 101.886719 172.742188 102.304688 173.097656 102.742188 C 173.457031 103.175781 173.792969 103.628906 174.109375 104.101562 C 174.421875 104.570312 174.710938 105.054688 174.976562 105.550781 C 175.246094 106.046875 175.484375 106.558594 175.703125 107.082031 C 175.917969 107.601562 176.109375 108.132812 176.273438 108.671875 C 176.4375 109.214844 176.574219 109.761719 176.683594 110.3125 C 176.792969 110.867188 176.875 111.425781 176.933594 111.988281 C 176.988281 112.550781 177.015625 113.113281 177.015625 113.679688 C 177.015625 114.242188 176.988281 114.804688 176.933594 115.367188 C 176.878906 115.929688 176.792969 116.488281 176.683594 117.042969 C 176.574219 117.59375 176.4375 118.140625 176.273438 118.683594 C 176.109375 119.222656 175.917969 119.753906 175.703125 120.277344 C 175.488281 120.796875 175.246094 121.308594 174.980469 121.804688 C 174.714844 122.304688 174.421875 122.785156 174.109375 123.257812 C 173.796875 123.726562 173.460938 124.179688 173.101562 124.613281 C 172.742188 125.050781 172.363281 125.46875 171.964844 125.867188 C 171.566406 126.269531 171.148438 126.648438 170.710938 127.003906 C 170.273438 127.363281 169.820312 127.699219 169.351562 128.011719 C 168.882812 128.324219 168.398438 128.617188 167.902344 128.882812 C 167.402344 129.148438 166.894531 129.390625 166.371094 129.605469 C 165.847656 129.820312 165.320312 130.011719 164.777344 130.175781 C 164.238281 130.339844 163.691406 130.476562 163.136719 130.585938 C 162.582031 130.695312 162.023438 130.777344 161.464844 130.832031 C 160.902344 130.886719 160.335938 130.914062 159.773438 130.914062 C 159.207031 130.914062 158.644531 130.886719 158.082031 130.832031 C 157.519531 130.777344 156.964844 130.691406 156.410156 130.582031 C 155.855469 130.472656 155.308594 130.335938 154.769531 130.171875 C 154.226562 130.007812 153.699219 129.816406 153.175781 129.601562 C 152.652344 129.382812 152.144531 129.140625 151.648438 128.875 C 151.148438 128.609375 150.664062 128.320312 150.195312 128.003906 C 149.726562 127.691406 149.273438 127.355469 148.835938 126.996094 C 148.402344 126.636719 147.984375 126.257812 147.585938 125.859375 C 142.523438 120.800781 141.273438 113.351562 143.832031 107.117188 L 120.585938 83.871094 L 120.585938 145.042969 C 122.285156 145.886719 123.804688 146.972656 125.152344 148.304688 C 125.550781 148.703125 125.929688 149.121094 126.289062 149.558594 C 126.648438 149.996094 126.980469 150.449219 127.296875 150.917969 C 127.609375 151.386719 127.898438 151.871094 128.164062 152.367188 C 128.429688 152.863281 128.671875 153.375 128.886719 153.894531 C 129.105469 154.417969 129.292969 154.949219 129.457031 155.488281 C 129.621094 156.027344 129.757812 156.574219 129.867188 157.128906 C 129.980469 157.683594 130.0625 158.238281 130.117188 158.800781 C 130.171875 159.363281 130.199219 159.925781 130.199219 160.492188 C 130.199219 161.054688 130.171875 161.617188 130.117188 162.179688 C 130.0625 162.742188 129.980469 163.300781 129.867188 163.851562 C 129.757812 164.40625 129.621094 164.953125 129.457031 165.492188 C 129.292969 166.035156 129.105469 166.5625 128.886719 167.085938 C 128.671875 167.605469 128.429688 168.117188 128.164062 168.613281 C 127.898438 169.113281 127.609375 169.597656 127.296875 170.066406 C 126.980469 170.535156 126.648438 170.988281 126.289062 171.421875 C 125.929688 171.859375 125.550781 172.277344 125.152344 172.675781 C 124.753906 173.074219 124.335938 173.453125 123.898438 173.8125 C 123.464844 174.171875 123.011719 174.507812 122.542969 174.820312 C 122.070312 175.132812 121.589844 175.421875 121.089844 175.6875 C 120.59375 175.957031 120.082031 176.195312 119.5625 176.414062 C 119.039062 176.628906 118.507812 176.816406 117.96875 176.980469 C 117.429688 177.144531 116.882812 177.28125 116.328125 177.394531 C 115.777344 177.503906 115.21875 177.585938 114.65625 177.640625 C 114.09375 177.695312 113.53125 177.722656 112.96875 177.722656 C 112.402344 177.722656 111.839844 177.695312 111.277344 177.640625 C 110.714844 177.585938 110.160156 177.503906 109.605469 177.394531 C 109.050781 177.28125 108.503906 177.144531 107.964844 176.980469 C 107.425781 176.816406 106.894531 176.628906 106.371094 176.414062 C 105.851562 176.195312 105.339844 175.957031 104.84375 175.6875 C 104.34375 175.421875 103.863281 175.132812 103.394531 174.820312 C 102.921875 174.507812 102.472656 174.171875 102.035156 173.8125 C 101.597656 173.453125 101.179688 173.074219 100.78125 172.675781 C 100.382812 172.277344 100.003906 171.859375 99.644531 171.425781 C 99.285156 170.988281 98.949219 170.535156 98.636719 170.066406 C 98.320312 169.597656 98.03125 169.113281 97.765625 168.617188 C 97.5 168.117188 97.257812 167.609375 97.039062 167.085938 C 96.824219 166.566406 96.632812 166.035156 96.46875 165.496094 C 96.304688 164.953125 96.167969 164.40625 96.058594 163.855469 C 95.949219 163.300781 95.867188 162.742188 95.808594 162.179688 C 95.753906 161.617188 95.726562 161.054688 95.726562 160.492188 C 95.726562 159.925781 95.753906 159.363281 95.808594 158.800781 C 95.867188 158.238281 95.949219 157.679688 96.058594 157.128906 C 96.167969 156.574219 96.304688 156.027344 96.46875 155.488281 C 96.632812 154.945312 96.824219 154.417969 97.039062 153.894531 C 97.257812 153.375 97.5 152.863281 97.765625 152.367188 C 98.03125 151.867188 98.320312 151.382812 98.636719 150.914062 C 98.949219 150.445312 99.285156 149.992188 99.644531 149.558594 C 100.003906 149.121094 100.382812 148.703125 100.78125 148.304688 C 102.445312 146.648438 104.296875 145.390625 106.425781 144.546875 L 106.425781 82.800781 C 104.371094 81.957031 102.445312 80.714844 100.78125 79.042969 C 100.179688 78.441406 99.625 77.800781 99.121094 77.117188 C 98.613281 76.433594 98.160156 75.714844 97.757812 74.964844 C 97.359375 74.214844 97.015625 73.441406 96.730469 72.640625 C 96.445312 71.839844 96.21875 71.019531 96.054688 70.1875 C 95.890625 69.351562 95.789062 68.511719 95.75 67.660156 C 95.710938 66.8125 95.734375 65.964844 95.820312 65.117188 C 95.90625 64.273438 96.054688 63.4375 96.261719 62.613281 C 96.472656 61.789062 96.742188 60.984375 97.070312 60.203125 L 71.5625 34.707031 L 4.238281 101.957031 C 3.566406 102.632812 2.964844 103.363281 2.433594 104.152344 C 1.90625 104.945312 1.460938 105.777344 1.09375 106.65625 C 0.730469 107.535156 0.457031 108.441406 0.269531 109.375 C 0.0859375 110.308594 -0.0078125 111.25 -0.0078125 112.203125 C -0.0078125 113.152344 0.0859375 114.09375 0.269531 115.027344 C 0.457031 115.960938 0.730469 116.867188 1.09375 117.746094 C 1.460938 118.625 1.90625 119.457031 2.433594 120.25 C 2.964844 121.039062 3.566406 121.773438 4.238281 122.445312 L 102.425781 220.617188 C 103.097656 221.289062 103.828125 221.890625 104.621094 222.417969 C 105.410156 222.949219 106.246094 223.394531 107.125 223.757812 C 108 224.121094 108.90625 224.398438 109.839844 224.582031 C 110.773438 224.769531 111.714844 224.859375 112.664062 224.859375 C 113.617188 224.859375 114.558594 224.769531 115.488281 224.582031 C 116.421875 224.398438 117.328125 224.121094 118.207031 223.757812 C 119.085938 223.394531 119.917969 222.949219 120.710938 222.417969 C 121.5 221.890625 122.230469 221.289062 122.902344 220.617188 L 220.636719 123.042969 C 221.308594 122.367188 221.910156 121.636719 222.4375 120.847656 C 222.96875 120.054688 223.414062 119.222656 223.777344 118.34375 C 224.140625 117.464844 224.417969 116.558594 224.601562 115.625 C 224.789062 114.691406 224.882812 113.75 224.882812 112.796875 C 224.882812 111.847656 224.789062 110.90625 224.601562 109.972656 C 224.417969 109.039062 224.140625 108.132812 223.777344 107.253906 C 223.414062 106.375 222.96875 105.542969 222.4375 104.75 C 221.910156 103.960938 221.308594 103.226562 220.636719 102.554688 " fill-opacity="1" fill-rule="nonzero"/></g></svg>