<svg xmlns="http://www.w3.org/2000/svg" xmlns:xlink="http://www.w3.org/1999/xlink" width="300" zoomAndPan="magnify" viewBox="0 0 224.87999 225" height="300" preserveAspectRatio="xMidYMid meet" version="1.0"><defs><clipPath id="88806abd3a"><path d="M 3.847656 6.453125 L 221.230469 6.453125 L 221.230469 218.589844 L 3.847656 218.589844 Z M 3.847656 6.453125 " clip-rule="nonzero"/></clipPath></defs><g clip-path="url(#88806abd3a)"><path fill="#161614" d="M 112.539062 6.453125 C 52.519531 6.453125 3.847656 55.078125 3.847656 115.066406 C 3.847656 163.054688 34.992188 203.769531 78.179688 218.132812 C 83.609375 219.136719 85.605469 215.773438 85.605469 212.90625 C 85.605469 210.316406 85.503906 201.761719 85.457031 192.683594 C 55.21875 199.253906 48.839844 179.867188 48.839844 179.867188 C 43.894531 167.316406 36.769531 163.976562 36.769531 163.976562 C 26.910156 157.234375 37.515625 157.375 37.515625 157.375 C 48.429688 158.140625 54.175781 168.566406 54.175781 168.566406 C 63.871094 185.171875 79.601562 180.371094 85.804688 177.59375 C 86.78125 170.574219 89.597656 165.785156 92.703125 163.070312 C 68.5625 160.324219 43.183594 151.011719 43.183594 109.394531 C 43.183594 97.535156 47.429688 87.847656 54.382812 80.238281 C 53.253906 77.503906 49.535156 66.457031 55.4375 51.496094 C 55.4375 51.496094 64.5625 48.578125 85.335938 62.628906 C 94.003906 60.222656 103.300781 59.015625 112.539062 58.976562 C 121.777344 59.015625 131.082031 60.222656 139.769531 62.628906 C 160.511719 48.578125 169.628906 51.496094 169.628906 51.496094 C 175.542969 66.457031 171.820312 77.503906 170.691406 80.238281 C 177.664062 87.847656 181.878906 97.535156 181.878906 109.394531 C 181.878906 151.109375 156.453125 160.296875 132.25 162.984375 C 136.148438 166.355469 139.621094 172.964844 139.621094 183.097656 C 139.621094 197.632812 139.496094 209.328125 139.496094 212.90625 C 139.496094 215.796875 141.453125 219.183594 146.960938 218.117188 C 190.125 203.738281 221.226562 163.039062 221.226562 115.066406 C 221.226562 55.078125 172.566406 6.453125 112.539062 6.453125 Z M 44.558594 161.175781 C 44.316406 161.714844 43.46875 161.878906 42.695312 161.507812 C 41.90625 161.152344 41.464844 160.417969 41.71875 159.875 C 41.953125 159.320312 42.804688 159.164062 43.589844 159.539062 C 44.378906 159.890625 44.832031 160.632812 44.558594 161.175781 Z M 49.902344 165.941406 C 49.386719 166.421875 48.371094 166.199219 47.683594 165.441406 C 46.972656 164.683594 46.839844 163.671875 47.367188 163.183594 C 47.898438 162.703125 48.882812 162.929688 49.59375 163.6875 C 50.308594 164.453125 50.445312 165.457031 49.902344 165.941406 Z M 53.570312 172.042969 C 52.90625 172.503906 51.816406 172.070312 51.144531 171.105469 C 50.476562 170.140625 50.476562 168.980469 51.15625 168.515625 C 51.832031 168.054688 52.90625 168.46875 53.585938 169.429688 C 54.25 170.410156 54.25 171.570312 53.570312 172.042969 Z M 59.773438 179.105469 C 59.179688 179.761719 57.910156 179.585938 56.980469 178.691406 C 56.03125 177.816406 55.765625 176.574219 56.363281 175.914062 C 56.964844 175.257812 58.242188 175.441406 59.179688 176.332031 C 60.121094 177.207031 60.410156 178.457031 59.773438 179.105469 Z M 67.792969 181.492188 C 67.527344 182.34375 66.304688 182.730469 65.074219 182.367188 C 63.847656 181.996094 63.042969 181 63.289062 180.140625 C 63.546875 179.28125 64.773438 178.878906 66.011719 179.265625 C 67.242188 179.636719 68.046875 180.625 67.792969 181.492188 Z M 76.914062 182.503906 C 76.945312 183.398438 75.902344 184.140625 74.609375 184.15625 C 73.308594 184.1875 72.257812 183.460938 72.242188 182.582031 C 72.242188 181.675781 73.265625 180.941406 74.5625 180.917969 C 75.855469 180.894531 76.914062 181.613281 76.914062 182.503906 Z M 85.878906 182.160156 C 86.03125 183.035156 85.132812 183.929688 83.851562 184.171875 C 82.589844 184.402344 81.421875 183.859375 81.261719 182.992188 C 81.105469 182.097656 82.019531 181.199219 83.277344 180.96875 C 84.5625 180.746094 85.714844 181.269531 85.878906 182.160156 Z M 85.878906 182.160156 " fill-opacity="1" fill-rule="nonzero"/></g></svg>