<svg xmlns="http://www.w3.org/2000/svg" xmlns:xlink="http://www.w3.org/1999/xlink" width="300" zoomAndPan="magnify" viewBox="0 0 224.87999 225" height="300" preserveAspectRatio="xMidYMid meet" version="1.0"><defs><clipPath id="ca881025e1"><path d="M 77 7.121094 L 148 7.121094 L 148 217.761719 L 77 217.761719 Z M 77 7.121094 " clip-rule="nonzero"/></clipPath><clipPath id="4d9fbee361"><path d="M 147 13 L 217.699219 13 L 217.699219 212 L 147 212 Z M 147 13 " clip-rule="nonzero"/></clipPath><clipPath id="4cf0835da2"><path d="M 7.0625 13 L 78 13 L 78 212 L 7.0625 212 Z M 7.0625 13 " clip-rule="nonzero"/></clipPath></defs><g clip-path="url(#ca881025e1)"><path fill="#ffffff" d="M 147.488281 13.109375 L 147.488281 211.773438 C 136.515625 215.65625 124.699219 217.761719 112.382812 217.761719 C 100.0625 217.761719 88.246094 215.65625 77.273438 211.773438 L 77.273438 13.109375 C 88.246094 9.226562 100.0625 7.121094 112.382812 7.121094 C 124.699219 7.121094 136.515625 9.226562 147.488281 13.109375 Z M 147.488281 13.109375 " fill-opacity="1" fill-rule="evenodd"/></g><g clip-path="url(#4d9fbee361)"><path fill="#e94b35" d="M 147.488281 211.773438 L 147.488281 13.109375 C 188.398438 27.578125 217.699219 66.59375 217.699219 112.441406 C 217.699219 158.289062 188.398438 197.304688 147.488281 211.773438 Z M 147.488281 211.773438 " fill-opacity="1" fill-rule="evenodd"/></g><g clip-path="url(#4cf0835da2)"><path fill="#1aaf5d" d="M 77.273438 13.109375 L 77.273438 211.773438 C 36.363281 197.304688 7.0625 158.289062 7.0625 112.441406 C 7.0625 66.59375 36.363281 27.578125 77.273438 13.109375 Z M 77.273438 13.109375 " fill-opacity="1" fill-rule="evenodd"/></g></svg>