<svg xmlns="http://www.w3.org/2000/svg" xmlns:xlink="http://www.w3.org/1999/xlink" width="300" zoomAndPan="magnify" viewBox="0 0 224.87999 225" height="300" preserveAspectRatio="xMidYMid meet" version="1.0"><defs><clipPath id="ab1b1329cb"><path d="M 8.292969 8.355469 L 216.683594 8.355469 L 216.683594 216.742188 L 8.292969 216.742188 Z M 8.292969 8.355469 " clip-rule="nonzero"/></clipPath></defs><g clip-path="url(#ab1b1329cb)"><path fill="#0277b5" d="M 199.273438 8.355469 L 25.808594 8.355469 C 16.214844 8.355469 8.503906 16.171875 8.503906 25.660156 L 8.503906 199.4375 C 8.503906 209.027344 16.320312 216.742188 25.808594 216.742188 L 199.167969 216.742188 C 208.757812 216.742188 216.472656 208.925781 216.472656 199.4375 L 216.472656 25.660156 C 216.578125 16.171875 208.863281 8.355469 199.273438 8.355469 Z M 70.113281 180.257812 L 39.359375 180.257812 L 39.359375 87.894531 L 70.113281 87.894531 Z M 54.683594 76.738281 C 44.988281 76.738281 37.167969 68.921875 37.167969 59.226562 C 37.167969 49.53125 44.988281 41.710938 54.683594 41.710938 C 64.378906 41.710938 72.195312 49.53125 72.195312 59.226562 C 72.195312 68.921875 64.378906 76.738281 54.683594 76.738281 Z M 185.824219 180.257812 L 154.96875 180.257812 L 154.238281 125.421875 C 154.238281 125.421875 154.96875 110.828125 139.019531 110.933594 C 123.070312 111.035156 120.878906 125.421875 120.878906 125.421875 L 120.878906 180.257812 L 89.8125 180.257812 L 89.8125 87.894531 L 119.628906 87.894531 L 119.628906 100.613281 C 119.628906 100.613281 120.878906 96.441406 127.761719 91.542969 C 134.640625 86.644531 146.003906 85.601562 150.902344 85.808594 C 155.800781 86.015625 162.472656 85.183594 173.628906 92.898438 C 185.617188 101.132812 185.929688 122.710938 185.929688 122.710938 Z M 185.824219 180.257812 " fill-opacity="1" fill-rule="nonzero"/></g></svg>