<svg xmlns="http://www.w3.org/2000/svg" xmlns:xlink="http://www.w3.org/1999/xlink" width="300" zoomAndPan="magnify" viewBox="0 0 224.87999 225" height="300" preserveAspectRatio="xMidYMid meet" version="1.0"><defs><clipPath id="0298a0cec6"><path d="M 28 2.28125 L 196 2.28125 L 196 222.664062 L 28 222.664062 Z M 28 2.28125 " clip-rule="nonzero"/></clipPath></defs><g clip-path="url(#0298a0cec6)"><path fill="#000000" d="M 178.460938 2.28125 L 45.792969 2.28125 C 36.128906 2.28125 28.269531 10.144531 28.269531 19.8125 L 28.269531 205.132812 C 28.269531 214.804688 36.128906 222.664062 45.792969 222.664062 L 178.460938 222.664062 C 188.121094 222.664062 195.980469 214.804688 195.980469 205.132812 L 195.980469 19.8125 C 195.980469 10.148438 188.121094 2.28125 178.460938 2.28125 Z M 190.976562 205.136719 C 190.976562 212.046875 185.363281 217.660156 178.460938 217.660156 L 45.792969 217.660156 C 38.886719 217.660156 33.277344 212.046875 33.277344 205.136719 L 33.277344 19.816406 C 33.277344 12.914062 38.886719 7.296875 45.792969 7.296875 L 178.460938 7.296875 C 185.363281 7.296875 190.976562 12.914062 190.976562 19.816406 Z M 190.976562 205.136719 " fill-opacity="1" fill-rule="nonzero"/></g><path fill="#000000" d="M 169.472656 109.96875 L 86.363281 109.96875 C 84.980469 109.96875 83.859375 111.089844 83.859375 112.472656 C 83.859375 113.855469 84.980469 114.976562 86.363281 114.976562 L 169.472656 114.976562 C 170.859375 114.976562 171.976562 113.855469 171.976562 112.472656 C 171.976562 111.089844 170.859375 109.96875 169.472656 109.96875 Z M 169.472656 109.96875 " fill-opacity="1" fill-rule="nonzero"/><path fill="#000000" d="M 169.472656 76.324219 L 86.363281 76.324219 C 84.980469 76.324219 83.859375 77.445312 83.859375 78.828125 C 83.859375 80.210938 84.980469 81.332031 86.363281 81.332031 L 169.472656 81.332031 C 170.859375 81.332031 171.976562 80.210938 171.976562 78.828125 C 171.976562 77.445312 170.859375 76.324219 169.472656 76.324219 Z M 169.472656 76.324219 " fill-opacity="1" fill-rule="nonzero"/><path fill="#000000" d="M 169.472656 143.617188 L 86.363281 143.617188 C 84.980469 143.617188 83.859375 144.742188 83.859375 146.121094 C 83.859375 147.503906 84.980469 148.625 86.363281 148.625 L 169.472656 148.625 C 170.859375 148.625 171.976562 147.503906 171.976562 146.121094 C 171.976562 144.738281 170.859375 143.617188 169.472656 143.617188 Z M 169.472656 143.617188 " fill-opacity="1" fill-rule="nonzero"/><path fill="#000000" d="M 169.472656 42.683594 L 86.363281 42.683594 C 84.980469 42.683594 83.859375 43.804688 83.859375 45.1875 C 83.859375 46.570312 84.980469 47.691406 86.363281 47.691406 L 169.472656 47.691406 C 170.859375 47.691406 171.976562 46.570312 171.976562 45.1875 C 171.976562 43.804688 170.859375 42.683594 169.472656 42.683594 Z M 169.472656 42.683594 " fill-opacity="1" fill-rule="nonzero"/><path fill="#000000" d="M 169.472656 177.261719 L 86.363281 177.261719 C 84.980469 177.261719 83.859375 178.386719 83.859375 179.765625 C 83.859375 181.148438 84.980469 182.269531 86.363281 182.269531 L 169.472656 182.269531 C 170.859375 182.269531 171.976562 181.148438 171.976562 179.765625 C 171.976562 178.382812 170.859375 177.261719 169.472656 177.261719 Z M 169.472656 177.261719 " fill-opacity="1" fill-rule="nonzero"/><path fill="#000000" d="M 60.6875 58.5 C 68.023438 58.5 73.996094 52.527344 73.996094 45.1875 C 73.996094 42.960938 73.398438 40.894531 72.429688 39.046875 C 76.386719 35.128906 80.695312 31.578125 85.390625 28.480469 C 86.542969 27.722656 86.863281 26.167969 86.101562 25.011719 C 85.34375 23.855469 83.789062 23.542969 82.636719 24.300781 C 77.824219 27.480469 73.402344 31.132812 69.316406 35.128906 C 66.988281 33.128906 63.996094 31.871094 60.691406 31.871094 C 57.550781 31.871094 54.703125 33.015625 52.421875 34.839844 C 51.527344 34 50.15625 33.890625 49.171875 34.679688 C 48.09375 35.542969 47.925781 37.117188 48.789062 38.199219 L 49.167969 38.664062 C 48.066406 40.601562 47.390625 42.808594 47.390625 45.191406 C 47.378906 52.527344 53.351562 58.5 60.6875 58.5 Z M 68.996094 45.1875 C 68.996094 49.769531 65.273438 53.492188 60.691406 53.492188 C 56.113281 53.492188 52.390625 49.765625 52.390625 45.1875 C 52.390625 44.449219 52.515625 43.742188 52.699219 43.066406 L 58.742188 50.589844 C 59.21875 51.1875 59.933594 51.527344 60.695312 51.527344 C 60.722656 51.527344 60.75 51.527344 60.777344 51.527344 C 61.5625 51.503906 62.292969 51.113281 62.742188 50.46875 C 64.582031 47.859375 66.597656 45.417969 68.691406 43.050781 C 68.859375 43.734375 68.996094 44.441406 68.996094 45.1875 Z M 65.808594 38.695312 C 63.988281 40.6875 62.238281 42.75 60.59375 44.910156 L 55.589844 38.675781 C 57 37.5625 58.757812 36.875 60.691406 36.875 C 62.628906 36.882812 64.394531 37.578125 65.808594 38.695312 Z M 65.808594 38.695312 " fill-opacity="1" fill-rule="nonzero"/><path fill="#000000" d="M 60.6875 99.160156 C 53.347656 99.160156 47.378906 105.136719 47.378906 112.476562 C 47.378906 119.824219 53.347656 125.796875 60.6875 125.796875 C 68.023438 125.796875 73.996094 119.824219 73.996094 112.476562 C 73.996094 105.136719 68.023438 99.160156 60.6875 99.160156 Z M 60.6875 120.78125 C 56.109375 120.78125 52.386719 117.054688 52.386719 112.472656 C 52.386719 107.890625 56.109375 104.164062 60.6875 104.164062 C 65.265625 104.164062 68.992188 107.890625 68.992188 112.472656 C 68.992188 117.054688 65.265625 120.78125 60.6875 120.78125 Z M 60.6875 120.78125 " fill-opacity="1" fill-rule="nonzero"/><path fill="#000000" d="M 60.6875 132.808594 C 53.347656 132.808594 47.378906 138.777344 47.378906 146.121094 C 47.378906 153.46875 53.347656 159.4375 60.6875 159.4375 C 68.023438 159.4375 73.996094 153.46875 73.996094 146.121094 C 73.996094 138.777344 68.023438 132.808594 60.6875 132.808594 Z M 60.6875 154.425781 C 56.109375 154.425781 52.386719 150.699219 52.386719 146.121094 C 52.386719 141.535156 56.109375 137.808594 60.6875 137.808594 C 65.265625 137.808594 68.992188 141.535156 68.992188 146.121094 C 68.992188 150.699219 65.265625 154.425781 60.6875 154.425781 Z M 60.6875 154.425781 " fill-opacity="1" fill-rule="nonzero"/><path fill="#000000" d="M 60.6875 166.445312 C 53.347656 166.445312 47.378906 172.421875 47.378906 179.757812 C 47.378906 187.105469 53.351562 193.082031 60.6875 193.082031 C 68.019531 193.082031 73.996094 187.105469 73.996094 179.757812 C 73.996094 172.425781 68.023438 166.445312 60.6875 166.445312 Z M 60.6875 188.078125 C 56.109375 188.078125 52.386719 184.351562 52.386719 179.765625 C 52.386719 175.1875 56.109375 171.460938 60.6875 171.460938 C 65.265625 171.460938 68.992188 175.1875 68.992188 179.765625 C 68.992188 184.351562 65.265625 188.078125 60.6875 188.078125 Z M 60.6875 188.078125 " fill-opacity="1" fill-rule="nonzero"/><path fill="#000000" d="M 85.390625 62.125 C 86.542969 61.363281 86.863281 59.8125 86.101562 58.660156 C 85.34375 57.496094 83.789062 57.183594 82.636719 57.949219 C 77.824219 61.132812 73.402344 64.78125 69.316406 68.777344 C 66.988281 66.773438 63.996094 65.515625 60.691406 65.515625 C 57.550781 65.515625 54.699219 66.660156 52.421875 68.488281 C 51.523438 67.648438 50.15625 67.539062 49.171875 68.328125 C 48.09375 69.191406 47.925781 70.765625 48.789062 71.847656 L 49.167969 72.3125 C 48.066406 74.25 47.390625 76.457031 47.390625 78.835938 C 47.390625 86.175781 53.355469 92.152344 60.695312 92.152344 C 68.035156 92.152344 74.007812 86.175781 74.007812 78.835938 C 74.007812 76.609375 73.40625 74.542969 72.441406 72.699219 C 76.386719 68.777344 80.695312 65.226562 85.390625 62.125 Z M 65.816406 72.339844 C 63.996094 74.332031 62.242188 76.394531 60.601562 78.558594 L 55.59375 72.324219 C 57.007812 71.210938 58.761719 70.519531 60.695312 70.519531 C 62.628906 70.519531 64.394531 71.214844 65.816406 72.339844 Z M 68.996094 78.828125 C 68.996094 83.414062 65.273438 87.140625 60.691406 87.140625 C 56.113281 87.140625 52.390625 83.414062 52.390625 78.828125 C 52.390625 78.09375 52.515625 77.390625 52.699219 76.710938 L 58.742188 84.234375 C 59.21875 84.828125 59.933594 85.171875 60.695312 85.171875 C 60.722656 85.171875 60.75 85.171875 60.777344 85.171875 C 61.5625 85.144531 62.292969 84.753906 62.742188 84.113281 C 64.582031 81.503906 66.597656 79.058594 68.691406 76.691406 C 68.859375 77.378906 68.996094 78.089844 68.996094 78.828125 Z M 68.996094 78.828125 " fill-opacity="1" fill-rule="nonzero"/></svg>