<svg xmlns="http://www.w3.org/2000/svg" xmlns:xlink="http://www.w3.org/1999/xlink" width="300" zoomAndPan="magnify" viewBox="0 0 224.87999 225" height="300" preserveAspectRatio="xMidYMid meet" version="1.0"><defs><clipPath id="3e75eb6f6b"><path d="M 0 0.0585938 L 164 0.0585938 L 164 166 L 0 166 Z M 0 0.0585938 " clip-rule="nonzero"/></clipPath></defs><path fill="#000000" d="M 169.640625 69.070312 L 169.648438 69.070312 L 169.648438 69.03125 Z M 169.640625 69.070312 " fill-opacity="1" fill-rule="nonzero"/><path fill="#f2bb30" d="M 192.480469 165.230469 C 207.898438 165.230469 213.597656 154.476562 218.957031 138.355469 C 224.511719 121.753906 224.269531 105.78125 218.957031 84.515625 C 215.136719 69.199219 207.90625 57.640625 192.480469 57.640625 L 172.613281 57.640625 L 172.613281 81.15625 C 172.613281 99.394531 157.136719 114.765625 139.5 114.765625 L 86.546875 114.765625 C 72.0625 114.765625 60.070312 127.160156 60.070312 141.6875 L 60.070312 192.160156 C 60.070312 206.53125 72.5625 214.964844 86.546875 219.082031 C 103.296875 223.988281 119.417969 224.875 139.492188 219.082031 C 152.824219 215.214844 165.96875 207.421875 165.96875 192.160156 L 165.96875 171.976562 L 113.058594 171.976562 L 113.058594 165.242188 L 192.480469 165.242188 Z M 142.8125 185.414062 C 148.308594 185.414062 152.78125 189.929688 152.78125 195.484375 C 152.78125 201.089844 148.320312 205.597656 142.8125 205.597656 C 137.351562 205.597656 132.847656 201.035156 132.847656 195.484375 C 132.902344 189.875 137.371094 185.414062 142.8125 185.414062 Z M 142.8125 185.414062 " fill-opacity="1" fill-rule="nonzero"/><g clip-path="url(#3e75eb6f6b)"><path fill="#35668f" d="M 32.796875 165.242188 L 50.992188 165.242188 L 50.992188 141.039062 C 50.992188 123.539062 66.113281 108.113281 84.101562 108.113281 L 137.046875 108.113281 C 151.769531 108.113281 163.523438 95.972656 163.523438 81.191406 L 163.523438 30.683594 C 163.523438 16.3125 151.429688 5.539062 137.046875 3.125 C 119.296875 0.191406 100.011719 0.355469 84.101562 3.179688 L 84.113281 3.167969 C 61.699219 7.128906 57.644531 15.402344 57.644531 30.71875 L 57.644531 50.902344 L 110.644531 50.902344 L 110.644531 57.648438 L 37.757812 57.648438 C 22.339844 57.648438 8.847656 66.921875 4.644531 84.523438 C -0.210938 104.707031 -0.40625 117.292969 4.644531 138.367188 C 8.402344 154.035156 17.390625 165.242188 32.796875 165.242188 Z M 80.789062 37.417969 C 75.292969 37.417969 70.824219 32.902344 70.824219 27.351562 C 70.886719 21.742188 75.292969 17.234375 80.789062 17.234375 C 86.25 17.234375 90.757812 21.789062 90.757812 27.351562 C 90.757812 32.914062 86.296875 37.417969 80.789062 37.417969 Z M 80.789062 37.417969 " fill-opacity="1" fill-rule="nonzero"/></g></svg>