<svg xmlns="http://www.w3.org/2000/svg" xmlns:xlink="http://www.w3.org/1999/xlink" width="300" zoomAndPan="magnify" viewBox="0 0 224.87999 225" height="300" preserveAspectRatio="xMidYMid meet" version="1.0"><defs><clipPath id="41154a742e"><path d="M 95 5.683594 L 130 5.683594 L 130 43 L 95 43 Z M 95 5.683594 " clip-rule="nonzero"/></clipPath><clipPath id="29d6f10dac"><path d="M 87 187 L 138 187 L 138 219.316406 L 87 219.316406 Z M 87 187 " clip-rule="nonzero"/></clipPath><clipPath id="d145644e01"><path d="M 174 115 L 224.761719 115 L 224.761719 148 L 174 148 Z M 174 115 " clip-rule="nonzero"/></clipPath></defs><path fill="#000000" d="M 182.933594 66.28125 L 191.726562 66.28125 C 181.738281 49.214844 166.421875 35.632812 148.054688 27.875 L 148.054688 36.078125 C 162.289062 42.738281 174.363281 53.253906 182.933594 66.28125 Z M 182.933594 66.28125 " fill-opacity="1" fill-rule="nonzero"/><path fill="#000000" d="M 76.824219 197.128906 L 76.824219 188.925781 C 62.589844 182.265625 50.515625 171.75 41.945312 158.722656 L 33.152344 158.722656 C 43.140625 175.789062 58.457031 189.371094 76.824219 197.128906 Z M 76.824219 197.128906 " fill-opacity="1" fill-rule="nonzero"/><path fill="#000000" d="M 76.824219 36.078125 L 76.824219 27.875 C 58.457031 35.632812 43.140625 49.214844 33.152344 66.28125 L 41.945312 66.28125 C 50.515625 53.253906 62.589844 42.738281 76.824219 36.078125 Z M 76.824219 36.078125 " fill-opacity="1" fill-rule="nonzero"/><path fill="#000000" d="M 191.726562 158.726562 L 182.933594 158.726562 C 174.363281 171.75 162.289062 182.269531 148.054688 188.925781 L 148.054688 197.128906 C 166.421875 189.371094 181.738281 175.789062 191.726562 158.726562 Z M 191.726562 158.726562 " fill-opacity="1" fill-rule="nonzero"/><g clip-path="url(#41154a742e)"><path fill="#000000" d="M 111.019531 42.105469 L 113.859375 42.105469 C 122.304688 42.105469 129.179688 35.234375 129.179688 26.789062 L 129.179688 21.039062 C 129.179688 12.589844 122.304688 5.71875 113.859375 5.71875 L 111.019531 5.71875 C 102.574219 5.71875 95.703125 12.589844 95.703125 21.039062 L 95.703125 26.789062 C 95.703125 35.234375 102.574219 42.105469 111.019531 42.105469 Z M 103.179688 21.039062 C 103.179688 16.714844 106.699219 13.199219 111.019531 13.199219 L 113.859375 13.199219 C 118.183594 13.199219 121.699219 16.714844 121.699219 21.039062 L 121.699219 26.789062 C 121.699219 31.109375 118.183594 34.628906 113.859375 34.628906 L 111.019531 34.628906 C 106.699219 34.628906 103.179688 31.109375 103.179688 26.789062 Z M 103.179688 21.039062 " fill-opacity="1" fill-rule="nonzero"/></g><path fill="#000000" d="M 137.605469 66.28125 L 137.605469 62.257812 C 137.605469 51.898438 129.179688 43.472656 118.820312 43.472656 L 106.058594 43.472656 C 95.699219 43.472656 87.269531 51.898438 87.269531 62.257812 L 87.269531 74.980469 L 137.609375 74.980469 L 137.609375 66.28125 Z M 130.128906 67.503906 L 94.75 67.503906 L 94.75 62.257812 C 94.75 56.023438 99.824219 50.949219 106.058594 50.949219 L 118.820312 50.949219 C 125.054688 50.949219 130.128906 56.023438 130.128906 62.257812 Z M 130.128906 67.503906 " fill-opacity="1" fill-rule="nonzero"/><path fill="#000000" d="M 113.859375 150.023438 L 111.019531 150.023438 C 104.945312 150.023438 99.703125 153.585938 97.226562 158.722656 C 96.261719 160.730469 95.703125 162.96875 95.703125 165.339844 L 95.703125 171.089844 C 95.703125 179.539062 102.574219 186.410156 111.019531 186.410156 L 113.859375 186.410156 C 122.304688 186.410156 129.179688 179.539062 129.179688 171.089844 L 129.179688 165.339844 C 129.179688 162.96875 128.621094 160.730469 127.652344 158.722656 C 125.179688 153.585938 119.933594 150.023438 113.859375 150.023438 Z M 121.699219 171.089844 C 121.699219 175.414062 118.183594 178.929688 113.859375 178.929688 L 111.019531 178.929688 C 106.699219 178.929688 103.179688 175.414062 103.179688 171.089844 L 103.179688 165.339844 C 103.179688 161.019531 106.699219 157.5 111.019531 157.5 L 113.859375 157.5 C 118.183594 157.5 121.699219 161.019531 121.699219 165.339844 Z M 121.699219 171.089844 " fill-opacity="1" fill-rule="nonzero"/><g clip-path="url(#29d6f10dac)"><path fill="#000000" d="M 137.605469 206.5625 C 137.605469 196.203125 129.179688 187.777344 118.820312 187.777344 L 106.058594 187.777344 C 95.699219 187.777344 87.269531 196.203125 87.269531 206.5625 L 87.269531 219.285156 L 137.609375 219.285156 L 137.609375 206.5625 Z M 130.128906 211.804688 L 94.75 211.804688 L 94.75 206.5625 C 94.75 200.324219 99.824219 195.253906 106.058594 195.253906 L 118.820312 195.253906 C 125.054688 195.253906 130.128906 200.328125 130.128906 206.5625 Z M 130.128906 211.804688 " fill-opacity="1" fill-rule="nonzero"/></g><path fill="#000000" d="M 23.75 114.257812 L 26.585938 114.257812 C 35.03125 114.257812 41.90625 107.386719 41.90625 98.941406 L 41.90625 93.191406 C 41.90625 84.742188 35.035156 77.871094 26.585938 77.871094 L 23.75 77.871094 C 15.300781 77.871094 8.429688 84.742188 8.429688 93.191406 L 8.429688 98.941406 C 8.429688 107.386719 15.300781 114.257812 23.75 114.257812 Z M 15.90625 93.191406 C 15.90625 88.867188 19.425781 85.351562 23.75 85.351562 L 26.585938 85.351562 C 30.910156 85.351562 34.425781 88.867188 34.425781 93.191406 L 34.425781 98.941406 C 34.425781 103.261719 30.910156 106.777344 26.585938 106.777344 L 23.75 106.777344 C 19.425781 106.777344 15.90625 103.261719 15.90625 98.941406 Z M 15.90625 93.191406 " fill-opacity="1" fill-rule="nonzero"/><path fill="#000000" d="M 50.335938 134.410156 C 50.335938 124.050781 41.910156 115.625 31.550781 115.625 L 18.785156 115.625 C 8.425781 115.625 0 124.050781 0 134.410156 L 0 147.132812 L 50.335938 147.132812 Z M 42.855469 139.652344 L 7.480469 139.652344 L 7.480469 134.410156 C 7.480469 128.175781 12.550781 123.101562 18.785156 123.101562 L 31.550781 123.101562 C 37.785156 123.101562 42.855469 128.175781 42.855469 134.410156 Z M 42.855469 139.652344 " fill-opacity="1" fill-rule="nonzero"/><path fill="#000000" d="M 182.972656 93.191406 L 182.972656 98.941406 C 182.972656 107.386719 189.847656 114.257812 198.292969 114.257812 L 201.132812 114.257812 C 209.578125 114.257812 216.449219 107.386719 216.449219 98.941406 L 216.449219 93.191406 C 216.449219 84.742188 209.578125 77.871094 201.132812 77.871094 L 198.292969 77.871094 C 189.847656 77.871094 182.972656 84.742188 182.972656 93.191406 Z M 190.453125 93.191406 C 190.453125 88.867188 193.96875 85.351562 198.292969 85.351562 L 201.132812 85.351562 C 205.453125 85.351562 208.96875 88.867188 208.96875 93.191406 L 208.96875 98.941406 C 208.96875 103.261719 205.453125 106.777344 201.132812 106.777344 L 198.292969 106.777344 C 193.96875 106.777344 190.453125 103.261719 190.453125 98.941406 Z M 190.453125 93.191406 " fill-opacity="1" fill-rule="nonzero"/><g clip-path="url(#d145644e01)"><path fill="#000000" d="M 193.328125 115.625 C 182.972656 115.625 174.542969 124.050781 174.542969 134.410156 L 174.542969 147.132812 L 224.878906 147.132812 L 224.878906 134.410156 C 224.878906 124.050781 216.453125 115.625 206.09375 115.625 Z M 217.402344 134.410156 L 217.402344 139.652344 L 182.023438 139.652344 L 182.023438 134.410156 C 182.023438 128.175781 187.09375 123.101562 193.328125 123.101562 L 206.09375 123.101562 C 212.328125 123.101562 217.402344 128.175781 217.402344 134.410156 Z M 217.402344 134.410156 " fill-opacity="1" fill-rule="nonzero"/></g></svg>