<svg xmlns="http://www.w3.org/2000/svg" xmlns:xlink="http://www.w3.org/1999/xlink" width="300" zoomAndPan="magnify" viewBox="0 0 224.87999 225" height="300" preserveAspectRatio="xMidYMid meet" version="1.0"><defs><clipPath id="28688a8144"><path d="M 4.074219 8 L 220.710938 8 L 220.710938 224.9375 L 4.074219 224.9375 Z M 4.074219 8 " clip-rule="nonzero"/></clipPath></defs><path fill="#000000" d="M 122.828125 126.828125 C 101.695312 147.953125 67.308594 147.960938 46.175781 126.828125 C 25.046875 105.695312 25.046875 71.304688 46.175781 50.171875 C 56.742188 39.605469 70.621094 34.324219 84.503906 34.324219 C 98.382812 34.324219 112.261719 39.605469 122.828125 50.171875 C 143.957031 71.304688 143.957031 105.695312 122.828125 126.828125 Z M 126.824219 46.175781 C 103.484375 22.84375 65.507812 22.84375 42.179688 46.175781 C 18.847656 69.511719 18.847656 107.488281 42.179688 130.824219 C 53.84375 142.492188 69.175781 148.328125 84.5 148.328125 C 99.828125 148.328125 115.160156 142.492188 126.824219 130.824219 C 150.160156 107.488281 150.160156 69.511719 126.824219 46.175781 " fill-opacity="1" fill-rule="nonzero"/><g clip-path="url(#28688a8144)"><path fill="#000000" d="M 212.261719 213.21875 L 209.222656 216.261719 C 205.382812 220.109375 199.125 220.109375 195.28125 216.261719 L 152.679688 173.660156 C 148.839844 169.816406 148.839844 163.558594 152.679688 159.714844 L 155.722656 156.675781 C 157.640625 154.753906 160.167969 153.792969 162.691406 153.792969 C 165.210938 153.792969 167.734375 154.753906 169.65625 156.675781 L 212.261719 199.28125 C 214.125 201.140625 215.152344 203.621094 215.152344 206.25 C 215.152344 208.882812 214.125 211.355469 212.261719 213.21875 Z M 31.632812 141.367188 C 17.507812 127.246094 9.730469 108.472656 9.730469 88.5 C 9.730469 68.523438 17.507812 49.753906 31.632812 35.628906 C 46.210938 21.054688 65.355469 13.765625 84.503906 13.765625 C 103.648438 13.765625 122.796875 21.054688 137.371094 35.628906 C 166.523438 64.78125 166.523438 112.214844 137.371094 141.367188 C 108.214844 170.527344 60.785156 170.511719 31.632812 141.367188 Z M 216.257812 195.285156 L 173.65625 152.679688 C 167.765625 146.78125 158.28125 146.636719 152.214844 152.210938 L 143.332031 143.328125 C 172.707031 111.835938 172.058594 62.320312 141.371094 31.632812 C 110.019531 0.277344 58.988281 0.269531 27.632812 31.632812 C 12.445312 46.824219 4.078125 67.019531 4.078125 88.5 C 4.078125 109.980469 12.445312 130.175781 27.632812 145.367188 C 43.3125 161.046875 63.910156 168.882812 84.503906 168.882812 C 104.214844 168.882812 123.929688 161.695312 139.332031 147.328125 L 148.214844 156.210938 C 142.640625 162.289062 142.796875 171.769531 148.683594 177.652344 L 191.28125 220.261719 C 194.308594 223.28125 198.28125 224.792969 202.25 224.792969 C 206.222656 224.792969 210.199219 223.28125 213.21875 220.261719 L 216.257812 217.214844 C 219.1875 214.285156 220.804688 210.390625 220.804688 206.25 C 220.804688 202.109375 219.1875 198.210938 216.257812 195.285156 " fill-opacity="1" fill-rule="nonzero"/></g><path fill="#000000" d="M 89.183594 57.722656 C 83.078125 56.339844 76.824219 57.726562 72.019531 61.550781 C 67.222656 65.378906 64.46875 71.085938 64.46875 77.21875 C 64.46875 78.78125 65.738281 80.046875 67.300781 80.046875 C 68.859375 80.046875 70.125 78.78125 70.125 77.21875 C 70.125 72.816406 72.101562 68.722656 75.546875 65.972656 C 78.992188 63.21875 83.492188 62.222656 87.925781 63.238281 C 93.070312 64.40625 97.3125 68.648438 98.484375 73.796875 C 100.167969 81.152344 96.125 88.484375 89.085938 90.851562 C 84.652344 92.347656 81.675781 96.445312 81.675781 101.058594 L 81.675781 107.328125 C 81.675781 108.890625 82.9375 110.15625 84.5 110.15625 C 86.0625 110.15625 87.328125 108.890625 87.328125 107.328125 L 87.328125 101.058594 C 87.328125 98.878906 88.757812 96.929688 90.890625 96.210938 C 100.691406 92.914062 106.328125 82.738281 104 72.539062 C 102.324219 65.210938 96.507812 59.394531 89.183594 57.722656 " fill-opacity="1" fill-rule="nonzero"/><path fill="#000000" d="M 84.5 115.714844 C 82.9375 115.714844 81.675781 116.984375 81.675781 118.542969 L 81.675781 121.253906 C 81.675781 122.816406 82.9375 124.082031 84.5 124.082031 C 86.0625 124.082031 87.328125 122.816406 87.328125 121.253906 L 87.328125 118.542969 C 87.328125 116.984375 86.0625 115.714844 84.5 115.714844 " fill-opacity="1" fill-rule="nonzero"/></svg>