<svg xmlns="http://www.w3.org/2000/svg" xmlns:xlink="http://www.w3.org/1999/xlink" width="300" zoomAndPan="magnify" viewBox="0 0 224.87999 225" height="300" preserveAspectRatio="xMidYMid meet" version="1.0"><defs><clipPath id="bf683ee96c"><path d="M 7.0625 7.121094 L 217.699219 7.121094 L 217.699219 217.761719 L 7.0625 217.761719 Z M 7.0625 7.121094 " clip-rule="nonzero"/></clipPath></defs><g clip-path="url(#bf683ee96c)"><path fill="#ffffff" d="M 112.378906 7.121094 C 109.894531 7.121094 107.410156 7.210938 104.929688 7.386719 C 101.429688 7.636719 97.941406 8.058594 94.480469 8.65625 C 91.019531 9.253906 87.589844 10.023438 84.207031 10.960938 C 80.824219 11.898438 77.492188 13.007812 74.21875 14.28125 C 70.945312 15.550781 67.738281 16.988281 64.609375 18.582031 C 61.480469 20.171875 58.429688 21.921875 55.476562 23.820312 C 52.523438 25.714844 49.664062 27.761719 46.914062 29.941406 C 44.164062 32.125 41.523438 34.445312 39.003906 36.890625 C 36.484375 39.335938 34.089844 41.90625 31.828125 44.59375 C 29.566406 47.277344 27.441406 50.078125 25.457031 52.972656 C 23.476562 55.871094 21.636719 58.867188 19.953125 61.949219 C 18.269531 65.03125 16.742188 68.195312 15.375 71.429688 C 14.007812 74.664062 12.804688 77.964844 11.765625 81.316406 C 10.730469 84.671875 9.859375 88.078125 9.160156 91.519531 C 8.464844 94.960938 7.9375 98.433594 7.585938 101.925781 C 7.238281 105.421875 7.0625 108.929688 7.0625 112.441406 C 7.0625 114.925781 7.148438 117.410156 7.324219 119.890625 C 7.574219 123.394531 7.996094 126.882812 8.59375 130.34375 C 9.191406 133.800781 9.960938 137.230469 10.898438 140.613281 C 11.839844 143.996094 12.945312 147.332031 14.21875 150.605469 C 15.492188 153.878906 16.925781 157.085938 18.519531 160.214844 C 20.113281 163.34375 21.859375 166.390625 23.757812 169.34375 C 25.65625 172.300781 27.699219 175.15625 29.882812 177.910156 C 32.0625 180.660156 34.382812 183.296875 36.828125 185.816406 C 39.277344 188.335938 41.847656 190.730469 44.53125 192.992188 C 47.21875 195.253906 50.015625 197.382812 52.914062 199.363281 C 55.8125 201.347656 58.808594 203.183594 61.886719 204.867188 C 64.96875 206.550781 68.132812 208.078125 71.367188 209.445312 C 74.601562 210.8125 77.902344 212.019531 81.257812 213.054688 C 84.613281 214.09375 88.015625 214.960938 91.457031 215.660156 C 94.898438 216.359375 98.371094 216.882812 101.867188 217.234375 C 105.359375 217.585938 108.867188 217.761719 112.378906 217.761719 C 114.867188 217.761719 117.351562 217.671875 119.832031 217.496094 C 123.332031 217.246094 126.820312 216.824219 130.28125 216.226562 C 133.742188 215.632812 137.171875 214.859375 140.554688 213.921875 C 143.9375 212.984375 147.269531 211.875 150.542969 210.601562 C 153.816406 209.332031 157.023438 207.894531 160.152344 206.300781 C 163.28125 204.710938 166.332031 202.960938 169.285156 201.066406 C 172.238281 199.167969 175.097656 197.121094 177.847656 194.941406 C 180.597656 192.757812 183.238281 190.4375 185.757812 187.992188 C 188.277344 185.546875 190.671875 182.976562 192.933594 180.289062 C 195.195312 177.605469 197.320312 174.804688 199.304688 171.910156 C 201.285156 169.011719 203.125 166.015625 204.808594 162.933594 C 206.488281 159.851562 208.019531 156.6875 209.386719 153.453125 C 210.753906 150.21875 211.957031 146.917969 212.996094 143.566406 C 214.03125 140.210938 214.902344 136.804688 215.597656 133.363281 C 216.296875 129.921875 216.820312 126.449219 217.171875 122.957031 C 217.523438 119.460938 217.699219 115.953125 217.699219 112.441406 C 217.699219 109.957031 217.613281 107.46875 217.4375 104.992188 C 217.1875 101.488281 216.765625 98 216.167969 94.539062 C 215.570312 91.082031 214.800781 87.652344 213.863281 84.269531 C 212.921875 80.886719 211.8125 77.550781 210.542969 74.277344 C 209.269531 71.007812 207.835938 67.800781 206.242188 64.667969 C 204.648438 61.539062 202.902344 58.492188 201.003906 55.539062 C 199.105469 52.582031 197.0625 49.726562 194.878906 46.972656 C 192.695312 44.222656 190.378906 41.585938 187.929688 39.066406 C 185.484375 36.546875 182.914062 34.152344 180.230469 31.886719 C 177.542969 29.628906 174.746094 27.5 171.847656 25.519531 C 168.949219 23.535156 165.953125 21.699219 162.871094 20.015625 C 159.792969 18.332031 156.628906 16.804688 153.394531 15.4375 C 150.160156 14.070312 146.859375 12.863281 143.503906 11.824219 C 140.148438 10.789062 136.746094 9.917969 133.304688 9.222656 C 129.863281 8.523438 126.390625 8 122.894531 7.648438 C 119.402344 7.296875 115.890625 7.121094 112.378906 7.121094 Z M 112.378906 7.121094 " fill-opacity="1" fill-rule="nonzero"/><path fill="#ff0000" d="M 112.378906 7.121094 C 109.894531 7.121094 107.410156 7.210938 104.929688 7.386719 C 102.820312 7.578125 100.714844 7.832031 98.621094 8.152344 L 98.621094 91.464844 L 9.175781 91.464844 C 9.171875 91.480469 9.167969 91.5 9.160156 91.519531 C 8.464844 94.960938 7.9375 98.433594 7.589844 101.925781 C 7.238281 105.421875 7.0625 108.929688 7.0625 112.441406 C 7.0625 114.925781 7.148438 117.414062 7.324219 119.890625 C 7.574219 123.394531 7.996094 126.882812 8.59375 130.34375 C 8.886719 131.796875 9.210938 133.242188 9.566406 134.679688 L 98.621094 134.679688 L 98.621094 216.742188 C 99.699219 216.925781 100.78125 217.089844 101.867188 217.234375 C 105.359375 217.585938 108.867188 217.761719 112.378906 217.761719 C 114.867188 217.761719 117.351562 217.671875 119.832031 217.496094 C 121.871094 217.308594 123.910156 217.0625 125.9375 216.753906 L 125.9375 134.679688 L 215.261719 134.679688 C 215.378906 134.242188 215.492188 133.804688 215.597656 133.367188 C 216.296875 129.925781 216.824219 126.449219 217.171875 122.957031 C 217.523438 119.460938 217.699219 115.953125 217.699219 112.441406 C 217.699219 109.957031 217.613281 107.46875 217.4375 104.992188 C 217.1875 101.488281 216.765625 98 216.167969 94.542969 C 215.953125 93.511719 215.722656 92.488281 215.476562 91.464844 L 125.9375 91.464844 L 125.9375 8.109375 C 124.925781 7.941406 123.910156 7.789062 122.894531 7.648438 C 119.402344 7.296875 115.890625 7.121094 112.378906 7.121094 Z M 180.578125 32.214844 L 135.351562 76.574219 L 151.320312 76.574219 L 189.128906 40.429688 C 188.734375 39.972656 188.335938 39.515625 187.929688 39.066406 C 185.589844 36.664062 183.136719 34.378906 180.578125 32.214844 Z M 36 40.113281 C 34.566406 41.566406 33.175781 43.058594 31.828125 44.59375 C 30.519531 46.214844 29.257812 47.875 28.046875 49.570312 L 56.300781 76.574219 L 74.148438 76.574219 Z M 89.207031 149.570312 L 72.539062 149.570312 L 35.820312 184.667969 C 36.152344 185.054688 36.492188 185.4375 36.828125 185.816406 C 39.269531 188.332031 41.835938 190.71875 44.515625 192.976562 L 89.207031 149.566406 Z M 150.527344 149.570312 L 188.097656 185.480469 C 189.765625 183.804688 191.378906 182.074219 192.933594 180.289062 C 194.03125 178.917969 195.09375 177.519531 196.121094 176.09375 L 168.371094 149.570312 Z M 150.527344 149.570312 " fill-opacity="1" fill-rule="nonzero"/></g><path fill="#000080" d="M 135.300781 9.730469 L 135.300781 67.300781 L 175.984375 28.664062 C 174.632812 27.582031 173.253906 26.53125 171.847656 25.519531 C 168.949219 23.535156 165.953125 21.699219 162.871094 20.015625 C 159.792969 18.332031 156.628906 16.804688 153.394531 15.4375 C 150.160156 14.070312 146.859375 12.863281 143.503906 11.824219 C 140.800781 11.019531 138.0625 10.320312 135.300781 9.730469 Z M 89.144531 9.855469 C 87.488281 10.183594 85.84375 10.550781 84.207031 10.960938 C 80.824219 11.898438 77.492188 13.007812 74.21875 14.28125 C 70.945312 15.550781 67.738281 16.988281 64.609375 18.582031 C 61.480469 20.171875 58.429688 21.921875 55.476562 23.820312 C 53.105469 25.371094 50.800781 27.019531 48.5625 28.761719 L 89.144531 67.300781 Z M 199.371094 53.257812 L 174.964844 76.542969 L 211.292969 76.542969 C 211.050781 75.785156 210.800781 75.03125 210.542969 74.277344 C 209.269531 71.007812 207.835938 67.800781 206.242188 64.667969 C 204.648438 61.539062 202.902344 58.492188 201.003906 55.539062 C 200.46875 54.769531 199.925781 54.007812 199.371094 53.257812 Z M 25.132812 53.503906 C 23.273438 56.238281 21.546875 59.054688 19.953125 61.949219 C 18.269531 65.03125 16.742188 68.195312 15.375 71.429688 C 14.710938 73.117188 14.085938 74.820312 13.507812 76.542969 L 49.277344 76.542969 Z M 13.804688 149.363281 C 13.941406 149.777344 14.078125 150.191406 14.21875 150.605469 C 15.492188 153.878906 16.925781 157.085938 18.519531 160.214844 C 20.113281 163.34375 21.859375 166.390625 23.757812 169.34375 C 24.363281 170.21875 24.980469 171.082031 25.613281 171.9375 L 49.277344 149.363281 Z M 174.964844 149.363281 L 199.007812 172.296875 C 199.105469 172.167969 199.207031 172.039062 199.304688 171.910156 C 201.285156 169.011719 203.125 166.015625 204.808594 162.933594 C 206.488281 159.851562 208.019531 156.6875 209.386719 153.453125 C 209.910156 152.101562 210.410156 150.734375 210.878906 149.363281 Z M 89.144531 158.042969 L 48.871094 196.289062 C 50.191406 197.347656 51.539062 198.371094 52.914062 199.363281 C 55.8125 201.347656 58.808594 203.183594 61.886719 204.867188 C 64.96875 206.550781 68.132812 208.078125 71.367188 209.445312 C 74.601562 210.8125 77.902344 212.019531 81.257812 213.054688 C 83.859375 213.828125 86.488281 214.5 89.144531 215.070312 Z M 135.300781 158.042969 L 135.300781 215.101562 C 137.0625 214.753906 138.8125 214.359375 140.554688 213.921875 C 143.9375 212.984375 147.269531 211.875 150.542969 210.601562 C 153.816406 209.332031 157.023438 207.894531 160.152344 206.300781 C 163.28125 204.710938 166.332031 202.960938 169.285156 201.066406 C 171.492188 199.605469 173.648438 198.066406 175.742188 196.445312 Z M 135.300781 158.042969 " fill-opacity="1" fill-rule="evenodd"/></svg>