<svg xmlns="http://www.w3.org/2000/svg" xmlns:xlink="http://www.w3.org/1999/xlink" width="300" zoomAndPan="magnify" viewBox="0 0 224.87999 225" height="300" preserveAspectRatio="xMidYMid meet" version="1.0"><defs><clipPath id="65fb6bf7b0"><path d="M 0 0.0585938 L 224.761719 0.0585938 L 224.761719 224.9375 L 0 224.9375 Z M 0 0.0585938 " clip-rule="nonzero"/></clipPath></defs><g clip-path="url(#65fb6bf7b0)"><path fill="#000000" d="M 223.683594 79.277344 L 196.421875 50.75 C 195.527344 49.8125 194.148438 49.515625 192.941406 49.996094 C 191.738281 50.480469 190.949219 51.648438 190.949219 52.949219 L 190.949219 64.257812 C 177.003906 64.730469 163.710938 69.296875 152.328125 77.558594 C 142.230469 84.882812 134.433594 94.542969 129.449219 105.785156 L 129.449219 33.992188 L 140.824219 33.992188 C 142.121094 33.992188 143.289062 33.203125 143.773438 31.996094 C 144.257812 30.792969 143.957031 29.414062 143.019531 28.515625 L 114.613281 1.371094 C 113.386719 0.199219 111.449219 0.199219 110.222656 1.371094 L 81.816406 28.515625 C 80.875 29.414062 80.578125 30.792969 81.0625 31.996094 C 81.542969 33.203125 82.710938 33.992188 84.011719 33.992188 L 95.382812 33.992188 L 95.382812 105.785156 C 90.402344 94.542969 82.601562 84.882812 72.507812 77.558594 C 61.121094 69.296875 47.832031 64.730469 33.886719 64.257812 L 33.886719 52.945312 C 33.886719 51.648438 33.097656 50.480469 31.890625 49.996094 C 30.6875 49.515625 29.308594 49.8125 28.410156 50.75 L 1.152344 79.277344 C -0.0195312 80.503906 -0.0195312 82.4375 1.152344 83.667969 L 28.410156 112.191406 C 29.308594 113.128906 30.6875 113.429688 31.890625 112.945312 C 33.097656 112.460938 33.886719 111.292969 33.886719 109.996094 L 33.886719 98.382812 C 46.253906 99.230469 57.335938 106.410156 63.160156 117.40625 L 62.179688 118.390625 C 59.359375 121.207031 59.359375 125.796875 62.179688 128.617188 C 65.820312 132.257812 65.734375 136.902344 64.441406 140.03125 C 63.144531 143.160156 59.921875 146.5 54.769531 146.5 C 50.78125 146.5 47.539062 149.746094 47.539062 153.734375 L 47.539062 166.070312 C 47.539062 170.058594 50.785156 173.304688 54.769531 173.304688 C 59.921875 173.304688 63.144531 176.644531 64.441406 179.773438 C 65.734375 182.902344 65.820312 187.546875 62.179688 191.1875 C 59.359375 194.007812 59.359375 198.597656 62.179688 201.414062 L 70.902344 210.140625 C 73.722656 212.960938 78.3125 212.960938 81.128906 210.140625 C 84.78125 206.492188 89.421875 206.574219 92.546875 207.871094 C 95.675781 209.164062 99.015625 212.386719 99.015625 217.550781 C 99.015625 221.535156 102.261719 224.78125 106.246094 224.78125 L 118.585938 224.78125 C 122.574219 224.78125 125.816406 221.535156 125.816406 217.550781 C 125.816406 212.394531 129.160156 209.175781 132.289062 207.878906 C 135.417969 206.582031 140.058594 206.496094 143.703125 210.140625 C 145.070312 211.507812 146.886719 212.257812 148.816406 212.257812 C 150.75 212.257812 152.566406 211.507812 153.929688 210.140625 L 162.65625 201.414062 C 165.476562 198.597656 165.476562 194.007812 162.65625 191.1875 C 159.011719 187.542969 159.097656 182.902344 160.394531 179.773438 C 161.691406 176.644531 164.910156 173.304688 170.0625 173.304688 C 174.050781 173.304688 177.296875 170.058594 177.296875 166.070312 L 177.296875 153.734375 C 177.296875 149.746094 174.050781 146.5 170.0625 146.5 C 164.910156 146.5 161.691406 143.160156 160.394531 140.03125 C 159.097656 136.902344 159.011719 132.257812 162.65625 128.617188 C 165.476562 125.796875 165.476562 121.207031 162.65625 118.390625 L 161.671875 117.40625 C 167.5 106.410156 178.582031 99.230469 190.949219 98.382812 L 190.949219 109.996094 C 190.949219 111.292969 191.738281 112.460938 192.941406 112.945312 C 194.148438 113.429688 195.527344 113.128906 196.421875 112.191406 L 223.683594 83.667969 C 224.855469 82.4375 224.855469 80.503906 223.683594 79.277344 Z M 91.9375 27.636719 L 112.417969 8.066406 L 132.898438 27.636719 L 126.273438 27.636719 C 124.515625 27.636719 123.09375 29.058594 123.09375 30.816406 L 123.09375 96.609375 C 121.855469 95.621094 120.292969 95.023438 118.585938 95.023438 L 106.246094 95.023438 C 104.542969 95.023438 102.976562 95.621094 101.742188 96.609375 L 101.742188 30.816406 C 101.742188 29.058594 100.316406 27.636719 98.5625 27.636719 Z M 30.652344 91.949219 C 28.917969 91.980469 27.53125 93.394531 27.53125 95.128906 L 27.53125 102.070312 L 7.847656 81.472656 L 27.53125 60.871094 L 27.53125 67.398438 C 27.53125 68.246094 27.871094 69.058594 28.472656 69.65625 C 29.078125 70.253906 29.898438 70.582031 30.742188 70.574219 C 57.570312 70.292969 82.003906 87.335938 91.195312 112.375 C 88.175781 113.171875 84.28125 112.816406 81.128906 109.664062 C 78.3125 106.84375 73.722656 106.84375 70.902344 109.664062 L 67.832031 112.738281 C 60.144531 99.710938 46 91.675781 30.652344 91.949219 Z M 170.0625 152.859375 C 170.546875 152.859375 170.9375 153.25 170.9375 153.734375 L 170.9375 166.074219 C 170.9375 166.554688 170.546875 166.949219 170.0625 166.949219 C 163.132812 166.949219 157.179688 170.929688 154.523438 177.34375 C 151.867188 183.753906 153.261719 190.78125 158.160156 195.683594 C 158.503906 196.023438 158.503906 196.582031 158.160156 196.921875 L 149.433594 205.648438 C 149.222656 205.859375 148.984375 205.902344 148.816406 205.902344 C 148.652344 205.902344 148.410156 205.859375 148.199219 205.648438 C 143.296875 200.746094 136.269531 199.351562 129.859375 202.007812 C 123.445312 204.664062 119.460938 210.617188 119.460938 217.550781 C 119.460938 218.03125 119.070312 218.425781 118.589844 218.425781 L 106.25 218.425781 C 105.765625 218.425781 105.375 218.03125 105.375 217.550781 C 105.375 210.613281 101.390625 204.652344 94.980469 201.996094 C 92.835938 201.109375 90.617188 200.671875 88.433594 200.671875 C 84.101562 200.671875 79.898438 202.386719 76.636719 205.648438 C 76.296875 205.988281 75.742188 205.988281 75.398438 205.648438 L 66.675781 196.921875 C 66.332031 196.582031 66.332031 196.023438 66.675781 195.683594 C 71.574219 190.78125 72.96875 183.753906 70.3125 177.34375 C 67.65625 170.929688 61.703125 166.949219 54.769531 166.949219 C 54.289062 166.949219 53.894531 166.554688 53.894531 166.074219 L 53.894531 153.734375 C 53.894531 153.25 54.289062 152.859375 54.769531 152.859375 C 61.703125 152.859375 67.65625 148.875 70.3125 142.464844 C 72.96875 136.050781 71.574219 129.023438 66.675781 124.121094 C 66.332031 123.78125 66.332031 123.226562 66.675781 122.882812 L 75.398438 114.160156 C 75.742188 113.816406 76.296875 113.816406 76.636719 114.160156 C 81.539062 119.058594 88.566406 120.453125 94.976562 117.796875 C 101.390625 115.140625 105.375 109.1875 105.375 102.257812 C 105.375 101.773438 105.765625 101.382812 106.246094 101.382812 L 118.585938 101.382812 C 119.070312 101.382812 119.460938 101.773438 119.460938 102.257812 C 119.460938 109.1875 123.445312 115.140625 129.855469 117.796875 C 136.269531 120.453125 143.296875 119.058594 148.199219 114.160156 C 148.410156 113.945312 148.652344 113.902344 148.816406 113.902344 C 148.984375 113.902344 149.222656 113.949219 149.4375 114.160156 L 158.160156 122.882812 C 158.503906 123.226562 158.503906 123.78125 158.160156 124.121094 C 153.261719 129.023438 151.867188 136.050781 154.523438 142.464844 C 157.179688 148.875 163.132812 152.859375 170.0625 152.859375 Z M 197.304688 102.070312 L 197.304688 95.128906 C 197.304688 93.394531 195.914062 91.980469 194.183594 91.949219 C 193.925781 91.945312 193.671875 91.941406 193.414062 91.941406 C 178.359375 91.941406 164.558594 99.925781 157.003906 112.734375 L 153.929688 109.664062 C 152.566406 108.296875 150.75 107.546875 148.816406 107.546875 C 146.886719 107.546875 145.070312 108.296875 143.703125 109.664062 C 140.554688 112.816406 136.660156 113.175781 133.640625 112.375 C 142.753906 87.546875 166.863281 70.570312 193.410156 70.570312 C 193.636719 70.570312 193.863281 70.574219 194.089844 70.574219 C 194.953125 70.582031 195.757812 70.253906 196.359375 69.65625 C 196.964844 69.058594 197.304688 68.246094 197.304688 67.398438 L 197.304688 60.871094 L 216.988281 81.472656 Z M 112.417969 126.574219 C 94.039062 126.574219 79.085938 141.523438 79.085938 159.902344 C 79.085938 178.28125 94.039062 193.234375 112.417969 193.234375 C 130.796875 193.234375 145.746094 178.28125 145.746094 159.902344 C 145.746094 141.523438 130.796875 126.574219 112.417969 126.574219 Z M 112.417969 186.875 C 97.542969 186.875 85.445312 174.777344 85.445312 159.902344 C 85.445312 145.03125 97.542969 132.929688 112.417969 132.929688 C 127.289062 132.929688 139.390625 145.03125 139.390625 159.902344 C 139.390625 174.777344 127.289062 186.875 112.417969 186.875 Z M 112.417969 186.875 " fill-opacity="1" fill-rule="nonzero"/></g></svg>