<svg xmlns="http://www.w3.org/2000/svg" xmlns:xlink="http://www.w3.org/1999/xlink" width="300" zoomAndPan="magnify" viewBox="0 0 224.87999 225" height="300" preserveAspectRatio="xMidYMid meet" version="1.0"><defs><clipPath id="ed6618fbfe"><path d="M 108 217 L 116 217 L 116 217.761719 L 108 217.761719 Z M 108 217 " clip-rule="nonzero"/></clipPath><clipPath id="e5d2f8c369"><path d="M 7.0625 74 L 217.699219 74 L 217.699219 151 L 7.0625 151 Z M 7.0625 74 " clip-rule="nonzero"/></clipPath><clipPath id="5aebf9f46d"><path d="M 14 7.121094 L 211 7.121094 L 211 75 L 14 75 Z M 14 7.121094 " clip-rule="nonzero"/></clipPath><clipPath id="35a8ea330c"><path d="M 14 150 L 211 150 L 211 217.761719 L 14 217.761719 Z M 14 150 " clip-rule="nonzero"/></clipPath></defs><g clip-path="url(#ed6618fbfe)"><path fill="#ed1d24" d="M 112.355469 217.722656 C 113.550781 217.722656 114.738281 217.699219 115.925781 217.660156 L 108.785156 217.660156 C 109.972656 217.699219 111.160156 217.722656 112.355469 217.722656 " fill-opacity="1" fill-rule="nonzero"/></g><g clip-path="url(#e5d2f8c369)"><path fill="#ed1d24" d="M 14.089844 74.480469 C 9.542969 86.25 7.042969 99.039062 7.042969 112.417969 C 7.042969 125.765625 9.53125 138.535156 14.0625 150.289062 L 210.640625 150.289062 C 215.171875 138.535156 217.664062 125.765625 217.664062 112.417969 C 217.664062 99.039062 215.167969 86.25 210.621094 74.480469 L 14.089844 74.480469 " fill-opacity="1" fill-rule="nonzero"/></g><g clip-path="url(#5aebf9f46d)"><path fill="#100f0d" d="M 112.355469 7.101562 C 67.566406 7.101562 29.316406 35.0625 14.089844 74.480469 L 210.621094 74.480469 C 195.390625 35.0625 157.140625 7.101562 112.355469 7.101562 " fill-opacity="1" fill-rule="nonzero"/></g><g clip-path="url(#35a8ea330c)"><path fill="#f7ed08" d="M 108.785156 217.660156 L 115.925781 217.660156 C 159.1875 216.214844 195.835938 188.679688 210.640625 150.289062 L 14.0625 150.289062 C 28.871094 188.679688 65.519531 216.214844 108.785156 217.660156 " fill-opacity="1" fill-rule="nonzero"/></g></svg>