<svg xmlns="http://www.w3.org/2000/svg" xmlns:xlink="http://www.w3.org/1999/xlink" width="300" zoomAndPan="magnify" viewBox="0 0 224.87999 225" height="300" preserveAspectRatio="xMidYMid meet" version="1.0"><defs><clipPath id="af9eaafcea"><path d="M 14.054688 1 L 211.199219 1 L 211.199219 224 L 14.054688 224 Z M 14.054688 1 " clip-rule="nonzero"/></clipPath></defs><g clip-path="url(#af9eaafcea)"><path fill="#e44d26" d="M 32.140625 201.613281 L 14.230469 1.121094 L 211.023438 1.121094 L 193.09375 201.574219 L 112.507812 223.878906 Z M 32.140625 201.613281 " fill-opacity="1" fill-rule="nonzero"/></g><path fill="#f16529" d="M 112.628906 206.839844 L 177.75 188.824219 L 193.066406 17.511719 L 112.628906 17.511719 Z M 112.628906 206.839844 " fill-opacity="1" fill-rule="nonzero"/><path fill="#ebebeb" d="M 112.628906 91.875 L 80.023438 91.875 L 77.773438 66.695312 L 112.628906 66.695312 L 112.628906 42.109375 L 50.851562 42.109375 L 51.4375 48.699219 L 57.492188 116.464844 L 112.628906 116.464844 Z M 112.628906 155.734375 L 112.515625 155.761719 L 85.082031 148.363281 L 83.324219 128.753906 L 58.597656 128.753906 L 62.046875 167.363281 L 112.515625 181.339844 L 112.628906 181.3125 Z M 112.628906 155.734375 " fill-opacity="1" fill-rule="nonzero"/><path fill="#ffffff" d="M 112.542969 91.875 L 112.542969 116.464844 L 142.878906 116.464844 L 140.015625 148.355469 L 112.535156 155.753906 L 112.535156 181.332031 L 163.039062 167.363281 L 163.410156 163.207031 L 169.203125 98.464844 L 169.808594 91.867188 L 163.167969 91.867188 Z M 112.542969 42.109375 L 112.542969 66.695312 L 172.050781 66.695312 L 172.542969 61.164062 L 173.667969 48.699219 L 174.253906 42.097656 Z M 112.542969 42.109375 " fill-opacity="1" fill-rule="nonzero"/></svg>