<svg xmlns="http://www.w3.org/2000/svg" xmlns:xlink="http://www.w3.org/1999/xlink" width="300" zoomAndPan="magnify" viewBox="0 0 224.87999 225" height="300" preserveAspectRatio="xMidYMid meet" version="1.0"><defs><clipPath id="6cfcd86e03"><path d="M 6.523438 39.128906 L 218.660156 39.128906 L 218.660156 186 L 6.523438 186 Z M 6.523438 39.128906 " clip-rule="nonzero"/></clipPath></defs><path fill="#000000" d="M 114.671875 125.679688 C 113.339844 125.679688 112.027344 125.472656 110.71875 125.050781 L 50.15625 104.855469 C 49.058594 107.707031 48.507812 111.382812 48.507812 116.746094 C 52.460938 119.035156 56.3125 123.636719 56.3125 131.5625 C 56.3125 136.417969 53.882812 139.914062 51.796875 142.234375 C 60.78125 152.65625 85.503906 160.148438 114.679688 160.148438 C 151.441406 160.148438 181.230469 148.253906 181.230469 133.609375 C 181.230469 130.371094 181.230469 117.15625 181.230469 104.179688 L 118.605469 125.050781 C 117.316406 125.472656 116.003906 125.679688 114.671875 125.679688 Z M 114.671875 125.679688 " fill-opacity="1" fill-rule="nonzero"/><g clip-path="url(#6cfcd86e03)"><path fill="#000000" d="M 215.816406 73.296875 L 115.984375 40.023438 C 115.121094 39.742188 114.214844 39.742188 113.355469 40.023438 L 13.527344 73.296875 C 11.832031 73.863281 10.683594 75.449219 10.683594 77.238281 C 10.683594 79.027344 11.832031 80.617188 13.527344 81.179688 L 36.414062 88.808594 C 31.148438 94.914062 28.085938 103.523438 26.960938 117.53125 C 23.34375 119.234375 20.789062 122.871094 20.789062 127.144531 C 20.789062 131.496094 23.402344 135.195312 27.128906 136.867188 C 23.875 165.191406 6.914062 174.632812 6.914062 177.050781 C 6.914062 178.28125 20.050781 185.371094 23.167969 185.371094 C 27.996094 185.371094 39.574219 177.183594 39.574219 159.507812 C 39.574219 149.097656 38.632812 141.226562 37.644531 135.644531 C 40.316406 133.707031 42.171875 130.707031 42.171875 127.144531 C 42.171875 123.261719 40 120.015625 36.894531 118.144531 C 38.652344 95.03125 45.796875 91.164062 63.085938 83.992188 C 64.816406 83.3125 68.085938 81.988281 69.972656 81.207031 C 73.367188 79.808594 76.4375 78.5625 79.382812 77.378906 C 88.890625 73.605469 96.925781 70.566406 103.058594 68.3125 C 109.769531 65.917969 112.78125 65.042969 112.890625 65.011719 C 115.460938 64.144531 118.324219 65.535156 119.203125 68.15625 C 120.078125 70.765625 118.679688 73.59375 116.058594 74.476562 C 115.859375 74.542969 104.179688 77.878906 73.789062 90.4375 C 71.835938 91.246094 69.972656 91.976562 68.199219 92.675781 C 64.597656 94.097656 61.613281 95.238281 59.109375 96.386719 L 113.355469 114.460938 C 113.789062 114.59375 114.222656 114.667969 114.671875 114.667969 C 115.121094 114.667969 115.554688 114.59375 115.984375 114.453125 L 215.816406 81.179688 C 217.511719 80.617188 218.660156 79.027344 218.660156 77.238281 C 218.660156 75.449219 217.511719 73.863281 215.816406 73.296875 Z M 215.816406 73.296875 " fill-opacity="1" fill-rule="nonzero"/></g></svg>