<svg xmlns="http://www.w3.org/2000/svg" xmlns:xlink="http://www.w3.org/1999/xlink" width="300" zoomAndPan="magnify" viewBox="0 0 224.87999 225" height="300" preserveAspectRatio="xMidYMid meet" version="1.0"><defs><g/><clipPath id="5a743dfddb"><path d="M 5 5 L 219.9375 5 L 219.9375 219.996094 L 5 219.996094 Z M 5 5 " clip-rule="nonzero"/></clipPath><clipPath id="27419c24f8"><path d="M 219.476562 112.5 C 219.476562 114.25 219.433594 116.003906 219.347656 117.75 C 219.261719 119.5 219.132812 121.246094 218.960938 122.992188 C 218.789062 124.734375 218.574219 126.472656 218.316406 128.207031 C 218.058594 129.9375 217.761719 131.664062 217.417969 133.382812 C 217.078125 135.097656 216.691406 136.808594 216.265625 138.507812 C 215.839844 140.207031 215.375 141.894531 214.867188 143.570312 C 214.359375 145.246094 213.808594 146.910156 213.21875 148.558594 C 212.628906 150.207031 211.996094 151.84375 211.328125 153.460938 C 210.65625 155.078125 209.949219 156.679688 209.199219 158.261719 C 208.449219 159.847656 207.664062 161.410156 206.835938 162.957031 C 206.011719 164.5 205.148438 166.023438 204.246094 167.527344 C 203.347656 169.03125 202.410156 170.507812 201.4375 171.964844 C 200.464844 173.421875 199.453125 174.855469 198.410156 176.261719 C 197.367188 177.667969 196.289062 179.046875 195.179688 180.402344 C 194.066406 181.757812 192.925781 183.082031 191.746094 184.378906 C 190.570312 185.679688 189.363281 186.945312 188.125 188.183594 C 186.886719 189.425781 185.617188 190.632812 184.320312 191.808594 C 183.023438 192.984375 181.695312 194.128906 180.34375 195.238281 C 178.988281 196.351562 177.609375 197.429688 176.199219 198.472656 C 174.792969 199.515625 173.363281 200.523438 171.90625 201.496094 C 170.449219 202.46875 168.96875 203.40625 167.46875 204.308594 C 165.964844 205.207031 164.441406 206.070312 162.894531 206.898438 C 161.351562 207.722656 159.785156 208.507812 158.203125 209.257812 C 156.621094 210.007812 155.019531 210.71875 153.402344 211.386719 C 151.78125 212.058594 150.148438 212.6875 148.5 213.277344 C 146.851562 213.867188 145.1875 214.417969 143.511719 214.925781 C 141.835938 215.433594 140.148438 215.902344 138.449219 216.328125 C 136.75 216.753906 135.039062 217.136719 133.320312 217.476562 C 131.601562 217.820312 129.878906 218.121094 128.144531 218.375 C 126.414062 218.632812 124.675781 218.847656 122.929688 219.019531 C 121.1875 219.191406 119.441406 219.320312 117.691406 219.40625 C 115.941406 219.492188 114.191406 219.535156 112.441406 219.535156 C 110.6875 219.535156 108.9375 219.492188 107.1875 219.40625 C 105.4375 219.320312 103.691406 219.191406 101.949219 219.019531 C 100.207031 218.847656 98.46875 218.632812 96.734375 218.375 C 95 218.121094 93.277344 217.820312 91.558594 217.476562 C 89.839844 217.136719 88.132812 216.753906 86.433594 216.328125 C 84.734375 215.902344 83.046875 215.433594 81.371094 214.925781 C 79.691406 214.417969 78.03125 213.867188 76.382812 213.277344 C 74.730469 212.6875 73.097656 212.058594 71.480469 211.386719 C 69.859375 210.71875 68.261719 210.007812 66.675781 209.257812 C 65.09375 208.507812 63.527344 207.722656 61.984375 206.898438 C 60.4375 206.070312 58.914062 205.207031 57.414062 204.308594 C 55.910156 203.40625 54.429688 202.46875 52.972656 201.496094 C 51.519531 200.523438 50.085938 199.515625 48.679688 198.472656 C 47.273438 197.429688 45.890625 196.351562 44.539062 195.238281 C 43.183594 194.128906 41.859375 192.984375 40.558594 191.808594 C 39.261719 190.632812 37.992188 189.425781 36.753906 188.183594 C 35.515625 186.945312 34.308594 185.679688 33.132812 184.378906 C 31.957031 183.082031 30.8125 181.757812 29.699219 180.402344 C 28.589844 179.046875 27.511719 177.667969 26.46875 176.261719 C 25.425781 174.855469 24.417969 173.421875 23.445312 171.964844 C 22.46875 170.507812 21.535156 169.03125 20.632812 167.527344 C 19.730469 166.023438 18.871094 164.5 18.042969 162.957031 C 17.21875 161.410156 16.429688 159.847656 15.679688 158.261719 C 14.933594 156.679688 14.222656 155.078125 13.550781 153.460938 C 12.882812 151.84375 12.25 150.207031 11.660156 148.558594 C 11.070312 146.910156 10.523438 145.246094 10.015625 143.570312 C 9.503906 141.894531 9.039062 140.207031 8.613281 138.507812 C 8.1875 136.808594 7.804688 135.097656 7.460938 133.382812 C 7.121094 131.664062 6.820312 129.9375 6.5625 128.207031 C 6.304688 126.472656 6.09375 124.734375 5.921875 122.992188 C 5.75 121.246094 5.621094 119.5 5.535156 117.75 C 5.449219 116.003906 5.40625 114.25 5.40625 112.5 C 5.40625 110.75 5.449219 108.996094 5.535156 107.246094 C 5.621094 105.5 5.75 103.753906 5.921875 102.007812 C 6.09375 100.265625 6.304688 98.527344 6.5625 96.792969 C 6.820312 95.0625 7.121094 93.335938 7.460938 91.617188 C 7.804688 89.902344 8.1875 88.191406 8.613281 86.492188 C 9.039062 84.792969 9.503906 83.105469 10.015625 81.429688 C 10.523438 79.753906 11.070312 78.089844 11.660156 76.441406 C 12.25 74.792969 12.882812 73.15625 13.550781 71.539062 C 14.222656 69.921875 14.933594 68.320312 15.679688 66.738281 C 16.429688 65.152344 17.21875 63.589844 18.042969 62.042969 C 18.871094 60.5 19.730469 58.976562 20.632812 57.472656 C 21.535156 55.96875 22.46875 54.492188 23.445312 53.035156 C 24.417969 51.578125 25.425781 50.144531 26.46875 48.738281 C 27.511719 47.332031 28.589844 45.953125 29.699219 44.597656 C 30.8125 43.242188 31.957031 41.917969 33.132812 40.621094 C 34.308594 39.320312 35.515625 38.054688 36.753906 36.816406 C 37.992188 35.574219 39.261719 34.367188 40.558594 33.191406 C 41.859375 32.015625 43.183594 30.871094 44.539062 29.761719 C 45.890625 28.648438 47.273438 27.570312 48.679688 26.527344 C 50.085938 25.484375 51.519531 24.476562 52.972656 23.503906 C 54.429688 22.53125 55.910156 21.59375 57.414062 20.691406 C 58.914062 19.792969 60.4375 18.929688 61.984375 18.101562 C 63.527344 17.277344 65.09375 16.492188 66.675781 15.742188 C 68.261719 14.992188 69.859375 14.28125 71.480469 13.613281 C 73.097656 12.941406 74.730469 12.3125 76.382812 11.722656 C 78.03125 11.132812 79.691406 10.582031 81.371094 10.074219 C 83.046875 9.566406 84.734375 9.097656 86.433594 8.671875 C 88.132812 8.246094 89.839844 7.863281 91.558594 7.523438 C 93.277344 7.179688 95 6.878906 96.734375 6.625 C 98.46875 6.367188 100.207031 6.152344 101.949219 5.980469 C 103.691406 5.808594 105.4375 5.679688 107.1875 5.59375 C 108.9375 5.507812 110.6875 5.464844 112.441406 5.464844 C 114.191406 5.464844 115.941406 5.507812 117.691406 5.59375 C 119.441406 5.679688 121.1875 5.808594 122.929688 5.980469 C 124.675781 6.152344 126.414062 6.367188 128.144531 6.625 C 129.878906 6.878906 131.601562 7.179688 133.320312 7.523438 C 135.039062 7.863281 136.75 8.246094 138.449219 8.671875 C 140.148438 9.097656 141.835938 9.566406 143.511719 10.074219 C 145.1875 10.582031 146.851562 11.132812 148.5 11.722656 C 150.148438 12.3125 151.78125 12.941406 153.402344 13.613281 C 155.019531 14.28125 156.621094 14.992188 158.203125 15.742188 C 159.785156 16.492188 161.351562 17.277344 162.894531 18.101562 C 164.441406 18.929688 165.964844 19.792969 167.46875 20.691406 C 168.96875 21.59375 170.449219 22.53125 171.90625 23.503906 C 173.363281 24.476562 174.792969 25.484375 176.199219 26.527344 C 177.609375 27.570312 178.988281 28.648438 180.34375 29.761719 C 181.695312 30.871094 183.023438 32.015625 184.320312 33.191406 C 185.617188 34.367188 186.886719 35.574219 188.125 36.816406 C 189.363281 38.054688 190.570312 39.320312 191.746094 40.621094 C 192.925781 41.917969 194.066406 43.242188 195.179688 44.597656 C 196.289062 45.953125 197.367188 47.332031 198.410156 48.738281 C 199.453125 50.144531 200.464844 51.578125 201.4375 53.035156 C 202.410156 54.492188 203.347656 55.96875 204.246094 57.472656 C 205.148438 58.976562 206.011719 60.5 206.835938 62.042969 C 207.664062 63.589844 208.449219 65.152344 209.199219 66.738281 C 209.949219 68.320312 210.65625 69.921875 211.328125 71.539062 C 211.996094 73.15625 212.628906 74.792969 213.21875 76.441406 C 213.808594 78.089844 214.359375 79.753906 214.867188 81.429688 C 215.375 83.105469 215.839844 84.792969 216.265625 86.492188 C 216.691406 88.191406 217.078125 89.902344 217.417969 91.617188 C 217.761719 93.335938 218.058594 95.0625 218.316406 96.792969 C 218.574219 98.527344 218.789062 100.265625 218.960938 102.007812 C 219.132812 103.753906 219.261719 105.5 219.347656 107.246094 C 219.433594 108.996094 219.476562 110.75 219.476562 112.5 Z M 219.476562 112.5 " clip-rule="nonzero"/></clipPath><linearGradient x1="48.84212" gradientTransform="matrix(0.430551, 0, 0, 0.430551, 4.802125, 4.862132)" y1="-32.394388" x2="451.157637" gradientUnits="userSpaceOnUse" y2="532.394589" id="ca44704b8d"><stop stop-opacity="1" stop-color="rgb(39.599609%, 28.599548%, 83.499146%)" offset="0"/><stop stop-opacity="1" stop-color="rgb(39.599609%, 28.599548%, 83.499146%)" offset="0.03125"/><stop stop-opacity="1" stop-color="rgb(39.599609%, 28.599548%, 83.499146%)" offset="0.046875"/><stop stop-opacity="1" stop-color="rgb(39.657593%, 28.594971%, 83.474731%)" offset="0.0546875"/><stop stop-opacity="1" stop-color="rgb(39.935303%, 28.572083%, 83.360291%)" offset="0.0585937"/><stop stop-opacity="1" stop-color="rgb(40.153503%, 28.555298%, 83.270264%)" offset="0.0625"/><stop stop-opacity="1" stop-color="rgb(40.370178%, 28.538513%, 83.180237%)" offset="0.0664062"/><stop stop-opacity="1" stop-color="rgb(40.588379%, 28.521729%, 83.09021%)" offset="0.0703125"/><stop stop-opacity="1" stop-color="rgb(40.80658%, 28.503418%, 83.000183%)" offset="0.0742187"/><stop stop-opacity="1" stop-color="rgb(41.02478%, 28.486633%, 82.910156%)" offset="0.078125"/><stop stop-opacity="1" stop-color="rgb(41.242981%, 28.468323%, 82.820129%)" offset="0.0820312"/><stop stop-opacity="1" stop-color="rgb(41.461182%, 28.451538%, 82.730103%)" offset="0.0859375"/><stop stop-opacity="1" stop-color="rgb(41.677856%, 28.434753%, 82.640076%)" offset="0.0898437"/><stop stop-opacity="1" stop-color="rgb(41.896057%, 28.417969%, 82.550049%)" offset="0.09375"/><stop stop-opacity="1" stop-color="rgb(42.114258%, 28.399658%, 82.460022%)" offset="0.0976562"/><stop stop-opacity="1" stop-color="rgb(42.332458%, 28.382874%, 82.369995%)" offset="0.101562"/><stop stop-opacity="1" stop-color="rgb(42.550659%, 28.366089%, 82.279968%)" offset="0.105469"/><stop stop-opacity="1" stop-color="rgb(42.76886%, 28.349304%, 82.189941%)" offset="0.109375"/><stop stop-opacity="1" stop-color="rgb(42.985535%, 28.330994%, 82.099915%)" offset="0.113281"/><stop stop-opacity="1" stop-color="rgb(43.203735%, 28.314209%, 82.009888%)" offset="0.117187"/><stop stop-opacity="1" stop-color="rgb(43.421936%, 28.297424%, 81.919861%)" offset="0.121094"/><stop stop-opacity="1" stop-color="rgb(43.640137%, 28.28064%, 81.829834%)" offset="0.125"/><stop stop-opacity="1" stop-color="rgb(43.858337%, 28.262329%, 81.739807%)" offset="0.128906"/><stop stop-opacity="1" stop-color="rgb(44.076538%, 28.245544%, 81.64978%)" offset="0.132812"/><stop stop-opacity="1" stop-color="rgb(44.294739%, 28.22876%, 81.559753%)" offset="0.136719"/><stop stop-opacity="1" stop-color="rgb(44.512939%, 28.211975%, 81.469727%)" offset="0.140625"/><stop stop-opacity="1" stop-color="rgb(44.729614%, 28.193665%, 81.3797%)" offset="0.144531"/><stop stop-opacity="1" stop-color="rgb(44.947815%, 28.17688%, 81.289673%)" offset="0.148437"/><stop stop-opacity="1" stop-color="rgb(45.166016%, 28.158569%, 81.199646%)" offset="0.152344"/><stop stop-opacity="1" stop-color="rgb(45.384216%, 28.141785%, 81.109619%)" offset="0.15625"/><stop stop-opacity="1" stop-color="rgb(45.602417%, 28.125%, 81.019592%)" offset="0.160156"/><stop stop-opacity="1" stop-color="rgb(45.820618%, 28.108215%, 80.931091%)" offset="0.164062"/><stop stop-opacity="1" stop-color="rgb(46.037292%, 28.089905%, 80.841064%)" offset="0.167969"/><stop stop-opacity="1" stop-color="rgb(46.255493%, 28.07312%, 80.751038%)" offset="0.171875"/><stop stop-opacity="1" stop-color="rgb(46.473694%, 28.056335%, 80.661011%)" offset="0.175781"/><stop stop-opacity="1" stop-color="rgb(46.691895%, 28.039551%, 80.570984%)" offset="0.179688"/><stop stop-opacity="1" stop-color="rgb(46.910095%, 28.02124%, 80.480957%)" offset="0.183594"/><stop stop-opacity="1" stop-color="rgb(47.128296%, 28.004456%, 80.39093%)" offset="0.1875"/><stop stop-opacity="1" stop-color="rgb(47.344971%, 27.987671%, 80.300903%)" offset="0.191406"/><stop stop-opacity="1" stop-color="rgb(47.563171%, 27.970886%, 80.210876%)" offset="0.195312"/><stop stop-opacity="1" stop-color="rgb(47.781372%, 27.952576%, 80.12085%)" offset="0.199219"/><stop stop-opacity="1" stop-color="rgb(47.999573%, 27.935791%, 80.030823%)" offset="0.203125"/><stop stop-opacity="1" stop-color="rgb(48.217773%, 27.919006%, 79.940796%)" offset="0.207031"/><stop stop-opacity="1" stop-color="rgb(48.435974%, 27.902222%, 79.850769%)" offset="0.210938"/><stop stop-opacity="1" stop-color="rgb(48.652649%, 27.883911%, 79.760742%)" offset="0.214844"/><stop stop-opacity="1" stop-color="rgb(48.87085%, 27.867126%, 79.670715%)" offset="0.21875"/><stop stop-opacity="1" stop-color="rgb(49.08905%, 27.850342%, 79.580688%)" offset="0.222656"/><stop stop-opacity="1" stop-color="rgb(49.307251%, 27.833557%, 79.490662%)" offset="0.226562"/><stop stop-opacity="1" stop-color="rgb(49.525452%, 27.815247%, 79.400635%)" offset="0.230469"/><stop stop-opacity="1" stop-color="rgb(49.743652%, 27.798462%, 79.310608%)" offset="0.234375"/><stop stop-opacity="1" stop-color="rgb(49.960327%, 27.780151%, 79.220581%)" offset="0.238281"/><stop stop-opacity="1" stop-color="rgb(50.178528%, 27.763367%, 79.130554%)" offset="0.242188"/><stop stop-opacity="1" stop-color="rgb(50.396729%, 27.746582%, 79.040527%)" offset="0.246094"/><stop stop-opacity="1" stop-color="rgb(50.614929%, 27.729797%, 78.9505%)" offset="0.25"/><stop stop-opacity="1" stop-color="rgb(50.83313%, 27.711487%, 78.860474%)" offset="0.253906"/><stop stop-opacity="1" stop-color="rgb(51.051331%, 27.694702%, 78.770447%)" offset="0.257812"/><stop stop-opacity="1" stop-color="rgb(51.269531%, 27.677917%, 78.68042%)" offset="0.261719"/><stop stop-opacity="1" stop-color="rgb(51.487732%, 27.661133%, 78.590393%)" offset="0.265625"/><stop stop-opacity="1" stop-color="rgb(51.704407%, 27.642822%, 78.500366%)" offset="0.269531"/><stop stop-opacity="1" stop-color="rgb(51.922607%, 27.626038%, 78.410339%)" offset="0.273438"/><stop stop-opacity="1" stop-color="rgb(52.140808%, 27.609253%, 78.320312%)" offset="0.277344"/><stop stop-opacity="1" stop-color="rgb(52.359009%, 27.592468%, 78.230286%)" offset="0.28125"/><stop stop-opacity="1" stop-color="rgb(52.577209%, 27.574158%, 78.140259%)" offset="0.285156"/><stop stop-opacity="1" stop-color="rgb(52.79541%, 27.557373%, 78.050232%)" offset="0.289062"/><stop stop-opacity="1" stop-color="rgb(53.012085%, 27.540588%, 77.960205%)" offset="0.292969"/><stop stop-opacity="1" stop-color="rgb(53.230286%, 27.523804%, 77.870178%)" offset="0.296875"/><stop stop-opacity="1" stop-color="rgb(53.448486%, 27.505493%, 77.780151%)" offset="0.300781"/><stop stop-opacity="1" stop-color="rgb(53.666687%, 27.488708%, 77.690125%)" offset="0.304688"/><stop stop-opacity="1" stop-color="rgb(53.884888%, 27.470398%, 77.600098%)" offset="0.308594"/><stop stop-opacity="1" stop-color="rgb(54.103088%, 27.453613%, 77.510071%)" offset="0.3125"/><stop stop-opacity="1" stop-color="rgb(54.319763%, 27.436829%, 77.420044%)" offset="0.316406"/><stop stop-opacity="1" stop-color="rgb(54.537964%, 27.420044%, 77.330017%)" offset="0.320312"/><stop stop-opacity="1" stop-color="rgb(54.756165%, 27.401733%, 77.23999%)" offset="0.324219"/><stop stop-opacity="1" stop-color="rgb(54.974365%, 27.384949%, 77.149963%)" offset="0.328125"/><stop stop-opacity="1" stop-color="rgb(55.192566%, 27.368164%, 77.059937%)" offset="0.332031"/><stop stop-opacity="1" stop-color="rgb(55.410767%, 27.351379%, 76.96991%)" offset="0.335937"/><stop stop-opacity="1" stop-color="rgb(55.627441%, 27.333069%, 76.879883%)" offset="0.339844"/><stop stop-opacity="1" stop-color="rgb(55.845642%, 27.316284%, 76.789856%)" offset="0.34375"/><stop stop-opacity="1" stop-color="rgb(56.063843%, 27.2995%, 76.699829%)" offset="0.347656"/><stop stop-opacity="1" stop-color="rgb(56.282043%, 27.282715%, 76.609802%)" offset="0.351562"/><stop stop-opacity="1" stop-color="rgb(56.500244%, 27.264404%, 76.519775%)" offset="0.355469"/><stop stop-opacity="1" stop-color="rgb(56.718445%, 27.24762%, 76.429749%)" offset="0.359375"/><stop stop-opacity="1" stop-color="rgb(56.936646%, 27.230835%, 76.339722%)" offset="0.363281"/><stop stop-opacity="1" stop-color="rgb(57.154846%, 27.21405%, 76.249695%)" offset="0.367187"/><stop stop-opacity="1" stop-color="rgb(57.371521%, 27.19574%, 76.159668%)" offset="0.371094"/><stop stop-opacity="1" stop-color="rgb(57.589722%, 27.178955%, 76.069641%)" offset="0.375"/><stop stop-opacity="1" stop-color="rgb(57.807922%, 27.160645%, 75.979614%)" offset="0.378906"/><stop stop-opacity="1" stop-color="rgb(58.026123%, 27.14386%, 75.889587%)" offset="0.382812"/><stop stop-opacity="1" stop-color="rgb(58.244324%, 27.127075%, 75.799561%)" offset="0.386719"/><stop stop-opacity="1" stop-color="rgb(58.462524%, 27.110291%, 75.709534%)" offset="0.390625"/><stop stop-opacity="1" stop-color="rgb(58.679199%, 27.09198%, 75.619507%)" offset="0.394531"/><stop stop-opacity="1" stop-color="rgb(58.8974%, 27.075195%, 75.52948%)" offset="0.398437"/><stop stop-opacity="1" stop-color="rgb(59.115601%, 27.058411%, 75.439453%)" offset="0.402344"/><stop stop-opacity="1" stop-color="rgb(59.333801%, 27.041626%, 75.349426%)" offset="0.40625"/><stop stop-opacity="1" stop-color="rgb(59.552002%, 27.023315%, 75.259399%)" offset="0.410156"/><stop stop-opacity="1" stop-color="rgb(59.770203%, 27.006531%, 75.169373%)" offset="0.414062"/><stop stop-opacity="1" stop-color="rgb(59.986877%, 26.989746%, 75.079346%)" offset="0.417969"/><stop stop-opacity="1" stop-color="rgb(60.205078%, 26.972961%, 74.989319%)" offset="0.421875"/><stop stop-opacity="1" stop-color="rgb(60.423279%, 26.954651%, 74.899292%)" offset="0.425781"/><stop stop-opacity="1" stop-color="rgb(60.641479%, 26.937866%, 74.809265%)" offset="0.429687"/><stop stop-opacity="1" stop-color="rgb(60.85968%, 26.921082%, 74.719238%)" offset="0.433594"/><stop stop-opacity="1" stop-color="rgb(61.077881%, 26.904297%, 74.629211%)" offset="0.4375"/><stop stop-opacity="1" stop-color="rgb(61.294556%, 26.885986%, 74.539185%)" offset="0.441406"/><stop stop-opacity="1" stop-color="rgb(61.512756%, 26.869202%, 74.449158%)" offset="0.445312"/><stop stop-opacity="1" stop-color="rgb(61.730957%, 26.850891%, 74.359131%)" offset="0.449219"/><stop stop-opacity="1" stop-color="rgb(61.949158%, 26.834106%, 74.269104%)" offset="0.453125"/><stop stop-opacity="1" stop-color="rgb(62.167358%, 26.817322%, 74.179077%)" offset="0.457031"/><stop stop-opacity="1" stop-color="rgb(62.385559%, 26.800537%, 74.08905%)" offset="0.460937"/><stop stop-opacity="1" stop-color="rgb(62.60376%, 26.782227%, 73.999023%)" offset="0.464844"/><stop stop-opacity="1" stop-color="rgb(62.82196%, 26.765442%, 73.908997%)" offset="0.46875"/><stop stop-opacity="1" stop-color="rgb(63.038635%, 26.748657%, 73.81897%)" offset="0.472656"/><stop stop-opacity="1" stop-color="rgb(63.256836%, 26.731873%, 73.728943%)" offset="0.476562"/><stop stop-opacity="1" stop-color="rgb(63.475037%, 26.713562%, 73.638916%)" offset="0.480469"/><stop stop-opacity="1" stop-color="rgb(63.693237%, 26.696777%, 73.548889%)" offset="0.484375"/><stop stop-opacity="1" stop-color="rgb(63.911438%, 26.679993%, 73.458862%)" offset="0.488281"/><stop stop-opacity="1" stop-color="rgb(64.129639%, 26.663208%, 73.368835%)" offset="0.492187"/><stop stop-opacity="1" stop-color="rgb(64.346313%, 26.644897%, 73.278809%)" offset="0.496094"/><stop stop-opacity="1" stop-color="rgb(64.564514%, 26.628113%, 73.188782%)" offset="0.5"/><stop stop-opacity="1" stop-color="rgb(64.782715%, 26.611328%, 73.098755%)" offset="0.503906"/><stop stop-opacity="1" stop-color="rgb(65.000916%, 26.594543%, 73.008728%)" offset="0.507812"/><stop stop-opacity="1" stop-color="rgb(65.219116%, 26.576233%, 72.918701%)" offset="0.511719"/><stop stop-opacity="1" stop-color="rgb(65.437317%, 26.559448%, 72.8302%)" offset="0.515625"/><stop stop-opacity="1" stop-color="rgb(65.653992%, 26.541138%, 72.740173%)" offset="0.519531"/><stop stop-opacity="1" stop-color="rgb(65.872192%, 26.524353%, 72.650146%)" offset="0.523437"/><stop stop-opacity="1" stop-color="rgb(66.090393%, 26.507568%, 72.56012%)" offset="0.527344"/><stop stop-opacity="1" stop-color="rgb(66.308594%, 26.490784%, 72.470093%)" offset="0.53125"/><stop stop-opacity="1" stop-color="rgb(66.526794%, 26.472473%, 72.380066%)" offset="0.535156"/><stop stop-opacity="1" stop-color="rgb(66.744995%, 26.455688%, 72.290039%)" offset="0.539062"/><stop stop-opacity="1" stop-color="rgb(66.96167%, 26.438904%, 72.200012%)" offset="0.542969"/><stop stop-opacity="1" stop-color="rgb(67.179871%, 26.422119%, 72.109985%)" offset="0.546875"/><stop stop-opacity="1" stop-color="rgb(67.398071%, 26.403809%, 72.019958%)" offset="0.550781"/><stop stop-opacity="1" stop-color="rgb(67.616272%, 26.387024%, 71.929932%)" offset="0.554687"/><stop stop-opacity="1" stop-color="rgb(67.834473%, 26.370239%, 71.839905%)" offset="0.558594"/><stop stop-opacity="1" stop-color="rgb(68.052673%, 26.353455%, 71.749878%)" offset="0.5625"/><stop stop-opacity="1" stop-color="rgb(68.270874%, 26.335144%, 71.659851%)" offset="0.566406"/><stop stop-opacity="1" stop-color="rgb(68.489075%, 26.318359%, 71.569824%)" offset="0.570312"/><stop stop-opacity="1" stop-color="rgb(68.70575%, 26.301575%, 71.479797%)" offset="0.574219"/><stop stop-opacity="1" stop-color="rgb(68.92395%, 26.28479%, 71.389771%)" offset="0.578125"/><stop stop-opacity="1" stop-color="rgb(69.142151%, 26.266479%, 71.299744%)" offset="0.582031"/><stop stop-opacity="1" stop-color="rgb(69.360352%, 26.249695%, 71.209717%)" offset="0.585937"/><stop stop-opacity="1" stop-color="rgb(69.578552%, 26.231384%, 71.11969%)" offset="0.589844"/><stop stop-opacity="1" stop-color="rgb(69.796753%, 26.2146%, 71.029663%)" offset="0.59375"/><stop stop-opacity="1" stop-color="rgb(70.013428%, 26.197815%, 70.939636%)" offset="0.597656"/><stop stop-opacity="1" stop-color="rgb(70.231628%, 26.18103%, 70.849609%)" offset="0.601562"/><stop stop-opacity="1" stop-color="rgb(70.449829%, 26.16272%, 70.759583%)" offset="0.605469"/><stop stop-opacity="1" stop-color="rgb(70.66803%, 26.145935%, 70.669556%)" offset="0.609375"/><stop stop-opacity="1" stop-color="rgb(70.88623%, 26.12915%, 70.579529%)" offset="0.613281"/><stop stop-opacity="1" stop-color="rgb(71.104431%, 26.112366%, 70.489502%)" offset="0.617187"/><stop stop-opacity="1" stop-color="rgb(71.321106%, 26.094055%, 70.399475%)" offset="0.621094"/><stop stop-opacity="1" stop-color="rgb(71.539307%, 26.077271%, 70.309448%)" offset="0.625"/><stop stop-opacity="1" stop-color="rgb(71.757507%, 26.060486%, 70.219421%)" offset="0.628906"/><stop stop-opacity="1" stop-color="rgb(71.975708%, 26.043701%, 70.129395%)" offset="0.632812"/><stop stop-opacity="1" stop-color="rgb(72.193909%, 26.025391%, 70.039368%)" offset="0.636719"/><stop stop-opacity="1" stop-color="rgb(72.412109%, 26.008606%, 69.949341%)" offset="0.640625"/><stop stop-opacity="1" stop-color="rgb(72.628784%, 25.991821%, 69.859314%)" offset="0.644531"/><stop stop-opacity="1" stop-color="rgb(72.846985%, 25.975037%, 69.769287%)" offset="0.648438"/><stop stop-opacity="1" stop-color="rgb(73.065186%, 25.956726%, 69.67926%)" offset="0.652344"/><stop stop-opacity="1" stop-color="rgb(73.283386%, 25.939941%, 69.589233%)" offset="0.65625"/><stop stop-opacity="1" stop-color="rgb(73.501587%, 25.921631%, 69.499207%)" offset="0.660156"/><stop stop-opacity="1" stop-color="rgb(73.719788%, 25.904846%, 69.40918%)" offset="0.664062"/><stop stop-opacity="1" stop-color="rgb(73.936462%, 25.888062%, 69.319153%)" offset="0.667969"/><stop stop-opacity="1" stop-color="rgb(74.154663%, 25.871277%, 69.229126%)" offset="0.671875"/><stop stop-opacity="1" stop-color="rgb(74.372864%, 25.852966%, 69.139099%)" offset="0.675781"/><stop stop-opacity="1" stop-color="rgb(74.591064%, 25.836182%, 69.049072%)" offset="0.679688"/><stop stop-opacity="1" stop-color="rgb(74.809265%, 25.819397%, 68.959045%)" offset="0.683594"/><stop stop-opacity="1" stop-color="rgb(75.027466%, 25.802612%, 68.869019%)" offset="0.6875"/><stop stop-opacity="1" stop-color="rgb(75.245667%, 25.784302%, 68.778992%)" offset="0.691406"/><stop stop-opacity="1" stop-color="rgb(75.463867%, 25.767517%, 68.688965%)" offset="0.695312"/><stop stop-opacity="1" stop-color="rgb(75.680542%, 25.750732%, 68.598938%)" offset="0.699219"/><stop stop-opacity="1" stop-color="rgb(75.898743%, 25.733948%, 68.508911%)" offset="0.703125"/><stop stop-opacity="1" stop-color="rgb(76.116943%, 25.715637%, 68.418884%)" offset="0.707031"/><stop stop-opacity="1" stop-color="rgb(76.335144%, 25.698853%, 68.328857%)" offset="0.710938"/><stop stop-opacity="1" stop-color="rgb(76.553345%, 25.682068%, 68.238831%)" offset="0.714844"/><stop stop-opacity="1" stop-color="rgb(76.771545%, 25.665283%, 68.148804%)" offset="0.71875"/><stop stop-opacity="1" stop-color="rgb(76.98822%, 25.646973%, 68.058777%)" offset="0.722656"/><stop stop-opacity="1" stop-color="rgb(77.206421%, 25.630188%, 67.96875%)" offset="0.726562"/><stop stop-opacity="1" stop-color="rgb(77.424622%, 25.611877%, 67.878723%)" offset="0.730469"/><stop stop-opacity="1" stop-color="rgb(77.642822%, 25.595093%, 67.788696%)" offset="0.734375"/><stop stop-opacity="1" stop-color="rgb(77.861023%, 25.578308%, 67.698669%)" offset="0.738281"/><stop stop-opacity="1" stop-color="rgb(78.079224%, 25.561523%, 67.608643%)" offset="0.742187"/><stop stop-opacity="1" stop-color="rgb(78.295898%, 25.543213%, 67.518616%)" offset="0.746094"/><stop stop-opacity="1" stop-color="rgb(78.514099%, 25.526428%, 67.428589%)" offset="0.75"/><stop stop-opacity="1" stop-color="rgb(78.7323%, 25.509644%, 67.338562%)" offset="0.753906"/><stop stop-opacity="1" stop-color="rgb(78.9505%, 25.492859%, 67.248535%)" offset="0.757812"/><stop stop-opacity="1" stop-color="rgb(79.168701%, 25.474548%, 67.158508%)" offset="0.761719"/><stop stop-opacity="1" stop-color="rgb(79.386902%, 25.457764%, 67.068481%)" offset="0.765625"/><stop stop-opacity="1" stop-color="rgb(79.603577%, 25.440979%, 66.978455%)" offset="0.769531"/><stop stop-opacity="1" stop-color="rgb(79.821777%, 25.424194%, 66.888428%)" offset="0.773437"/><stop stop-opacity="1" stop-color="rgb(80.039978%, 25.405884%, 66.798401%)" offset="0.777344"/><stop stop-opacity="1" stop-color="rgb(80.258179%, 25.389099%, 66.708374%)" offset="0.78125"/><stop stop-opacity="1" stop-color="rgb(80.476379%, 25.372314%, 66.618347%)" offset="0.785156"/><stop stop-opacity="1" stop-color="rgb(80.69458%, 25.35553%, 66.52832%)" offset="0.789062"/><stop stop-opacity="1" stop-color="rgb(80.912781%, 25.337219%, 66.438293%)" offset="0.792969"/><stop stop-opacity="1" stop-color="rgb(81.130981%, 25.320435%, 66.348267%)" offset="0.796875"/><stop stop-opacity="1" stop-color="rgb(81.347656%, 25.302124%, 66.25824%)" offset="0.800781"/><stop stop-opacity="1" stop-color="rgb(81.565857%, 25.285339%, 66.168213%)" offset="0.804688"/><stop stop-opacity="1" stop-color="rgb(81.784058%, 25.268555%, 66.078186%)" offset="0.808594"/><stop stop-opacity="1" stop-color="rgb(82.002258%, 25.25177%, 65.988159%)" offset="0.8125"/><stop stop-opacity="1" stop-color="rgb(82.220459%, 25.233459%, 65.898132%)" offset="0.816406"/><stop stop-opacity="1" stop-color="rgb(82.43866%, 25.216675%, 65.808105%)" offset="0.820312"/><stop stop-opacity="1" stop-color="rgb(82.655334%, 25.19989%, 65.718079%)" offset="0.824219"/><stop stop-opacity="1" stop-color="rgb(82.873535%, 25.183105%, 65.628052%)" offset="0.828125"/><stop stop-opacity="1" stop-color="rgb(83.091736%, 25.164795%, 65.538025%)" offset="0.832031"/><stop stop-opacity="1" stop-color="rgb(83.309937%, 25.14801%, 65.447998%)" offset="0.835937"/><stop stop-opacity="1" stop-color="rgb(83.528137%, 25.131226%, 65.357971%)" offset="0.839844"/><stop stop-opacity="1" stop-color="rgb(83.746338%, 25.114441%, 65.267944%)" offset="0.84375"/><stop stop-opacity="1" stop-color="rgb(83.963013%, 25.09613%, 65.177917%)" offset="0.847656"/><stop stop-opacity="1" stop-color="rgb(84.181213%, 25.079346%, 65.087891%)" offset="0.851562"/><stop stop-opacity="1" stop-color="rgb(84.399414%, 25.062561%, 64.997864%)" offset="0.855469"/><stop stop-opacity="1" stop-color="rgb(84.617615%, 25.045776%, 64.909363%)" offset="0.859375"/><stop stop-opacity="1" stop-color="rgb(84.835815%, 25.027466%, 64.819336%)" offset="0.863281"/><stop stop-opacity="1" stop-color="rgb(85.054016%, 25.010681%, 64.729309%)" offset="0.867187"/><stop stop-opacity="1" stop-color="rgb(85.270691%, 24.992371%, 64.639282%)" offset="0.871094"/><stop stop-opacity="1" stop-color="rgb(85.488892%, 24.975586%, 64.549255%)" offset="0.875"/><stop stop-opacity="1" stop-color="rgb(85.707092%, 24.958801%, 64.459229%)" offset="0.878906"/><stop stop-opacity="1" stop-color="rgb(85.925293%, 24.942017%, 64.369202%)" offset="0.882812"/><stop stop-opacity="1" stop-color="rgb(86.143494%, 24.923706%, 64.279175%)" offset="0.886719"/><stop stop-opacity="1" stop-color="rgb(86.361694%, 24.906921%, 64.189148%)" offset="0.890625"/><stop stop-opacity="1" stop-color="rgb(86.579895%, 24.890137%, 64.099121%)" offset="0.894531"/><stop stop-opacity="1" stop-color="rgb(86.798096%, 24.873352%, 64.009094%)" offset="0.898438"/><stop stop-opacity="1" stop-color="rgb(87.014771%, 24.855042%, 63.919067%)" offset="0.902344"/><stop stop-opacity="1" stop-color="rgb(87.232971%, 24.838257%, 63.829041%)" offset="0.90625"/><stop stop-opacity="1" stop-color="rgb(87.451172%, 24.821472%, 63.739014%)" offset="0.910156"/><stop stop-opacity="1" stop-color="rgb(87.669373%, 24.804688%, 63.648987%)" offset="0.914062"/><stop stop-opacity="1" stop-color="rgb(87.887573%, 24.786377%, 63.55896%)" offset="0.917969"/><stop stop-opacity="1" stop-color="rgb(88.105774%, 24.769592%, 63.468933%)" offset="0.921875"/><stop stop-opacity="1" stop-color="rgb(88.322449%, 24.752808%, 63.378906%)" offset="0.925781"/><stop stop-opacity="1" stop-color="rgb(88.540649%, 24.736023%, 63.288879%)" offset="0.929688"/><stop stop-opacity="1" stop-color="rgb(88.75885%, 24.717712%, 63.198853%)" offset="0.933594"/><stop stop-opacity="1" stop-color="rgb(88.977051%, 24.700928%, 63.108826%)" offset="0.9375"/><stop stop-opacity="1" stop-color="rgb(88.987732%, 24.699402%, 63.104248%)" offset="1"/></linearGradient><clipPath id="de96cc8108"><path d="M 4.800781 4.863281 L 219.9375 4.863281 L 219.9375 219.996094 L 4.800781 219.996094 Z M 4.800781 4.863281 " clip-rule="nonzero"/></clipPath></defs><g clip-path="url(#5a743dfddb)"><g clip-path="url(#27419c24f8)"><path fill="url(#ca44704b8d)" d="M 5.40625 5.464844 L 5.40625 219.535156 L 219.476562 219.535156 L 219.476562 5.464844 Z M 5.40625 5.464844 " fill-rule="nonzero"/></g></g><g clip-path="url(#de96cc8108)"><path fill="#000000" d="M 112.441406 220.136719 C 53.066406 220.136719 4.800781 171.871094 4.800781 112.5 C 4.800781 53.128906 53.066406 4.863281 112.441406 4.863281 C 171.769531 4.863281 220.078125 53.128906 220.078125 112.5 C 220.078125 171.871094 171.769531 220.136719 112.441406 220.136719 Z M 112.441406 6.066406 C 53.753906 6.066406 6.007812 53.816406 6.007812 112.5 C 6.007812 171.183594 53.753906 218.933594 112.441406 218.933594 C 171.125 218.933594 218.871094 171.183594 218.871094 112.5 C 218.871094 53.816406 171.125 6.066406 112.441406 6.066406 Z M 112.441406 6.066406 " fill-opacity="1" fill-rule="nonzero"/></g><g fill="#ffffff" fill-opacity="1"><g transform="translate(14.860233, 137.096254)"><g><path d="M 18.546875 -24.46875 C 17.460938 -23.9375 16.273438 -23.523438 14.984375 -23.234375 C 16.273438 -22.929688 17.460938 -22.515625 18.546875 -21.984375 L 31.046875 -15.546875 C 31.578125 -15.285156 31.957031 -14.957031 32.1875 -14.5625 C 32.414062 -14.175781 32.53125 -13.753906 32.53125 -13.296875 L 32.53125 -7.234375 L 5.203125 -21.5 L 5.203125 -24.953125 L 32.53125 -39.1875 L 32.53125 -33.109375 C 32.53125 -32.648438 32.414062 -32.234375 32.1875 -31.859375 C 31.957031 -31.484375 31.578125 -31.15625 31.046875 -30.875 Z M 18.546875 -24.46875 "/></g></g></g><g fill="#ffffff" fill-opacity="1"><g transform="translate(54.812802, 137.096254)"><g><path d="M 32.078125 -40.765625 C 31.804688 -40.285156 31.515625 -39.9375 31.203125 -39.71875 C 30.890625 -39.5 30.503906 -39.390625 30.046875 -39.390625 C 29.566406 -39.390625 29.046875 -39.566406 28.484375 -39.921875 C 27.921875 -40.273438 27.25 -40.671875 26.46875 -41.109375 C 25.6875 -41.546875 24.769531 -41.941406 23.71875 -42.296875 C 22.675781 -42.648438 21.441406 -42.828125 20.015625 -42.828125 C 18.734375 -42.828125 17.609375 -42.671875 16.640625 -42.359375 C 15.679688 -42.054688 14.875 -41.628906 14.21875 -41.078125 C 13.5625 -40.523438 13.070312 -39.863281 12.75 -39.09375 C 12.425781 -38.320312 12.265625 -37.476562 12.265625 -36.5625 C 12.265625 -35.394531 12.59375 -34.421875 13.25 -33.640625 C 13.90625 -32.859375 14.769531 -32.191406 15.84375 -31.640625 C 16.925781 -31.085938 18.15625 -30.59375 19.53125 -30.15625 C 20.914062 -29.71875 22.332031 -29.25 23.78125 -28.75 C 25.226562 -28.257812 26.640625 -27.6875 28.015625 -27.03125 C 29.390625 -26.375 30.617188 -25.546875 31.703125 -24.546875 C 32.785156 -23.546875 33.648438 -22.320312 34.296875 -20.875 C 34.953125 -19.4375 35.28125 -17.679688 35.28125 -15.609375 C 35.28125 -13.359375 34.894531 -11.25 34.125 -9.28125 C 33.363281 -7.320312 32.238281 -5.613281 30.75 -4.15625 C 29.269531 -2.695312 27.460938 -1.546875 25.328125 -0.703125 C 23.191406 0.128906 20.742188 0.546875 17.984375 0.546875 C 16.398438 0.546875 14.835938 0.390625 13.296875 0.078125 C 11.765625 -0.222656 10.289062 -0.660156 8.875 -1.234375 C 7.457031 -1.816406 6.128906 -2.507812 4.890625 -3.3125 C 3.648438 -4.113281 2.546875 -5.007812 1.578125 -6 L 4.3125 -10.4375 C 4.539062 -10.757812 4.835938 -11.03125 5.203125 -11.25 C 5.566406 -11.46875 5.957031 -11.578125 6.375 -11.578125 C 6.945312 -11.578125 7.566406 -11.34375 8.234375 -10.875 C 8.898438 -10.40625 9.691406 -9.878906 10.609375 -9.296875 C 11.535156 -8.722656 12.613281 -8.203125 13.84375 -7.734375 C 15.070312 -7.265625 16.546875 -7.03125 18.265625 -7.03125 C 20.910156 -7.03125 22.953125 -7.65625 24.390625 -8.90625 C 25.835938 -10.15625 26.5625 -11.953125 26.5625 -14.296875 C 26.5625 -15.609375 26.234375 -16.675781 25.578125 -17.5 C 24.929688 -18.332031 24.066406 -19.03125 22.984375 -19.59375 C 21.898438 -20.15625 20.671875 -20.628906 19.296875 -21.015625 C 17.921875 -21.410156 16.519531 -21.835938 15.09375 -22.296875 C 13.664062 -22.753906 12.265625 -23.304688 10.890625 -23.953125 C 9.515625 -24.597656 8.285156 -25.4375 7.203125 -26.46875 C 6.117188 -27.5 5.25 -28.789062 4.59375 -30.34375 C 3.945312 -31.894531 3.625 -33.804688 3.625 -36.078125 C 3.625 -37.890625 3.984375 -39.65625 4.703125 -41.375 C 5.429688 -43.101562 6.484375 -44.632812 7.859375 -45.96875 C 9.234375 -47.300781 10.929688 -48.367188 12.953125 -49.171875 C 14.972656 -49.972656 17.296875 -50.375 19.921875 -50.375 C 22.859375 -50.375 25.566406 -49.914062 28.046875 -49 C 30.523438 -48.082031 32.640625 -46.796875 34.390625 -45.140625 Z M 32.078125 -40.765625 "/></g></g></g><g fill="#ffffff" fill-opacity="1"><g transform="translate(92.595512, 137.096254)"><g><path d="M 10.125 0.109375 C 9.738281 1.160156 9.113281 1.953125 8.25 2.484375 C 7.394531 3.015625 6.515625 3.28125 5.609375 3.28125 L 2 3.28125 L 22.125 -48.21875 C 22.488281 -49.175781 23.050781 -49.910156 23.8125 -50.421875 C 24.570312 -50.941406 25.457031 -51.203125 26.46875 -51.203125 L 30.125 -51.203125 Z M 10.125 0.109375 "/></g></g></g><g fill="#ffffff" fill-opacity="1"><g transform="translate(124.69533, 137.096254)"><g><path d="M 24.1875 -7.234375 C 25.914062 -7.234375 27.363281 -7.441406 28.53125 -7.859375 C 29.707031 -8.273438 30.644531 -8.828125 31.34375 -9.515625 C 32.039062 -10.203125 32.546875 -11.003906 32.859375 -11.921875 C 33.171875 -12.835938 33.328125 -13.816406 33.328125 -14.859375 C 33.328125 -15.929688 33.15625 -16.898438 32.8125 -17.765625 C 32.46875 -18.628906 31.925781 -19.363281 31.1875 -19.96875 C 30.445312 -20.582031 29.5 -21.046875 28.34375 -21.359375 C 27.1875 -21.679688 25.789062 -21.84375 24.15625 -21.84375 L 14.8125 -21.84375 L 14.8125 -7.234375 Z M 14.8125 -42.65625 L 14.8125 -28.265625 L 22.1875 -28.265625 C 25.363281 -28.265625 27.757812 -28.835938 29.375 -29.984375 C 31 -31.128906 31.8125 -32.953125 31.8125 -35.453125 C 31.8125 -38.054688 31.070312 -39.90625 29.59375 -41 C 28.125 -42.101562 25.828125 -42.65625 22.703125 -42.65625 Z M 22.703125 -49.828125 C 25.972656 -49.828125 28.765625 -49.515625 31.078125 -48.890625 C 33.398438 -48.273438 35.300781 -47.394531 36.78125 -46.25 C 38.269531 -45.101562 39.359375 -43.710938 40.046875 -42.078125 C 40.734375 -40.441406 41.078125 -38.601562 41.078125 -36.5625 C 41.078125 -35.394531 40.90625 -34.273438 40.5625 -33.203125 C 40.21875 -32.128906 39.679688 -31.128906 38.953125 -30.203125 C 38.234375 -29.273438 37.316406 -28.429688 36.203125 -27.671875 C 35.085938 -26.910156 33.757812 -26.269531 32.21875 -25.75 C 39.0625 -24.207031 42.484375 -20.503906 42.484375 -14.640625 C 42.484375 -12.523438 42.082031 -10.570312 41.28125 -8.78125 C 40.476562 -6.988281 39.304688 -5.441406 37.765625 -4.140625 C 36.222656 -2.847656 34.328125 -1.832031 32.078125 -1.09375 C 29.828125 -0.363281 27.253906 0 24.359375 0 L 5.546875 0 L 5.546875 -49.828125 Z M 22.703125 -49.828125 "/></g></g></g><g fill="#ffffff" fill-opacity="1"><g transform="translate(170.055243, 137.096254)"><g><path d="M 34.765625 -24.953125 L 34.765625 -21.5 L 7.4375 -7.234375 L 7.4375 -13.296875 C 7.4375 -13.753906 7.550781 -14.175781 7.78125 -14.5625 C 8.007812 -14.957031 8.390625 -15.285156 8.921875 -15.546875 L 21.4375 -21.984375 C 22.507812 -22.515625 23.691406 -22.929688 24.984375 -23.234375 C 23.691406 -23.523438 22.507812 -23.9375 21.4375 -24.46875 L 8.921875 -30.875 C 8.390625 -31.15625 8.007812 -31.484375 7.78125 -31.859375 C 7.550781 -32.234375 7.4375 -32.648438 7.4375 -33.109375 L 7.4375 -39.1875 Z M 34.765625 -24.953125 "/></g></g></g></svg>