<svg xmlns="http://www.w3.org/2000/svg" xmlns:xlink="http://www.w3.org/1999/xlink" width="300" zoomAndPan="magnify" viewBox="0 0 224.87999 225" height="300" preserveAspectRatio="xMidYMid meet" version="1.0"><defs><clipPath id="b2a0d5bd28"><path d="M 19.816406 1 L 204 1 L 204 224 L 19.816406 224 Z M 19.816406 1 " clip-rule="nonzero"/></clipPath></defs><g clip-path="url(#b2a0d5bd28)"><path fill="#000000" d="M 112.039062 1.59375 C 110.730469 1.617188 109.691406 2.691406 109.714844 3.992188 L 109.714844 21.769531 C 109.667969 23.101562 110.742188 24.210938 112.074219 24.210938 C 113.40625 24.210938 114.46875 23.101562 114.433594 21.769531 L 114.433594 3.992188 C 114.457031 2.65625 113.371094 1.570312 112.039062 1.59375 Z M 88.867188 4.652344 C 87.273438 4.617188 86.105469 6.140625 86.542969 7.664062 L 91.144531 24.835938 C 91.449219 26.136719 92.761719 26.925781 94.058594 26.585938 C 95.34375 26.242188 96.085938 24.898438 95.699219 23.621094 L 91.097656 6.445312 C 90.835938 5.40625 89.929688 4.6875 88.867188 4.652344 Z M 67.039062 13.648438 C 65.257812 13.707031 64.183594 15.675781 65.105469 17.210938 L 74 32.617188 C 74.625 33.785156 76.101562 34.199219 77.257812 33.539062 C 78.402344 32.863281 78.777344 31.390625 78.082031 30.246094 L 69.199219 14.851562 C 68.761719 14.070312 67.9375 13.613281 67.039062 13.648438 Z M 146.054688 20.578125 C 141.230469 20.601562 136.214844 21.179688 131.046875 22.382812 L 136.605469 43.097656 C 137.652344 42.355469 138.855469 41.777344 140.167969 41.433594 C 141.652344 41.035156 143.152344 40.960938 144.589844 41.164062 C 148.898438 41.765625 152.660156 44.882812 153.851562 49.34375 C 155.445312 55.28125 151.894531 61.445312 145.949219 63.035156 C 144.636719 63.378906 143.316406 63.484375 142.03125 63.367188 L 147.648438 84.320312 L 167.917969 78.890625 C 169.992188 77.910156 172.105469 80.175781 170.984375 82.183594 C 170.972656 82.207031 170.960938 82.230469 170.9375 82.253906 C 170.109375 83.695312 169.828125 85.417969 170.300781 87.152344 C 171.230469 90.625 174.734375 92.65625 178.203125 91.722656 C 181.671875 90.789062 183.691406 87.285156 182.769531 83.8125 C 182.300781 82.078125 181.191406 80.71875 179.761719 79.894531 C 179.738281 79.882812 179.714844 79.871094 179.703125 79.859375 C 179.679688 79.847656 179.65625 79.835938 179.644531 79.824219 C 177.78125 78.628906 178.429688 75.761719 180.625 75.492188 L 199.972656 70.308594 C 199.453125 65.113281 198.546875 60.34375 196.964844 55.789062 C 196.410156 56 195.84375 56.179688 195.253906 56.34375 C 185.96875 58.835938 176.351562 53.273438 173.863281 43.984375 C 172.472656 38.777344 173.59375 33.46875 176.484375 29.371094 C 167.964844 23.714844 157.582031 20.539062 146.042969 20.589844 Z M 190.628906 26.691406 C 189.578125 26.714844 188.503906 26.84375 187.441406 27.140625 C 180.613281 28.96875 176.589844 35.921875 178.417969 42.757812 C 180.257812 49.578125 187.207031 53.605469 194.039062 51.777344 C 200.871094 49.945312 204.882812 42.980469 203.050781 36.160156 C 201.683594 31.035156 197.425781 27.480469 192.503906 26.808594 C 191.890625 26.726562 191.265625 26.691406 190.628906 26.691406 Z M 48.515625 27.917969 C 46.390625 27.917969 45.355469 30.503906 46.875 31.980469 L 59.441406 44.550781 C 60.375 45.484375 61.859375 45.484375 62.792969 44.550781 C 63.710938 43.628906 63.710938 42.144531 62.792969 41.210938 L 50.214844 28.640625 C 49.765625 28.179688 49.152344 27.917969 48.515625 27.917969 Z M 195.609375 31.578125 C 197.425781 31.613281 198.523438 33.621094 197.578125 35.179688 L 191.679688 45.164062 C 191.03125 46.273438 189.613281 46.652344 188.492188 46.027344 L 183.808594 43.382812 C 182.652344 42.746094 182.226562 41.292969 182.878906 40.136719 C 183.527344 38.992188 184.988281 38.589844 186.132812 39.261719 L 188.789062 40.761719 L 193.507812 32.769531 C 193.933594 32.027344 194.734375 31.566406 195.609375 31.578125 Z M 109.691406 36.75 C 71.9375 38.023438 49.886719 68.597656 55.511719 100.929688 L 71.617188 100.929688 C 71.167969 99.714844 70.933594 98.414062 70.933594 97.058594 C 70.933594 90.90625 75.960938 85.878906 82.105469 85.878906 C 88.253906 85.878906 93.28125 90.90625 93.28125 97.058594 C 93.28125 98.414062 93.03125 99.714844 92.59375 100.929688 L 109.726562 100.929688 C 109.621094 91.664062 109.808594 78.667969 109.84375 74.960938 C 109.84375 74.925781 109.84375 74.886719 109.84375 74.863281 C 109.84375 74.851562 109.84375 74.839844 109.84375 74.828125 C 109.902344 73.578125 110.929688 72.585938 112.179688 72.574219 C 112.902344 72.5625 113.585938 72.882812 114.03125 73.449219 C 115.1875 74.523438 116.722656 75.183594 118.433594 75.183594 C 122.03125 75.183594 124.886719 72.328125 124.886719 68.738281 C 124.886719 65.136719 122.03125 62.28125 118.433594 62.28125 C 116.640625 62.28125 115.046875 63 113.867188 64.171875 C 113.84375 64.207031 113.820312 64.230469 113.785156 64.253906 C 113.773438 64.265625 113.761719 64.277344 113.738281 64.289062 C 113.691406 64.335938 113.644531 64.371094 113.597656 64.40625 C 113.539062 64.453125 113.46875 64.5 113.40625 64.535156 C 113.394531 64.535156 113.394531 64.535156 113.394531 64.535156 C 111.816406 65.457031 109.832031 64.3125 109.84375 62.480469 C 109.84375 57.242188 109.785156 43.558594 109.691406 36.738281 Z M 34.324219 46.546875 C 31.84375 46.453125 30.925781 49.757812 33.082031 50.972656 L 48.480469 59.863281 C 51.207031 61.40625 53.554688 57.347656 50.839844 55.765625 L 35.445312 46.875 C 35.113281 46.675781 34.722656 46.558594 34.324219 46.546875 Z M 25.203125 68.21875 C 22.453125 68.289062 22.015625 72.210938 24.683594 72.882812 L 41.863281 77.484375 C 44.871094 78.253906 46.074219 73.753906 43.078125 72.917969 L 25.898438 68.3125 C 25.675781 68.242188 25.4375 68.21875 25.203125 68.21875 Z M 82.105469 90.601562 C 78.507812 90.601562 75.652344 93.46875 75.652344 97.058594 C 75.652344 98.851562 76.371094 100.445312 77.539062 101.625 C 77.5625 101.648438 77.585938 101.671875 77.609375 101.695312 C 77.660156 101.742188 77.707031 101.804688 77.742188 101.863281 C 77.753906 101.863281 77.753906 101.875 77.765625 101.886719 C 77.800781 101.933594 77.835938 101.980469 77.859375 102.039062 C 77.871094 102.050781 77.882812 102.074219 77.894531 102.085938 C 77.929688 102.132812 77.953125 102.179688 77.976562 102.226562 C 77.988281 102.25 78 102.273438 78.011719 102.296875 C 78.035156 102.347656 78.058594 102.40625 78.070312 102.453125 C 78.082031 102.476562 78.09375 102.5 78.105469 102.523438 C 78.128906 102.582031 78.140625 102.640625 78.164062 102.699219 C 78.164062 102.710938 78.164062 102.722656 78.164062 102.734375 C 78.1875 102.792969 78.199219 102.851562 78.199219 102.914062 C 78.214844 102.9375 78.214844 102.949219 78.214844 102.972656 C 78.226562 103.03125 78.226562 103.078125 78.238281 103.136719 C 78.238281 103.160156 78.238281 103.183594 78.238281 103.207031 C 78.238281 103.242188 78.238281 103.289062 78.238281 103.324219 C 78.238281 103.371094 78.238281 103.421875 78.238281 103.457031 C 78.226562 103.46875 78.226562 103.492188 78.226562 103.503906 C 78.226562 103.5625 78.214844 103.632812 78.199219 103.703125 C 78.1875 103.773438 78.164062 103.84375 78.152344 103.925781 C 78.128906 104 78.105469 104.082031 78.082031 104.152344 C 78.070312 104.164062 78.070312 104.175781 78.058594 104.175781 C 78.011719 104.316406 77.941406 104.445312 77.859375 104.566406 C 77.824219 104.636719 77.777344 104.695312 77.730469 104.765625 C 77.269531 105.332031 76.585938 105.664062 75.851562 105.652344 L 56.269531 105.652344 C 56.316406 105.828125 56.351562 105.992188 56.398438 106.160156 C 61.105469 123.746094 70.648438 134.667969 79.308594 143.957031 C 83.640625 148.609375 87.757812 152.820312 90.882812 157.332031 C 93.539062 161.167969 95.179688 165.40625 95.699219 170.03125 L 109.714844 170.03125 C 109.714844 160.707031 109.691406 151.324219 109.691406 141.984375 C 108.476562 142.433594 107.167969 142.679688 105.808594 142.679688 C 99.664062 142.679688 94.636719 137.652344 94.636719 131.503906 C 94.636719 125.351562 99.664062 120.324219 105.808594 120.324219 C 107.167969 120.324219 108.476562 120.570312 109.691406 121.019531 L 109.714844 105.652344 L 88.347656 105.652344 C 88.324219 105.652344 88.300781 105.652344 88.277344 105.652344 C 88.195312 105.652344 88.113281 105.640625 88.027344 105.628906 C 88.015625 105.628906 88.015625 105.628906 88.015625 105.628906 C 87.945312 105.617188 87.875 105.605469 87.804688 105.59375 C 87.804688 105.59375 87.792969 105.59375 87.78125 105.59375 C 87.722656 105.582031 87.664062 105.554688 87.617188 105.53125 C 87.59375 105.53125 87.570312 105.519531 87.546875 105.519531 C 87.5 105.496094 87.4375 105.472656 87.390625 105.449219 C 87.367188 105.4375 87.355469 105.4375 87.332031 105.425781 C 87.273438 105.390625 87.214844 105.367188 87.15625 105.332031 C 87.144531 105.320312 87.144531 105.320312 87.132812 105.320312 C 87.085938 105.285156 87.027344 105.25 86.96875 105.214844 C 86.96875 105.203125 86.957031 105.191406 86.945312 105.179688 C 86.898438 105.144531 86.847656 105.109375 86.800781 105.0625 C 86.789062 105.050781 86.777344 105.039062 86.753906 105.027344 C 86.71875 104.988281 86.671875 104.941406 86.636719 104.90625 C 86.613281 104.894531 86.601562 104.882812 86.589844 104.871094 C 86.554688 104.824219 86.519531 104.789062 86.496094 104.753906 C 86.472656 104.730469 86.449219 104.707031 86.4375 104.683594 C 86.414062 104.648438 86.390625 104.613281 86.367188 104.578125 C 86.34375 104.542969 86.332031 104.519531 86.308594 104.484375 C 86.28125 104.445312 86.257812 104.410156 86.246094 104.375 C 86.222656 104.339844 86.210938 104.304688 86.1875 104.269531 C 86.175781 104.234375 86.164062 104.1875 86.152344 104.152344 C 86.140625 104.117188 86.128906 104.09375 86.117188 104.058594 C 86.105469 104.011719 86.082031 103.964844 86.070312 103.914062 C 86.070312 103.890625 86.058594 103.855469 86.046875 103.820312 C 86.046875 103.785156 86.035156 103.75 86.035156 103.714844 C 86.023438 103.667969 86.023438 103.632812 86.011719 103.585938 C 86.011719 103.5625 86.011719 103.527344 86.011719 103.503906 C 86 103.457031 86 103.394531 86 103.347656 C 86 103.324219 86 103.300781 86 103.265625 C 86 103.21875 86 103.171875 86 103.113281 C 86.011719 103.089844 86.011719 103.054688 86.011719 103.03125 C 86.011719 102.984375 86.023438 102.925781 86.035156 102.878906 C 86.035156 102.851562 86.035156 102.839844 86.035156 102.816406 C 86.046875 102.757812 86.058594 102.699219 86.082031 102.640625 C 86.082031 102.640625 86.082031 102.628906 86.09375 102.617188 C 86.105469 102.558594 86.128906 102.488281 86.152344 102.429688 C 86.164062 102.40625 86.175781 102.394531 86.1875 102.371094 C 86.210938 102.320312 86.234375 102.261719 86.257812 102.203125 C 86.269531 102.191406 86.269531 102.191406 86.28125 102.179688 C 86.390625 101.980469 86.519531 101.789062 86.683594 101.636719 C 87.851562 100.46875 88.570312 98.863281 88.570312 97.070312 C 88.570312 93.480469 85.703125 90.625 82.117188 90.625 Z M 40.03125 91.484375 C 40.03125 91.484375 40.019531 91.484375 40.007812 91.484375 L 22.230469 91.484375 C 20.894531 91.4375 19.785156 92.511719 19.785156 93.847656 C 19.785156 95.191406 20.894531 96.265625 22.230469 96.21875 L 40.007812 96.21875 C 41.34375 96.265625 42.453125 95.203125 42.464844 93.871094 C 42.464844 92.535156 41.367188 91.449219 40.03125 91.484375 Z M 114.433594 105.652344 L 114.398438 125.269531 C 114.398438 125.316406 114.398438 125.351562 114.398438 125.398438 C 114.339844 127.679688 111.414062 128.550781 110.105469 126.699219 C 108.972656 125.671875 107.472656 125.046875 105.808594 125.046875 C 102.210938 125.046875 99.355469 127.902344 99.355469 131.503906 C 99.355469 135.089844 102.210938 137.949219 105.808594 137.949219 C 107.472656 137.949219 108.960938 137.335938 110.105469 136.308594 C 111.425781 134.417969 114.398438 135.339844 114.398438 137.652344 C 114.398438 137.6875 114.398438 137.722656 114.398438 137.746094 C 114.398438 148.476562 114.433594 159.289062 114.445312 170.03125 L 128.390625 170.03125 C 128.910156 165.417969 130.539062 161.214844 133.183594 157.425781 C 136.296875 152.976562 140.390625 148.820312 144.710938 144.214844 C 153.34375 135.019531 162.878906 124.113281 167.691406 106.160156 C 167.738281 106.003906 167.761719 105.804688 167.796875 105.652344 L 152.53125 105.652344 C 152.980469 106.867188 153.226562 108.164062 153.226562 109.523438 C 153.226562 115.671875 148.191406 120.703125 142.054688 120.703125 C 135.90625 120.703125 130.871094 115.671875 130.871094 109.523438 C 130.871094 108.164062 131.117188 106.867188 131.566406 105.652344 Z M 42.488281 110.136719 C 42.273438 110.136719 42.0625 110.171875 41.851562 110.21875 L 24.683594 114.824219 C 23.410156 115.152344 22.640625 116.453125 22.984375 117.726562 C 23.328125 119 24.636719 119.746094 25.898438 119.390625 L 43.078125 114.789062 C 45.777344 114.101562 45.273438 110.125 42.488281 110.136719 Z M 49.765625 127.511719 C 49.320312 127.5 48.871094 127.621094 48.480469 127.84375 L 33.082031 136.730469 C 31.914062 137.371094 31.492188 138.84375 32.164062 140.003906 C 32.824219 141.160156 34.3125 141.523438 35.445312 140.828125 L 50.839844 131.941406 C 52.929688 130.769531 52.160156 127.59375 49.765625 127.511719 Z M 61.070312 142.433594 C 60.457031 142.457031 59.878906 142.707031 59.441406 143.152344 L 46.875 155.726562 C 45.910156 156.632812 45.886719 158.167969 46.816406 159.113281 C 47.761719 160.058594 49.292969 160.035156 50.214844 159.066406 L 62.792969 146.496094 C 64.339844 144.996094 63.230469 142.375 61.070312 142.433594 Z M 93.148438 174.753906 C 90.933594 174.753906 89.210938 176.476562 89.210938 178.695312 C 89.210938 180.917969 90.933594 182.628906 93.148438 182.628906 L 130.929688 182.628906 C 133.148438 182.628906 134.859375 180.917969 134.859375 178.695312 C 134.859375 176.476562 133.148438 174.753906 130.929688 174.753906 Z M 93.894531 187.351562 L 94.117188 205.90625 C 94.222656 215.820312 102.058594 223.707031 112.027344 223.707031 C 121.996094 223.707031 129.820312 215.820312 129.9375 205.90625 L 130.171875 187.351562 Z M 103.15625 203.25 L 120.921875 203.25 C 122.234375 203.238281 123.308594 204.300781 123.308594 205.609375 C 123.308594 206.921875 122.234375 207.984375 120.921875 207.972656 L 103.15625 207.972656 C 101.832031 207.984375 100.773438 206.921875 100.773438 205.609375 C 100.773438 204.300781 101.832031 203.238281 103.15625 203.25 Z M 103.15625 203.25 " fill-opacity="1" fill-rule="nonzero"/></g></svg>