<svg xmlns="http://www.w3.org/2000/svg" xmlns:xlink="http://www.w3.org/1999/xlink" width="300" zoomAndPan="magnify" viewBox="0 0 224.87999 225" height="300" preserveAspectRatio="xMidYMid meet" version="1.0"><defs><clipPath id="f2e977012a"><path d="M 1 30 L 224.761719 30 L 224.761719 198 L 1 198 Z M 1 30 " clip-rule="nonzero"/></clipPath></defs><g clip-path="url(#f2e977012a)"><path fill="#f06292" d="M 193.238281 126.453125 C 185.433594 126.492188 178.671875 128.371094 173.003906 131.171875 C 170.933594 127.027344 168.832031 123.378906 168.480469 120.667969 C 168.070312 117.503906 167.59375 115.613281 168.089844 111.84375 C 168.589844 108.074219 170.765625 102.730469 170.734375 102.332031 C 170.707031 101.929688 170.25 100.011719 165.746094 99.976562 C 161.242188 99.945312 157.390625 100.84375 156.9375 102.035156 C 156.488281 103.226562 155.617188 105.90625 155.082031 108.703125 C 154.292969 112.792969 146.089844 127.386719 141.4375 135.019531 C 139.914062 132.039062 138.617188 129.414062 138.347656 127.335938 C 137.9375 124.171875 137.460938 122.28125 137.957031 118.511719 C 138.457031 114.742188 140.632812 109.402344 140.601562 109 C 140.574219 108.597656 140.117188 106.679688 135.613281 106.644531 C 131.109375 106.613281 127.257812 107.515625 126.804688 108.703125 C 126.355469 109.894531 125.867188 112.675781 124.949219 115.375 C 124.023438 118.0625 113.125 142.40625 110.265625 148.71875 C 108.808594 151.933594 107.546875 154.515625 106.652344 156.277344 C 106.648438 156.273438 106.648438 156.265625 106.648438 156.265625 C 106.648438 156.265625 106.59375 156.382812 106.5 156.582031 C 105.734375 158.082031 105.28125 158.914062 105.28125 158.914062 C 105.28125 158.914062 105.289062 158.921875 105.296875 158.941406 C 104.6875 160.046875 104.039062 161.070312 103.71875 161.070312 C 103.496094 161.070312 103.042969 158.132812 103.816406 154.105469 C 105.441406 145.660156 109.332031 132.496094 109.296875 132.039062 C 109.277344 131.804688 110.023438 129.511719 106.753906 128.308594 C 103.578125 127.144531 102.445312 129.085938 102.15625 129.09375 C 101.875 129.097656 101.667969 129.78125 101.667969 129.78125 C 101.667969 129.78125 105.207031 114.972656 94.917969 114.972656 C 88.480469 114.972656 79.566406 122.027344 75.175781 128.421875 C 72.402344 129.9375 66.46875 133.183594 60.179688 136.648438 C 57.761719 137.980469 55.296875 139.335938 52.957031 140.628906 C 52.796875 140.453125 52.636719 140.277344 52.472656 140.101562 C 39.992188 126.757812 16.925781 117.320312 17.898438 99.378906 C 18.253906 92.859375 20.519531 75.683594 62.230469 54.859375 C 96.398438 37.796875 123.753906 42.492188 128.480469 52.894531 C 135.234375 67.765625 113.863281 95.390625 78.378906 99.378906 C 64.859375 100.902344 57.738281 95.644531 55.964844 93.691406 C 54.101562 91.632812 53.824219 91.539062 53.128906 91.925781 C 51.996094 92.558594 52.710938 94.375 53.128906 95.457031 C 54.191406 98.21875 58.535156 103.117188 65.945312 105.5625 C 72.46875 107.707031 88.34375 108.882812 107.535156 101.441406 C 129.039062 93.109375 145.828125 69.921875 140.894531 50.546875 C 135.878906 30.839844 103.265625 24.359375 72.402344 35.34375 C 54.011719 41.886719 34.128906 52.152344 19.828125 65.550781 C 2.828125 81.484375 0.117188 95.355469 1.234375 101.148438 C 5.203125 121.742188 33.523438 135.152344 44.863281 145.085938 C 44.304688 145.394531 43.777344 145.6875 43.300781 145.949219 C 37.617188 148.769531 16.027344 160.09375 10.625 172.050781 C 4.496094 185.617188 11.597656 195.355469 16.300781 196.667969 C 30.863281 200.726562 45.808594 193.421875 53.84375 181.417969 C 61.875 169.417969 60.894531 153.785156 57.210938 146.652344 C 57.164062 146.566406 57.113281 146.480469 57.066406 146.386719 C 58.535156 145.519531 60.03125 144.632812 61.515625 143.757812 C 64.40625 142.054688 67.25 140.46875 69.710938 139.125 C 68.332031 142.910156 67.320312 147.453125 66.800781 154.007812 C 66.179688 161.710938 69.332031 171.664062 73.453125 175.582031 C 75.269531 177.308594 77.453125 177.347656 78.835938 177.347656 C 83.632812 177.347656 85.820312 173.347656 88.230469 168.617188 C 91.183594 162.820312 93.808594 156.0625 93.808594 156.0625 C 93.808594 156.0625 90.519531 174.304688 99.484375 174.304688 C 102.753906 174.304688 106.039062 170.058594 107.503906 167.894531 C 107.511719 167.921875 107.511719 167.929688 107.511719 167.929688 C 107.511719 167.929688 107.597656 167.789062 107.765625 167.507812 C 108.105469 166.992188 108.296875 166.660156 108.296875 166.660156 C 108.296875 166.660156 108.304688 166.625 108.3125 166.5625 C 109.628906 164.277344 112.542969 159.070312 116.90625 150.476562 C 122.550781 139.378906 127.964844 125.472656 127.964844 125.472656 C 127.964844 125.472656 128.464844 128.867188 130.117188 134.496094 C 131.085938 137.800781 133.144531 141.460938 134.777344 144.96875 C 133.464844 146.789062 132.664062 147.832031 132.664062 147.832031 C 132.664062 147.832031 132.667969 147.851562 132.683594 147.890625 C 131.636719 149.28125 130.464844 150.785156 129.238281 152.25 C 124.78125 157.5625 119.476562 163.636719 118.765625 165.386719 C 117.925781 167.453125 118.125 168.96875 119.746094 170.195312 C 120.925781 171.085938 123.027344 171.226562 125.226562 171.082031 C 129.230469 170.8125 132.042969 169.8125 133.4375 169.207031 C 135.601562 168.441406 138.125 167.234375 140.492188 165.488281 C 144.863281 162.269531 147.496094 157.667969 147.242188 151.5625 C 147.101562 148.199219 146.035156 144.867188 144.679688 141.722656 C 145.074219 141.152344 145.472656 140.574219 145.871094 139.992188 C 152.761719 129.902344 158.105469 118.8125 158.105469 118.8125 C 158.105469 118.8125 158.609375 122.210938 160.257812 127.835938 C 161.089844 130.679688 162.742188 133.789062 164.222656 136.828125 C 157.746094 142.105469 153.730469 148.234375 152.335938 152.253906 C 149.757812 159.691406 151.777344 163.058594 155.5625 163.828125 C 157.277344 164.171875 159.707031 163.382812 161.527344 162.609375 C 163.796875 161.859375 166.523438 160.601562 169.070312 158.722656 C 173.441406 155.503906 177.644531 150.996094 177.390625 144.898438 C 177.273438 142.121094 176.523438 139.363281 175.503906 136.71875 C 180.996094 134.425781 188.101562 133.152344 197.160156 134.210938 C 216.585938 136.484375 220.390625 148.636719 219.667969 153.722656 C 218.9375 158.8125 214.863281 161.609375 213.5 162.453125 C 212.136719 163.296875 211.722656 163.59375 211.832031 164.21875 C 212 165.128906 212.632812 165.097656 213.792969 164.898438 C 215.390625 164.628906 223.992188 160.765625 224.363281 151.375 C 224.824219 139.441406 213.429688 126.347656 193.238281 126.453125 Z M 43.503906 177.039062 C 37.066406 184.074219 28.082031 186.726562 24.222656 184.488281 C 20.0625 182.074219 21.710938 171.714844 29.605469 164.25 C 34.417969 159.699219 40.628906 155.507812 44.753906 152.929688 C 45.691406 152.367188 47.066406 151.535156 48.742188 150.527344 C 49.023438 150.371094 49.179688 150.285156 49.179688 150.285156 L 49.175781 150.273438 C 49.5 150.082031 49.828125 149.882812 50.167969 149.675781 C 53.046875 160.300781 50.261719 169.65625 43.503906 177.039062 Z M 90.382812 145.105469 C 88.144531 150.578125 83.453125 164.589844 80.597656 163.835938 C 78.144531 163.191406 76.652344 152.542969 80.109375 142.066406 C 81.84375 136.789062 85.5625 130.488281 87.742188 128.039062 C 91.257812 124.101562 95.125 122.816406 96.0625 124.414062 C 97.257812 126.449219 91.789062 141.671875 90.382812 145.105469 Z M 129.109375 163.621094 C 128.160156 164.121094 127.289062 164.433594 126.886719 164.191406 C 126.585938 164.015625 127.277344 163.359375 127.277344 163.359375 C 127.277344 163.359375 132.121094 158.132812 134.03125 155.757812 C 135.140625 154.375 136.425781 152.730469 137.828125 150.902344 C 137.835938 151.082031 137.839844 151.265625 137.839844 151.445312 C 137.832031 157.703125 131.800781 161.925781 129.109375 163.621094 Z M 158.945312 156.804688 C 158.234375 156.304688 158.355469 154.667969 160.683594 149.578125 C 161.597656 147.578125 163.691406 144.214844 167.316406 141 C 167.734375 142.324219 167.988281 143.589844 167.984375 144.769531 C 167.9375 152.644531 162.335938 155.585938 158.945312 156.804688 Z M 158.945312 156.804688 " fill-opacity="1" fill-rule="nonzero"/></g></svg>