<svg xmlns="http://www.w3.org/2000/svg" xmlns:xlink="http://www.w3.org/1999/xlink" width="300" zoomAndPan="magnify" viewBox="0 0 224.87999 225" height="300" preserveAspectRatio="xMidYMid meet" version="1.0"><defs><clipPath id="205d0010f3"><path d="M 15 7.121094 L 210 7.121094 L 210 72 L 15 72 Z M 15 7.121094 " clip-rule="nonzero"/></clipPath><clipPath id="3ffeaa7b3c"><path d="M 7.0625 71.21875 L 217.699219 71.21875 L 217.699219 159.195312 L 7.0625 159.195312 Z M 7.0625 71.21875 " clip-rule="nonzero"/></clipPath><clipPath id="40ed982d6c"><path d="M 15.105469 153.347656 L 209.585938 153.347656 L 209.585938 217.761719 L 15.105469 217.761719 Z M 15.105469 153.347656 " clip-rule="nonzero"/></clipPath></defs><g clip-path="url(#205d0010f3)"><path fill="#ef363c" d="M 201.441406 56.152344 C 197.3125 49.648438 192.4375 43.550781 186.855469 37.96875 C 166.964844 18.074219 140.515625 7.121094 112.382812 7.121094 C 84.25 7.121094 57.800781 18.074219 37.910156 37.96875 C 32.328125 43.550781 27.453125 49.648438 23.324219 56.152344 C 20.234375 61.015625 17.578125 66.113281 15.34375 71.390625 L 209.417969 71.390625 C 207.183594 66.113281 204.53125 61.015625 201.441406 56.152344 " fill-opacity="1" fill-rule="nonzero"/></g><g clip-path="url(#3ffeaa7b3c)"><path fill="#f6ed20" d="M 217.699219 112.441406 C 217.699219 98.101562 214.84375 84.207031 209.417969 71.390625 L 15.34375 71.390625 C 9.921875 84.207031 7.0625 98.105469 7.0625 112.441406 C 7.0625 128.867188 10.8125 144.710938 17.878906 159.019531 L 206.882812 159.019531 C 213.953125 144.710938 217.699219 128.867188 217.699219 112.441406 " fill-opacity="1" fill-rule="nonzero"/></g><g clip-path="url(#40ed982d6c)"><path fill="#ef363c" d="M 15.34375 153.484375 C 16.640625 156.105469 20.570312 164.214844 22.085938 166.730469 C 26.46875 173.988281 31.761719 180.765625 37.910156 186.910156 C 57.800781 206.804688 84.25 217.761719 112.382812 217.761719 C 140.511719 217.761719 166.960938 206.804688 186.855469 186.910156 C 193.003906 180.761719 198.296875 173.988281 202.675781 166.730469 C 204.195312 164.214844 208.125 156.105469 209.417969 153.484375 L 15.34375 153.484375 " fill-opacity="1" fill-rule="nonzero"/></g></svg>