<svg xmlns="http://www.w3.org/2000/svg" xmlns:xlink="http://www.w3.org/1999/xlink" width="300" zoomAndPan="magnify" viewBox="0 0 224.87999 225" height="300" preserveAspectRatio="xMidYMid meet" version="1.0"><defs><clipPath id="6e74156887"><path d="M 0 0.0585938 L 224.761719 0.0585938 L 224.761719 224.9375 L 0 224.9375 Z M 0 0.0585938 " clip-rule="nonzero"/></clipPath><clipPath id="093915e79d"><path d="M 224.878906 167.871094 C 224.878906 169.105469 224.839844 171.761719 224.765625 173.839844 C 224.570312 178.886719 224.1875 185.394531 223.570312 188.359375 C 222.648438 192.824219 221.300781 197.023438 219.488281 200.527344 C 217.371094 204.683594 214.675781 208.382812 211.441406 211.578125 C 208.246094 214.773438 204.546875 217.46875 200.390625 219.585938 C 196.886719 221.398438 192.648438 222.746094 188.144531 223.667969 C 185.21875 224.246094 178.75 224.671875 173.742188 224.824219 C 171.664062 224.902344 169.007812 224.941406 167.773438 224.941406 L 57.027344 224.941406 C 55.796875 224.941406 53.140625 224.902344 51.058594 224.824219 C 46.015625 224.632812 39.507812 224.246094 36.542969 223.628906 C 32.078125 222.707031 27.878906 221.359375 24.375 219.550781 C 20.214844 217.429688 16.519531 214.734375 13.324219 211.5 C 10.128906 208.304688 7.433594 204.609375 5.3125 200.449219 C 3.503906 196.945312 2.15625 192.710938 1.230469 188.203125 C 0.65625 185.277344 0.230469 178.808594 0.078125 173.804688 C 0.0390625 171.761719 0 169.105469 0 167.871094 L 0 57.128906 C 0 55.894531 0.0390625 53.238281 0.117188 51.160156 C 0.308594 46.113281 0.691406 39.605469 1.308594 36.640625 C 2.234375 32.175781 3.582031 27.976562 5.390625 24.472656 C 7.507812 20.316406 10.203125 16.617188 13.398438 13.421875 C 16.597656 10.226562 20.292969 7.53125 24.453125 5.414062 C 27.957031 3.601562 32.191406 2.253906 36.695312 1.332031 C 39.625 0.753906 46.09375 0.328125 51.097656 0.175781 C 53.179688 0.0976562 55.835938 0.0585938 57.066406 0.0585938 L 167.8125 0.0585938 C 169.046875 0.0585938 171.703125 0.0976562 173.78125 0.175781 C 178.824219 0.367188 185.332031 0.753906 188.296875 1.371094 C 192.765625 2.292969 196.960938 3.640625 200.464844 5.449219 C 204.625 7.570312 208.320312 10.265625 211.519531 13.5 C 214.714844 16.695312 217.410156 20.390625 219.527344 24.550781 C 221.335938 28.054688 222.683594 32.289062 223.609375 36.796875 C 224.1875 39.722656 224.609375 46.191406 224.765625 51.195312 C 224.839844 53.277344 224.878906 55.933594 224.878906 57.164062 Z M 224.878906 167.871094 " clip-rule="evenodd"/></clipPath><linearGradient x1="292.022" gradientTransform="matrix(0.385068, 0, 0, 0.385068, 0, 0.060015)" y1="583.999915" x2="292.022" gradientUnits="userSpaceOnUse" y2="0.00000113249" id="8544be6a09"><stop stop-opacity="1" stop-color="rgb(14.500427%, 81.201172%, 26.301575%)" offset="0"/><stop stop-opacity="1" stop-color="rgb(14.683533%, 81.341553%, 26.478577%)" offset="0.015625"/><stop stop-opacity="1" stop-color="rgb(15.05127%, 81.622314%, 26.832581%)" offset="0.03125"/><stop stop-opacity="1" stop-color="rgb(15.419006%, 81.903076%, 27.186584%)" offset="0.046875"/><stop stop-opacity="1" stop-color="rgb(15.785217%, 82.185364%, 27.542114%)" offset="0.0625"/><stop stop-opacity="1" stop-color="rgb(16.152954%, 82.466125%, 27.896118%)" offset="0.078125"/><stop stop-opacity="1" stop-color="rgb(16.520691%, 82.746887%, 28.251648%)" offset="0.09375"/><stop stop-opacity="1" stop-color="rgb(16.886902%, 83.027649%, 28.605652%)" offset="0.109375"/><stop stop-opacity="1" stop-color="rgb(17.254639%, 83.309937%, 28.961182%)" offset="0.125"/><stop stop-opacity="1" stop-color="rgb(17.62085%, 83.590698%, 29.315186%)" offset="0.140625"/><stop stop-opacity="1" stop-color="rgb(17.988586%, 83.87146%, 29.669189%)" offset="0.15625"/><stop stop-opacity="1" stop-color="rgb(18.356323%, 84.153748%, 30.024719%)" offset="0.171875"/><stop stop-opacity="1" stop-color="rgb(18.722534%, 84.434509%, 30.378723%)" offset="0.1875"/><stop stop-opacity="1" stop-color="rgb(19.090271%, 84.715271%, 30.734253%)" offset="0.203125"/><stop stop-opacity="1" stop-color="rgb(19.456482%, 84.997559%, 31.088257%)" offset="0.21875"/><stop stop-opacity="1" stop-color="rgb(19.824219%, 85.27832%, 31.443787%)" offset="0.234375"/><stop stop-opacity="1" stop-color="rgb(20.191956%, 85.559082%, 31.797791%)" offset="0.25"/><stop stop-opacity="1" stop-color="rgb(20.558167%, 85.84137%, 32.151794%)" offset="0.265625"/><stop stop-opacity="1" stop-color="rgb(20.925903%, 86.122131%, 32.507324%)" offset="0.28125"/><stop stop-opacity="1" stop-color="rgb(21.29364%, 86.402893%, 32.861328%)" offset="0.296875"/><stop stop-opacity="1" stop-color="rgb(21.659851%, 86.683655%, 33.216858%)" offset="0.3125"/><stop stop-opacity="1" stop-color="rgb(22.027588%, 86.965942%, 33.570862%)" offset="0.328125"/><stop stop-opacity="1" stop-color="rgb(22.393799%, 87.246704%, 33.926392%)" offset="0.34375"/><stop stop-opacity="1" stop-color="rgb(22.761536%, 87.527466%, 34.280396%)" offset="0.359375"/><stop stop-opacity="1" stop-color="rgb(23.129272%, 87.809753%, 34.635925%)" offset="0.375"/><stop stop-opacity="1" stop-color="rgb(23.495483%, 88.090515%, 34.989929%)" offset="0.390625"/><stop stop-opacity="1" stop-color="rgb(23.86322%, 88.371277%, 35.343933%)" offset="0.40625"/><stop stop-opacity="1" stop-color="rgb(24.230957%, 88.653564%, 35.699463%)" offset="0.421875"/><stop stop-opacity="1" stop-color="rgb(24.597168%, 88.934326%, 36.053467%)" offset="0.4375"/><stop stop-opacity="1" stop-color="rgb(24.964905%, 89.215088%, 36.408997%)" offset="0.453125"/><stop stop-opacity="1" stop-color="rgb(25.331116%, 89.497375%, 36.763%)" offset="0.46875"/><stop stop-opacity="1" stop-color="rgb(25.698853%, 89.778137%, 37.11853%)" offset="0.484375"/><stop stop-opacity="1" stop-color="rgb(26.066589%, 90.058899%, 37.472534%)" offset="0.5"/><stop stop-opacity="1" stop-color="rgb(26.4328%, 90.339661%, 37.826538%)" offset="0.515625"/><stop stop-opacity="1" stop-color="rgb(26.800537%, 90.621948%, 38.182068%)" offset="0.53125"/><stop stop-opacity="1" stop-color="rgb(27.168274%, 90.90271%, 38.536072%)" offset="0.546875"/><stop stop-opacity="1" stop-color="rgb(27.534485%, 91.183472%, 38.891602%)" offset="0.5625"/><stop stop-opacity="1" stop-color="rgb(27.902222%, 91.465759%, 39.245605%)" offset="0.578125"/><stop stop-opacity="1" stop-color="rgb(28.268433%, 91.746521%, 39.601135%)" offset="0.59375"/><stop stop-opacity="1" stop-color="rgb(28.636169%, 92.027283%, 39.955139%)" offset="0.609375"/><stop stop-opacity="1" stop-color="rgb(29.003906%, 92.30957%, 40.309143%)" offset="0.625"/><stop stop-opacity="1" stop-color="rgb(29.370117%, 92.590332%, 40.664673%)" offset="0.640625"/><stop stop-opacity="1" stop-color="rgb(29.737854%, 92.871094%, 41.018677%)" offset="0.65625"/><stop stop-opacity="1" stop-color="rgb(30.105591%, 93.151855%, 41.374207%)" offset="0.671875"/><stop stop-opacity="1" stop-color="rgb(30.471802%, 93.434143%, 41.72821%)" offset="0.6875"/><stop stop-opacity="1" stop-color="rgb(30.839539%, 93.714905%, 42.08374%)" offset="0.703125"/><stop stop-opacity="1" stop-color="rgb(31.20575%, 93.995667%, 42.437744%)" offset="0.71875"/><stop stop-opacity="1" stop-color="rgb(31.573486%, 94.277954%, 42.791748%)" offset="0.734375"/><stop stop-opacity="1" stop-color="rgb(31.941223%, 94.558716%, 43.147278%)" offset="0.75"/><stop stop-opacity="1" stop-color="rgb(32.307434%, 94.839478%, 43.501282%)" offset="0.765625"/><stop stop-opacity="1" stop-color="rgb(32.675171%, 95.121765%, 43.856812%)" offset="0.78125"/><stop stop-opacity="1" stop-color="rgb(33.041382%, 95.402527%, 44.210815%)" offset="0.796875"/><stop stop-opacity="1" stop-color="rgb(33.409119%, 95.683289%, 44.566345%)" offset="0.8125"/><stop stop-opacity="1" stop-color="rgb(33.776855%, 95.965576%, 44.920349%)" offset="0.828125"/><stop stop-opacity="1" stop-color="rgb(34.143066%, 96.246338%, 45.274353%)" offset="0.84375"/><stop stop-opacity="1" stop-color="rgb(34.510803%, 96.5271%, 45.629883%)" offset="0.859375"/><stop stop-opacity="1" stop-color="rgb(34.87854%, 96.807861%, 45.983887%)" offset="0.875"/><stop stop-opacity="1" stop-color="rgb(35.244751%, 97.090149%, 46.339417%)" offset="0.890625"/><stop stop-opacity="1" stop-color="rgb(35.612488%, 97.370911%, 46.69342%)" offset="0.90625"/><stop stop-opacity="1" stop-color="rgb(35.978699%, 97.651672%, 47.04895%)" offset="0.921875"/><stop stop-opacity="1" stop-color="rgb(36.346436%, 97.93396%, 47.402954%)" offset="0.9375"/><stop stop-opacity="1" stop-color="rgb(36.714172%, 98.214722%, 47.756958%)" offset="0.953125"/><stop stop-opacity="1" stop-color="rgb(37.080383%, 98.495483%, 48.112488%)" offset="0.96875"/><stop stop-opacity="1" stop-color="rgb(37.44812%, 98.777771%, 48.466492%)" offset="0.984375"/><stop stop-opacity="1" stop-color="rgb(37.815857%, 99.058533%, 48.822021%)" offset="1"/></linearGradient></defs><g clip-path="url(#6e74156887)"><g clip-path="url(#093915e79d)"><path fill="url(#8544be6a09)" d="M 0 0.0585938 L 0 224.941406 L 224.761719 224.941406 L 224.761719 0.0585938 Z M 0 0.0585938 " fill-rule="nonzero"/></g></g><path fill="#ffffff" d="M 171.585938 53.894531 C 156.453125 38.757812 136.3125 30.402344 114.867188 30.402344 C 70.660156 30.402344 34.734375 66.367188 34.695312 110.535156 C 34.695312 124.667969 38.390625 138.453125 45.398438 150.582031 L 34.039062 192.132812 L 76.550781 181.003906 C 88.257812 187.394531 101.425781 190.746094 114.867188 190.746094 L 114.90625 190.746094 C 159.070312 190.746094 195.039062 154.78125 195.074219 110.613281 C 195.074219 89.164062 186.71875 69.027344 171.585938 53.894531 Z M 114.90625 177.191406 C 102.929688 177.191406 91.183594 173.957031 80.980469 167.910156 L 78.554688 166.488281 L 53.332031 173.109375 L 60.070312 148.542969 L 58.492188 146.039062 C 51.832031 135.449219 48.289062 123.167969 48.289062 110.574219 C 48.289062 73.839844 78.207031 43.957031 114.941406 43.957031 C 132.734375 43.957031 149.484375 50.890625 162.035156 63.480469 C 174.628906 76.074219 181.558594 92.824219 181.519531 110.613281 C 181.484375 147.308594 151.601562 177.191406 114.90625 177.191406 Z M 151.449219 127.324219 C 149.445312 126.324219 139.585938 121.472656 137.777344 120.816406 C 135.929688 120.164062 134.621094 119.816406 133.273438 121.820312 C 131.925781 123.820312 128.113281 128.328125 126.917969 129.675781 C 125.761719 131.023438 124.570312 131.175781 122.566406 130.175781 C 120.566406 129.171875 114.097656 127.054688 106.472656 120.238281 C 100.503906 114.925781 96.5 108.378906 95.34375 106.378906 C 94.1875 104.375 95.226562 103.296875 96.230469 102.296875 C 97.113281 101.410156 98.230469 99.945312 99.230469 98.792969 C 100.234375 97.636719 100.578125 96.789062 101.234375 95.441406 C 101.890625 94.09375 101.582031 92.9375 101.082031 91.9375 C 100.578125 90.9375 96.574219 81.078125 94.917969 77.074219 C 93.300781 73.183594 91.644531 73.683594 90.414062 73.648438 C 89.257812 73.570312 87.910156 73.570312 86.5625 73.570312 C 85.214844 73.570312 83.058594 74.070312 81.210938 76.074219 C 79.363281 78.074219 74.203125 82.925781 74.203125 92.785156 C 74.203125 102.640625 81.363281 112.152344 82.367188 113.5 C 83.367188 114.847656 96.5 135.066406 116.597656 143.730469 C 121.375 145.808594 125.109375 147.039062 128.035156 147.964844 C 132.847656 149.503906 137.199219 149.273438 140.664062 148.773438 C 144.515625 148.195312 152.527344 143.921875 154.179688 139.261719 C 155.835938 134.601562 155.835938 130.558594 155.335938 129.75 C 154.757812 128.828125 153.449219 128.328125 151.449219 127.324219 Z M 151.449219 127.324219 " fill-opacity="1" fill-rule="evenodd"/></svg>